<?xml version="1.0" encoding="utf-8"?>
<!-- Generator: Adobe Illustrator 25.0.1, SVG Export Plug-In . SVG Version: 6.00 Build 0)  -->
<svg version="1.1" xmlns="http://www.w3.org/2000/svg" xmlns:xlink="http://www.w3.org/1999/xlink" x="0px" y="0px"
	 viewBox="0 0 2732 2048" style="enable-background:new 0 0 2732 2048;" xml:space="preserve">
<style type="text/css">
	.st0{fill:#6DBBBB;}
	.st1{fill:#3134A2;}
	.st2{fill:#B83838;}
	.st3{fill:#B86338;}
	.st4{fill:#3861B8;}
	.st5{fill:#4E5462;}
	.st6{fill:#C94D4D;}
	.st7{fill:#4E5563;fill-opacity:0.1646;}
	.st8{font-family:'Courier';}
	.st9{font-size:91.8px;}
	.st10{font-size:91.8484px;}
</style>
<g id="Pixel_layer_xA0_Image_1_">
	
		<image style="overflow:visible;" width="571" height="1445" id="Pixel_layer_xA0_Image" xlink:href="FF66E5D38F634E1F.png"  transform="matrix(0 1 -1 0 2083.071 -0.5831)">
	</image>
</g>
<g id="Vector_layer_1_">
	<path d="M1393.9,466c0-17.2,0-34.5,0-51.7c0-17.3,0-34.7,0-52c0-17.3,0-34.5,0-51.8c0-17.4,0-34.9,0-52.3c0-2.2,1.8-4,4-4
		c0.8,0,1.6,0.2,2.2,0.7c0.3-1.6,0.6-3.1,1-4.7c0.4-2,1-4.1,1.5-6.1c0.5-2.1,1-4.3,1.6-6.4c0.5-2,1.4-4,2.2-6
		c0.8-1.9,1.5-3.8,2.2-5.8c1.4-4,3-8,4.6-11.9c0.8-1.9,1.5-3.8,2.3-5.7c0.8-1.9,1.5-3.9,2.5-5.6c1-1.8,2.2-3.5,3.5-5.2
		c1.3-1.7,2.6-3.4,4.3-4.8c0.7-0.6,1.4-1.2,2.2-1.8c1-0.7,2-1.3,3.1-1.9c1.8-1,3.6-1.9,5.5-2.9c1.9-1,3.8-1.7,5.8-2.4
		c2.7-1,5.5-1.8,8.4-2c2.1-0.2,4.3-0.1,6.4-0.1c2.1,0,4.2,0,6.3,0c4.3,0.1,8.6,0.1,12.9,0.5c2.1,0.2,4.1,0.4,6.2,0.7
		c2,0.3,4.1,0.8,6.1,1.2c2.1,0.5,4.2,0.9,6.3,1.6c2.1,0.6,4.2,1.3,6.3,2c2.1,0.8,4.2,1.6,6.2,2.6c2.1,1,4.2,2.2,6.2,3.3
		c3.7,2.2,7.5,4.4,10.9,7.1c1.8,1.4,3.6,2.8,5.3,4.4c1.6,1.5,3.1,3,4.6,4.5c2.9,3,5.6,6.2,8.4,9.2c1.5,1.6,3.1,3.2,4.5,4.9
		c1.4,1.7,2.7,3.3,4.1,5.1c1.1,1.4,2.1,2.9,3.1,4.4c1.2,1.8,2.4,3.5,3.6,5.3c2.2,3.3,4.4,6.5,6.3,10c1,1.8,2,3.5,2.8,5.4
		c0.9,2,1.8,4.1,2.7,6.2c1.5,3.8,2.7,7.6,4,11.4c-0.1-0.2-0.1-0.3-0.2-0.5c1.1,2.9,2.2,5.7,3.1,8.6c0.9,2.8,1.7,5.6,2.6,8.4
		c0.9,2.8,1.8,5.6,2.4,8.5c0.7,3.1,1.3,6.1,1.8,9.2c0.4,1.9,0.8,3.7,1.2,5.6c0.5,2.1,1,4.2,1.4,6.4c0.2,0.8,0.3,1.7,0.5,2.5
		c1.2,0,2.5,0,3.7,0c2.2,0,4,1.8,4,4s-1.8,4-4,4c-0.9,0-1.8,0-2.7,0c0.1,0.7,0.1,1.5,0.2,2.2c0.3,4.3,0.8,8.6,1.5,12.9
		c0.7,4.5,1.5,9,2.1,13.5c0.6,4.3,1.3,8.6,1.8,12.9c0.6,4.3,1.3,8.6,2,12.9c1.4,8.7,2.5,17.5,2.5,26.3c0,8.8,0,17.7-0.1,26.5
		c0,4.2-0.1,8.3-0.3,12.5c-0.1,4.6-0.5,9.1-0.9,13.6c-0.2,2-0.4,4.1-0.6,6.1c-0.2,2.2-0.4,4.4-0.6,6.6c-0.4,4.3-0.8,8.6-1.3,12.9
		c-0.3,2.1-0.6,4.1-1,6.2c-0.4,2.1-0.7,4.2-1,6.3c-0.8,4.4-1.5,8.9-2.8,13.2c-0.6,2-1.4,4-2.3,5.9c-0.9,1.9-1.8,3.8-2.7,5.8
		c-1.8,3.8-3.7,7.6-5.8,11.3c-2.1,3.9-4.4,7.7-6.9,11.3c-2.4,3.6-5.1,6.9-7.9,10.2c-1.7,2-3.4,4-5.3,5.8c-1.9,1.8-3.9,3.6-5.9,5.3
		c-3.7,3.3-7.3,6.8-10.9,10.3c-1.8,1.7-3.6,3.3-5.4,4.9c-2,1.7-3.9,3.4-6.1,4.8c0,0,0,0,0,0c0.1-0.1,0.2-0.1,0.2-0.2
		c-0.1,0.1-0.2,0.1-0.3,0.2c-0.1,0.1-0.1,0.1-0.2,0.1c-0.2,0.2-0.5,0.3-0.7,0.5c-0.1,0.1-0.2,0.1-0.3,0.2c-0.8,0.5-1.7,1-2.6,1.5
		c-1.4,0.7-2.8,1.4-4.2,1.9c-1.8,0.6-3.6,1-5.4,1.4c-1.3,0.2-2.6,0.3-4,0.3c-2,0.1-3.9,0-5.9,0c-2.3,0-4.5,0-6.8-0.1
		c-4.2-0.1-8.4-0.1-12.6-0.3c-4.3-0.2-8.5-0.5-12.7-1.3c-4.4-0.8-8.7-2-12.9-3.6c-1.6-0.6-3.2-1.3-4.7-2.2c-1-0.6-1.9-1.2-2.9-1.7
		c-1.8-1.1-3.7-2.3-5.4-3.6c-1.9-1.3-3.6-2.7-5.3-4.2c-1.7-1.4-3.3-2.8-5-4.2c-3.4-3-6.4-6.4-9.2-9.9c-2.7-3.4-5.2-7-7.8-10.6
		c-2.5-3.5-4.6-7.3-6.6-11.1c-1.1-2-2.2-4-3.1-6.1c-0.9-1.9-1.8-3.8-2.6-5.6c-0.9-2-1.9-3.9-2.7-5.9c-0.8-2-1.6-4.1-2.4-6.1
		c-0.8-2.2-1.6-4.3-2.4-6.5c-0.8-2.2-1.3-4.4-1.9-6.6c-1.1-4.1-2.4-8.2-3.4-12.3c-1-4.3-1.4-8.7-1.9-13.1c-0.3-2.3-0.5-4.6-0.6-6.9
		c-0.1-1.3-0.1-2.6-0.1-3.9C1393.9,467.8,1393.9,466.9,1393.9,466z M1404.7,304.7c-0.6,0.8-1.6,1.4-2.6,1.5c-0.1,0-0.1,0-0.2,0v5.6
		v7.4c0,0,0,0,0,0c0,0,0,0,0,0c0.4-0.2,0.8-0.3,1.2-0.4c1.2-0.2,2.4-0.5,3.7-0.7c3.2-0.6,6.5-1.2,9.7-1.7c2-0.3,4.1-0.6,6.2-0.6
		c2,0,4.1,0.1,6.5,0.3c1.9,0.2,3.8,0.5,5.8,0.8c1.3,0.2,2.6,0.5,3.9,0.7c0.8,0.2,1.5,0.3,2.3,0.5c4,0.8,8,1.1,11.4,1.4
		c7.3,0.4,14.7,0.4,21.8,0.4l3.3,0c6.4,0,12.8,0,19.1,0h6.4h49.3l26.2,0c-0.1-0.4-0.1-0.7-0.2-1l0-0.2c-0.6-2.8-1.3-5.7-2-8.5
		c-0.5-2.1-0.9-4.4-1.3-6.5c-0.2-0.9-0.3-1.8-0.5-2.8c-0.8-3.5-1.6-6.6-2.5-9.5c-0.4-1.3-0.8-2.7-1.2-4c-0.6-2-1.2-4-1.8-6
		c-0.5-1.6-1.1-3.1-1.7-4.7c-1-2.8-2-5.7-3-8.5c-0.7-1.9-1.3-3.8-2.1-5.7c-0.8-2-1.7-3.9-2.7-6.2c-1.5-2.9-2.8-5.2-4.2-7.4
		c-1.7-2.6-3.4-5.2-4.7-7.2c-0.5-0.7-1-1.5-1.5-2.2c-1.1-1.7-2.3-3.4-3.5-5c-1.8-2.5-3.8-4.9-5.3-6.7c-1.1-1.2-2.1-2.3-3.2-3.4
		c-1.6-1.8-3.3-3.5-4.9-5.3c-3.2-3.5-5.7-6.1-8.2-8.5c-1.2-1-2.4-2-3.6-3c-1.4-1.1-2.9-2.1-4.3-3.1c-3.1-2-6.5-4.1-10.4-6.2
		c-1.3-0.6-2.5-1.2-3.8-1.8c-1.1-0.5-2.2-0.9-3.3-1.3l-1-0.4l-0.8-0.3c-1.8-0.6-3.8-1.3-5.7-1.8c-2.1-0.5-4.2-1-6.3-1.4l-0.8-0.2
		c-3.1-0.6-6.2-1-9.3-1.3c-3.3-0.2-6.8-0.3-11.4-0.4l-2,0c-3.3,0-6.6-0.1-9.9,0c-0.6,0.1-1.4,0.1-2.1,0.2c-1.6,0.4-3.1,0.8-4.5,1.3
		c-1.9,0.7-3.4,1.3-4.8,1.9l-1.5,0.8c-1.9,1-3.9,2.1-5.8,3.2c-0.7,0.5-1.5,1.1-2.3,1.7c-0.4,0.4-0.8,0.8-1.2,1.2
		c-1.4,1.7-2.6,3.2-3.6,4.8c-0.4,0.6-0.8,1.2-1.1,1.9c-1.2,2.5-2.2,5.1-3.2,7.5c-0.6,1.5-1.2,3-1.8,4.4c-0.5,1.2-1,2.4-1.5,3.6
		c-0.7,1.7-1.3,3.5-2,5.3c-0.4,1.1-0.8,2.2-1.2,3.3c-0.5,1.2-0.9,2.4-1.4,3.6c-0.5,1.3-1.1,2.7-1.6,4c-0.6,2.1-1.1,4.2-1.6,6.3
		c-0.1,0.6-0.3,1.3-0.4,1.9c-0.6,2.6-1.3,5.3-1.9,8l-0.3,1.8c-0.4,2.2-0.8,4.4-1.2,6.6c-0.4,2.5-0.7,5.3-0.9,8.6
		c-0.3,4.8-0.3,9.5-0.4,14.8c0,2.1,0,4.1,0,6.2l0,1v0.6l0,1.8c0,1.2,0,2.5,0.1,3.8c0,0.3,0,0.6,0,1l0-0.1c0-0.1,0-0.1,0-0.2
		c0,0.1,0,0.1,0,0.2l0-0.1l0,0.5l0,0.5c0,0.2,0,0.3,0,0.5C1405.5,303.1,1405.3,304,1404.7,304.7z M1404.2,326.8
		c-0.8,0.2-1.6,0-2.3-0.4c0,12.5,0,24.9,0,37.4c0,17.3,0,34.7,0,52c0,17.2,0,34.5,0,51.7c0,2.4,0.1,4.8,0.2,7.2
		c0.3,2.6,0.6,5.1,0.9,7.7c0.2,1.4,0.3,2.8,0.6,4.2c0.2,1.1,0.4,2.3,0.6,3.4c0.4,1.6,0.8,3.1,1.2,4.7c0.4,1.4,0.9,2.9,1.3,4.3
		c0.9,3.2,1.8,6.5,2.7,9.7c1.4,4.1,3,8.1,4.6,12.1c0.8,2,1.8,4,2.7,5.9c0.9,1.9,1.7,3.7,2.6,5.6c1.4,2.7,2.8,5.3,4.1,8
		c1.3,2.6,2.9,5,4.4,7.4c1.6,2.2,3.1,4.5,4.7,6.7c1.8,2.3,3.6,4.6,5.4,6.9c2.1,2.4,4.3,4.6,6.7,6.8c3,2.5,6,5.2,9.3,7.4
		c2.8,1.8,5.6,3.8,8.5,5.3c1.5,0.7,3,1.2,4.5,1.7c2.6,0.8,5.3,1.5,8,2.1c1.9,0.4,3.8,0.7,5.7,0.9c1.8,0.2,3.6,0.3,5.4,0.5
		c4.7,0.2,9.4,0.3,14.1,0.3c4.6,0.1,9.2,0.2,13.7,0c0.8-0.1,1.6-0.2,2.4-0.3c1.2-0.3,2.4-0.6,3.6-1c0.9-0.3,1.7-0.7,2.5-1.1
		c0.8-0.4,1.6-0.9,2.5-1.4c0,0,0,0,0,0c0,0,0,0,0,0c0,0,0,0,0,0c0,0,0.1,0,0.1-0.1c0.1-0.1,0.2-0.1,0.2-0.2c0.2-0.2,0.5-0.3,0.7-0.5
		c0.1-0.1,0.2-0.1,0.3-0.2c0,0,0,0,0,0c0,0,0,0,0.1,0c0,0,0,0,0,0c0,0,0.1,0,0.1-0.1c1.8-1.3,3.5-2.7,5.1-4.2c0,0,0,0,0,0
		c0,0,0,0,0,0c3-2.7,6-5.5,8.9-8.3c3.1-3,6.3-5.9,9.6-8.8c1.2-1.1,2.4-2.2,3.6-3.3c1.1-1,2.1-2.2,3.1-3.3c1.7-2,3.4-4.1,5-6.2
		c1.6-2,3-4.1,4.4-6.2c3.5-5.3,6.5-10.8,9.4-16.4c1.1-2.3,2.2-4.6,3.2-6.9c0.6-1.2,1.2-2.4,1.7-3.7c0.5-1.2,1-2.4,1.4-3.6
		c0.4-1.2,0.7-2.5,1-3.7c0.3-1.2,0.5-2.4,0.7-3.5c0,0.2-0.1,0.3-0.1,0.5c0.8-4.2,1.5-8.4,2.2-12.6c0.7-4,1.2-8.1,1.6-12.1
		c0.4-4.2,0.8-8.3,1.1-12.5c0.3-4.1,0.8-8.2,1.1-12.4c0.5-8.5,0.6-16.9,0.6-25.4c0-4.5,0-9,0-13.5c0-4.4,0-8.7-0.2-13.1
		c0-0.1,0-0.2,0-0.3c-0.7-8.8-2-17.6-3.5-26.3c-0.7-4.3-1.2-8.6-1.8-12.8c-0.6-4.2-1.3-8.4-1.9-12.7c-0.4-2.7-0.9-5.3-1.3-8
		c-0.4-2.7-0.7-5.4-1-8.1c-0.2-2.1-0.4-4.2-0.6-6.4c-12.2,0-24.5,0-36.7,0c-15.2,0-30.5,0-45.7,0c0,0.1-0.1,0.3-0.2,0.4
		c-0.3,0.7-0.6,1.5-0.9,2.2c-0.3,1.1-0.6,2.1-1,3.2c-0.5,1.2-1.2,2.3-1.8,3.5c0.1-0.2,0.2-0.3,0.2-0.5c-0.6,1.3-1.3,2.5-1.9,3.8
		c-2.1,4.3-4.6,8.4-7.3,12.3c-1.4,2-2.7,4-4.4,5.8c-0.9,0.9-1.7,1.8-2.7,2.6c-0.9,0.7-1.9,1.4-2.9,2.1c-0.7,0.5-1.5,1-2.2,1.5
		c-0.9,0.6-1.7,1-2.6,1.5c-1,0.5-2.2,0.9-3.4,1.1c-1.1,0.2-2.3,0.4-3.4,0.4c-3.5,0.1-7-0.1-10.4-0.3c-2.4-0.1-4.7-0.2-7.1-0.5
		c-2.6-0.3-5.1-1.1-7.5-2c-2.7-1-5.6-2.1-7.9-4c-2-1.7-3.9-3.4-5.8-5.1c-3.2-2.8-6.3-5.9-8.6-9.5c-1.5-2.3-2.4-5-2.9-7.7
		c-0.2-1.2-0.2-2.5-0.2-3.8c0-1-0.1-2.1-0.1-3.1c-0.1-1.7-0.4-3.4-0.6-5.1c0-0.2,0-0.3,0-0.5c0-0.3,0-0.6,0.1-0.8
		C1409.3,325.8,1406.8,326.3,1404.2,326.8z M1481.5,330.4c-0.2,0.8-0.5,1.7-0.8,2.5c-0.4,0.8-0.9,1.6-1.4,2.4
		c-1.1,1.6-2.2,3.1-3.5,4.5c-1.3,1.5-2.9,2.8-4.5,4c-1.6,1.2-3.4,2.2-5.1,3.1c-2,1.2-4.3,2-6.6,2.6c-2.1,0.5-4.4,0.6-6.5,0.6
		c-1.7,0-3.5,0-5.2,0c-3.8-0.1-7.7-0.4-11.3-1.9c-2.2-0.9-4.1-2.3-5.8-3.9c-1-0.9-1.9-1.9-2.8-3c-0.9-1.1-1.6-2.5-2.2-3.8
		c-0.5-1.2-0.8-2.4-1.1-3.6c-0.3-1.2-0.6-2.3-0.9-3.5c-0.1-0.7-0.1-1.4-0.1-2.1c0-0.6-0.1-1.2-0.1-1.8c-0.1-0.9-0.1-1.8-0.2-2.7
		c-0.5,0-0.9,0-1.4,0c-1,0.1-2,0.2-3,0.3c0.3,0.4,0.4,0.9,0.5,1.5c0.2,1.7,0.4,3.5,0.6,5.2c0.2,1.8,0.2,3.7,0.2,5.5
		c0,0.5,0.1,0.9,0.2,1.4c0.2,0.8,0.4,1.5,0.6,2.2c0.1,0.3,0.3,0.6,0.4,0.9c0.3,0.6,0.7,1.2,1,1.7c0.7,1,1.5,1.9,2.3,2.9
		c1.2,1.3,2.5,2.6,3.9,3.8c1.6,1.4,3.2,2.8,4.8,4.3c0.6,0.5,1.3,1.1,2,1.6c0.4,0.3,0.8,0.5,1.3,0.7c1.5,0.7,3.1,1.3,4.7,1.9
		c1.4,0.5,2.8,0.8,4.2,1.1c1,0.2,2.1,0.3,3.1,0.4c2,0.1,4.1,0.2,6.1,0.3c2.7,0.2,5.4,0.2,8.1,0.2c0.5,0,1-0.1,1.5-0.2
		c0.5-0.1,1-0.3,1.4-0.4c0.4-0.1,0.7-0.3,1.1-0.5c0.4-0.2,0.9-0.5,1.3-0.8c0.7-0.5,1.4-1,2.2-1.5c0.9-0.6,1.8-1.3,2.6-2
		c0.5-0.5,1-1,1.5-1.5c0.8-0.9,1.5-1.8,2.2-2.8c0.8-1.2,1.6-2.3,2.4-3.5c0.9-1.4,1.8-2.9,2.7-4.4c0.9-1.6,1.8-3.1,2.6-4.7
		c0.6-1.1,1.1-2.2,1.7-3.3c-0.1,0.2-0.2,0.3-0.2,0.5c0.6-1.2,1.2-2.3,1.8-3.4c0.2-0.4,0.4-0.8,0.5-1.2c0.2-0.6,0.3-1.2,0.5-1.8
		c0-0.1,0.1-0.2,0.1-0.4c-2.5,0-4.9,0-7.4,0c0.2,0.5,0.3,0.9,0.3,1.4C1481.7,329.7,1481.6,330.1,1481.5,330.4z"/>
	<path class="st0" d="M1401.9,311.9v-5.6c0.1,0,0.1,0,0.2,0c1-0.1,2-0.7,2.6-1.5c0.5-0.7,0.8-1.5,0.8-2.5c0-0.1,0-0.3,0-0.5l0-0.5
		l0-0.5l0,0.2l0,0.3c-0.1-1.8-0.1-3.6-0.1-5.1l0-1.8v-0.6l0-1c0-2.1,0-4.1,0-6.2c0.1-5.3,0.1-10,0.4-14.8c0.2-3.4,0.5-6.1,0.9-8.6
		c0.4-2.2,0.8-4.5,1.2-6.6l0.3-1.8c0.6-2.7,1.2-5.4,1.9-8c0.1-0.6,0.3-1.3,0.4-1.9c0.5-2.1,1-4.2,1.6-6.3c0.5-1.3,1-2.7,1.6-4
		c0.5-1.2,1-2.4,1.4-3.6c0.4-1.1,0.8-2.2,1.2-3.3c0.6-1.8,1.3-3.5,2-5.3c0.5-1.2,1-2.4,1.5-3.6c0.6-1.4,1.2-2.9,1.8-4.4
		c0.9-2.4,1.9-5,3.2-7.5c0.4-0.6,0.7-1.3,1.1-1.9c1-1.5,2.2-3.1,3.6-4.8c0.4-0.4,0.8-0.8,1.2-1.2c0.8-0.7,1.5-1.2,2.3-1.7
		c1.9-1.1,3.9-2.2,5.8-3.2l1.5-0.8c1.4-0.6,2.9-1.3,4.8-1.9c1.4-0.5,2.9-1,4.5-1.3c0.8-0.1,1.5-0.2,2.1-0.2c3.3-0.1,6.7-0.1,9.9,0
		l2,0c4.5,0.1,8.1,0.2,11.4,0.4c3.1,0.3,6.2,0.7,9.3,1.3l0.8,0.2c2.1,0.4,4.2,0.9,6.3,1.4c1.9,0.5,3.8,1.1,5.7,1.8l0.8,0.3l1,0.4
		c1.1,0.4,2.2,0.8,3.3,1.3c1.3,0.6,2.6,1.2,3.8,1.8c3.8,2.1,7.2,4.1,10.4,6.2c1.4,1,2.8,2,4.3,3.1c1.2,0.9,2.4,1.9,3.6,3
		c2.5,2.4,5.1,5,8.2,8.5c1.6,1.8,3.2,3.6,4.9,5.3c1.1,1.1,2.1,2.3,3.2,3.4c1.5,1.8,3.4,4.1,5.3,6.7c1.2,1.6,2.4,3.4,3.5,5
		c0.5,0.7,1,1.5,1.5,2.2c1.3,1.9,3,4.5,4.7,7.2c1.4,2.2,2.7,4.5,4.2,7.4c1,2.3,1.9,4.2,2.7,6.2c0.8,1.9,1.5,3.8,2.1,5.7
		c1,2.9,2,5.8,3,8.5c0.6,1.6,1.1,3.1,1.7,4.7c0.6,2,1.2,4,1.8,6c0.4,1.3,0.8,2.7,1.2,4c0.9,2.9,1.7,6,2.5,9.5
		c0.2,0.9,0.3,1.8,0.5,2.8c0.4,2.1,0.8,4.4,1.3,6.5c0.7,2.8,1.3,5.7,2,8.5l0,0.2c0.1,0.3,0.1,0.7,0.2,1l-26.2,0h-49.3h-6.4
		c-6.4,0-12.8,0-19.1,0l-3.3,0c-7.2,0-14.5,0-21.8-0.4c-3.4-0.3-7.4-0.6-11.4-1.4c-0.8-0.1-1.5-0.3-2.3-0.5
		c-1.3-0.3-2.6-0.5-3.9-0.7c-2-0.3-3.9-0.6-5.8-0.8c-2.4-0.3-4.5-0.4-6.5-0.3c-2.1,0-4.2,0.3-6.2,0.6c-3.2,0.5-6.5,1.1-9.7,1.7
		c-1.2,0.2-2.4,0.5-3.7,0.7c-0.4,0.1-0.9,0.2-1.2,0.4c0,0,0,0,0,0c0,0,0,0,0,0V311.9z"/>
	<path class="st1" d="M1083.9,315.9c0.1-0.5,0.2-1,0.3-1.4c0.2-1.2,0.5-2.4,0.8-3.5c0.2-0.8,0.4-1.6,0.7-2.4
		c0.3-1.1,0.6-2.1,0.9-3.2c0.7-2.7,1.6-5.5,2.5-8.1c0.4-1.1,0.7-2.3,1.1-3.4c1.6-4.3,3-7.8,4.5-11c1.4-2.5,3.2-5.7,5.3-8.9l0.9-1.3
		c1.7-2.4,3.5-5,5.2-7.5l0.1-0.1l0,0l0.1-0.1l0,0l0,0l1-1.4l1-1.4c0.3-0.4,0.6-0.8,0.8-1.2c0.9-1.3,1.7-2.4,2.5-3.4
		c0.6-0.7,1.3-1.3,2.1-2.1c1.2-1,2.2-1.8,3.2-2.6c1-0.6,1.9-1.2,2.8-1.7c0.8-0.4,1.8-0.8,2.8-1.3c0.8-0.3,1.5-0.5,2.3-0.7
		c0.6-0.1,1.1-0.2,1.7-0.2c4-0.1,7.6,0,10.9,0.1c2.5,0.2,5.1,0.5,7.8,1c3.5,0.8,7.5,1.7,11.3,3c3.4,1.3,6.8,2.7,10.1,4.3
		c2.2,1.2,4.6,2.6,7.4,4.4c0.4,0.3,0.7,0.5,1.1,0.8c1,1,2,2,3,3.1c0.6,0.7,1.2,1.4,1.7,2.2c0.4,0.6,0.8,1.3,1.2,2
		c0.4,0.9,0.8,1.7,1,2.4c0.9,2.7,1.6,5.6,2,7.7c0.4,2,0.9,4.4,1.6,6.8c0.2,0.6,0.5,1.1,0.9,1.6c0,0,0,0,0,0c0,0,0,0,0,0
		c0,0,0,0-0.1-0.1c-0.1-0.1-0.1-0.1-0.2-0.2c0,0,0,0,0,0c0,0,0,0,0,0c0,0,0,0,0,0c0,0,0,0,0,0c0,0,0-0.1-0.1-0.1l0,0c0,0,0,0,0,0
		l-0.4,0.4l-0.5,0.4c-0.7,0.7-1.4,1.3-2.1,2c-1,1-2.1,2-3.1,2.9c-2.2,2-4.4,4-6.6,6c-2.2,2-4.3,4-6.4,6.1c-1.1,1-2.2,2-3.3,3
		c-0.4,0.4-0.8,0.7-1.3,1.1c-2.7,2.3-5.4,4.6-8,6.9c-0.7-0.5-1.6-0.8-2.4-0.8h-27.2L1083.9,315.9
		C1084,315.9,1084,315.9,1083.9,315.9C1084,315.9,1083.9,315.9,1083.9,315.9C1083.9,315.9,1083.9,315.9,1083.9,315.9z"/>
	<path d="M308.1,1031.4c1.2-0.6,2.5-0.8,3.8-1c0.1,0,0.1,0,0.2,0c0.9-0.5,1.8-1,2.7-1.6c4-2.9,8-5.8,11.9-8.8c1.9-1.4,3.8-3,5.6-4.5
		c2.2-1.8,4.4-3.6,6.6-5.4c5.7-5.1,11.2-10.3,16.7-15.6c2.4-2.3,4.9-4.6,7.3-6.8c2.8-2.5,5.6-5.1,8.5-7.5c6.1-5,12.2-10,18.2-15
		c6.4-5.3,12.7-10.8,19-16.3c1.6-1.6,3.3-3.1,4.9-4.7c1.7-1.6,3.3-3.2,5-4.8c3.5-3.1,7.1-6.2,10.7-9.3c0,0,0,0,0,0
		c0.1-0.1,0.1-0.1,0.2-0.2c0,0,0.1-0.1,0.1-0.1c0,0,0,0-0.1,0c1.8-1.6,3.7-3.2,5.5-4.9c2.1-1.8,4.1-3.7,6.1-5.6
		c2.1-1.9,4.3-3.8,6.5-5.6c2.2-2,4.5-3.9,6.8-5.8c2.7-2.5,5.4-5,8.2-7.4c3.5-3,6.9-5.9,10.4-8.8c3.5-2.8,6.9-5.6,10.3-8.5
		c3.7-3.1,7.4-6.3,11.1-9.4c6.7-5.8,13.5-11.5,20.3-17.4c3.1-2.7,6.1-5.3,9.2-8c1.5-1.3,3.1-2.7,4.6-4c1.8-1.6,3.8-3.1,5.7-4.7
		c6.5-5.3,13.1-10.5,19.5-15.9c7.4-6.3,14.8-12.5,22.2-18.7c3.4-2.8,6.7-5.8,10-8.7c3.6-3.1,7.2-6.1,10.8-9.2
		c6.5-5.5,13-11,19.6-16.5c4.9-4.1,9.7-8.1,14.6-12.1c4.8-4,9.8-7.8,14.7-11.6c4.5-3.5,9.1-6.8,13.5-10.3
		c5.6-4.4,11.2-8.8,16.8-13.2c5.2-4.1,10.5-8.1,15.8-12.1c2.3-1.8,4.6-3.5,6.9-5.3c2.2-1.7,4.4-3.3,6.5-5c3.1-2.5,6.1-5,9.2-7.6
		c2.4-2,4.7-4.1,7.1-6.1c4.5-3.9,9-7.8,13.5-11.7c6.7-6,13.5-12.1,20.2-18.1c6.9-6.2,14-12.2,21-18.3c10.3-9.6,20.6-19.3,31.1-28.6
		c11.1-9.9,22.3-19.7,33.5-29.5c5.4-4.7,10.7-9.4,16.2-14c6.1-5.1,12.1-10.3,18.1-15.5c5-4.4,10.2-8.7,15.2-13
		c5.9-5,11.7-10,17.6-15.1c0.4-0.4,0.9-0.8,1.3-1.2c0.6-0.6,1.3-1.1,1.9-1.6c1.2-1,2.3-2,3.5-3.1c0.7-0.6,1.3-1.2,2-1.8
		c0.1-0.1,0.2-0.2,0.3-0.3c0,0,0,0,0.1,0c0.2-0.1,0.3-0.3,0.5-0.4c0.2-0.2,0.3-0.3,0.5-0.5c0.5-0.4,1-0.9,1.5-1.4
		c3.5-3.2,7.1-6.5,10.6-9.7c2.6-2.3,5.1-4.6,7.7-6.9c-0.8-4.4-1.4-8.8-1.6-13.3c-0.3-6.5-0.4-12.9-0.4-19.4
		c-0.1-13.2-0.1-26.5-0.1-39.8c0-4,0-8,0-12c0-9.4,0-18.7-0.1-28.1c-0.1-6.8-0.5-13.6-0.7-20.4c-0.2-6.6-0.3-13.2-0.3-19.9
		c-0.1-10.2-0.1-20.5-0.1-30.7c0-2.9,0-5.8,0-8.8c0-13.3,0-26.6,0-39.9c0-26.2,0-52.4,0-78.6c0-8.6,0-17.2,0-25.8
		c0-4.3,0-8.5,0-12.8c0-1.9,0-3.8,0-5.7c0-2.2-0.1-4.3-0.3-6.5c0,0,0,0,0,0c-0.1-1.8-0.3-3.7-0.4-5.5c-0.1-0.7-0.1-1.5-0.1-2.2
		c0-0.8,0.1-1.6,0.4-2.3c0.3-0.8,0.6-1.4,1.1-2c0.3-0.4,0.6-0.8,1-1.1c0.5-0.4,1.1-0.7,1.6-1c3.5-1.8,7.5-2,11.3-2.3
		c2.2-0.2,4.4-0.3,6.5-0.4c8-0.6,15.9-1.1,23.8-2.1c3.9-0.5,7.8-1.1,11.7-1.8c3.9-0.7,7.8-1.4,11.7-2.1c3.7-0.8,7.3-1.7,11-2.6
		c3.7-0.9,7.4-1.6,11.1-2.3c6.3-1.3,12.6-2.7,18.9-4.1c6.4-1.4,12.7-3.4,19-5.2c3.3-1,6.7-1.9,10-2.9c1.6-0.5,3.2-0.9,4.8-1.4
		c1.7-0.5,3.4-0.8,5.1-1.2c3.2-0.7,6.4-1.4,9.5-2c3.2-0.7,6.4-1.4,9.6-2.2c6.4-1.5,12.9-2.6,19.4-3.8c3.9-0.8,7.9-1.8,11.8-2.6
		c4-0.9,8-1.6,12-2.4c6.3-1.5,12.6-3.1,19-4.4c6.1-1.3,12.2-2.9,18.2-4.3c3.2-0.7,6.3-1.4,9.5-2.3c3.4-0.9,6.9-1.9,10.3-2.9
		c3.1-0.9,6.1-1.8,9.2-2.7c2.9-0.9,5.8-1.8,8.7-2.7c6.7-1.9,13.4-3.7,20.1-5.6c2.9-0.8,5.8-1.6,8.6-2.4c1.5-0.5,3-0.9,4.6-1.4
		c1.7-0.5,3.4-1.1,5.2-1.6c3.4-1,6.8-1.9,10.3-2.9c1.5-0.4,3-1,4.5-1.4c1.6-0.5,3.2-1,4.9-1.5c2.9-0.9,5.8-1.7,8.7-2.4
		c3.2-0.8,6.3-1.8,9.5-2.6c1.6-0.4,3.2-0.9,4.9-1.3c1.7-0.5,3.4-0.8,5.2-1.2c3.2-0.7,6.3-1.6,9.4-2.4c6-1.5,12.1-2.8,18.1-4.4
		c3.4-0.9,6.7-1.8,10.1-2.6c1.6-0.4,3.2-0.7,4.9-1.1c1.7-0.4,3.3-0.8,4.9-1.2c2.9-0.7,5.8-1.4,8.6-2.2c3.1-0.8,6.2-1.6,9.3-2.3
		c3.4-0.8,6.8-1.6,10.2-2.4c3.2-0.8,6.5-1.7,9.7-2.5c3.1-0.8,6.3-1.3,9.5-2c3-0.6,6.1-1.3,9.1-2c3.1-0.7,6.3-1.6,9.4-2.2
		c1.5-0.3,2.9-0.6,4.4-0.8c1.7-0.2,3.5-0.5,5.2-0.7c6.4-0.7,12.9-1.5,19.3-2.4c3.5-0.5,6.9-1,10.4-1.5c1.4-0.2,2.7-0.5,4.1-0.8
		c1.9-0.3,3.8-0.6,5.7-0.9c3.2-0.5,6.4-0.8,9.7-1.2c3.2-0.4,6.5-0.9,9.7-1.4c5.7-0.9,11.4-2,17.1-3c-1,0.2-2,0.3-3.1,0.5
		c-0.1-0.3-0.1-0.6-0.1-0.9c0-2.2,1.8-4,4-4c2.5,0,4.9,0,7.4,0.1c0.9,0,1.8,0,2.7,0c1.8,0,3.7,0.3,5.5,0.5c1.5,0.2,3.1,0.6,4.6,1
		c1.4-0.2,2.7-0.5,4.1-0.8c2.7-0.6,5.4-1.2,8.1-1.6c1.6-0.2,3.1-0.3,4.6-0.1c1.1,0.1,2.2,0.4,3.3,0.7c1.8,0.4,3.5,0.9,5.2,1.4
		c2.1,0.6,3.4,2.8,2.8,4.9c-0.6,2.1-2.8,3.4-4.9,2.8c-2.1-0.6-4.1-1.2-6.2-1.7c-0.6-0.1-1.2-0.2-1.8-0.3c-0.3,0-0.6,0-0.9,0
		c-0.2,0-0.4,0.1-0.6,0.1c0.1,0,0.3,0,0.4-0.1c3.3,1.6,6.6,3.2,9.9,4.8c1.7,0.9,3.4,1.9,5.1,2.8c1.9,1.1,3.8,2.2,5.7,3.2
		c3.7,2.1,7.2,4.3,10.9,6.4c2,1.2,4,2.5,5.9,3.8c2,1.3,4,2.6,6,3.9c7.2,4.7,14,9.9,20.7,15.3c3,2.4,5.9,4.9,8.8,7.3
		c3.6,3,7.2,6.1,10.7,9.2c1.2,1,2.4,2,3.6,3.1c1.8,1.7,3.7,3.5,5.5,5.2c3,2.8,5.9,5.7,8.9,8.6c2.7,2.7,5.6,5.2,8.3,7.9
		c2,2,4,3.9,6,5.9c1.4,1.4,2.7,2.9,4,4.3c2.9,3.1,5.7,6.3,8.6,9.5c3.2,3.6,6.5,7.1,9.8,10.5c2.8,2.9,5.5,5.9,8.3,8.9
		c2.8,3,5.4,6.1,8.2,9.2c1.2,1.4,2.3,2.8,3.5,4.2c1.4,1.7,2.8,3.4,4.2,5.1c1.5,1.8,2.9,3.7,4.3,5.6c1.2,1.6,2.5,3.2,3.6,4.9
		c1.5,2.2,3,4.3,4.5,6.5c0.8,1.1,1.5,2.3,2.2,3.5c1.3,2.1,2.6,4.3,4,6.4c1.1,1.9,2.1,3.8,3.2,5.8c0.8,1.5,1.7,3,2.5,4.5
		c1.2,2.4,2.5,4.8,3.7,7.1c2,3.8,3.7,7.8,5.4,11.7c0.8,1.7,1.5,3.3,2.2,5c0.7,1.6,1.5,3.3,2.2,5c1.5,3.9,3.1,7.9,4.5,11.8
		c1.5,4,2.9,7.9,4.5,11.8c1.8,4.5,3.6,9.1,5.3,13.7c1.5,4,3,8.1,4.5,12.1c1.6,4.2,2.9,8.5,4.3,12.7c1.3,3.9,2.5,7.8,3.8,11.7
		c1.2,3.8,2.5,7.5,3.7,11.3c1.2,3.9,2.4,7.9,3.7,11.8c1.3,4.2,2.7,8.3,4,12.5c2.5,8.4,5,16.8,7.8,25.1c2.9,8.7,5.8,17.4,8.7,26
		c1.4,4.1,2.7,8.1,4,12.2c1.5,4.5,2.8,9.1,4.1,13.7c1.2,4,2.1,8.1,3.1,12.1c0.4,1.7,0.8,3.4,1.2,5.2c0.5,2.3,1.1,4.6,1.6,7
		c1.6,8.3,3.3,16.6,4.9,24.9c0.8,4.2,1.7,8.5,2.4,12.7c0.8,4.7,1.6,9.5,2.3,14.2c0.7,4.3,1.4,8.6,2.1,13c0.7,4.3,1.4,8.6,2.1,13
		c0.6,3.9,1.1,7.8,1.7,11.8c0.7,4.9,1.4,9.8,2.2,14.7c0.7,4.4,1.4,8.9,2.1,13.4c0.6,4,1,8,1.4,12c0.9,8.5,1.8,17.1,2.8,25.6
		c1,8.3,2,16.6,3.1,24.8c1.2,8.8,2.4,17.5,3.6,26.2c0.6,4.1,1.2,8.2,1.7,12.3c0.2,1.8,0.5,3.6,0.7,5.4c0.3,2.9,0.6,5.8,0.9,8.6
		c0.4,3.5,0.7,7,1.1,10.4c0.6,4.9,1.2,9.8,1.8,14.8c0.5,3.8,1,7.6,1.4,11.4c0.5,5,1,10,1.5,15.1c0.3,3.5,0.6,7,0.9,10.5
		c0.5,4.9,1,9.8,1.6,14.7c0.5,4.1,1.1,8.2,1.7,12.2c0.6,4,1.3,7.9,1.7,11.9c0.2,2.2,0.5,4.5,0.7,6.7c0.2,2.3,0.4,4.7,0.6,7
		c0.3,4.2,0.7,8.3,1.1,12.5c0.7,8.8,1.7,17.6,2.4,26.4c0.3,3.5,0.4,6.9,0.6,10.4c0.2,4.2,0.3,8.3,0.3,12.5c0.1,8.5,0.2,17,0.2,25.5
		c0,8.6,0,17.2,0,25.9c0,4,0,8.1-0.1,12.1c0,1.9-0.2,3.7-0.3,5.6c-0.1,0.9-0.1,1.8-0.2,2.8c-0.1,1.1-0.2,2.2-0.4,3.3
		c-0.2,1.9-0.5,3.8-0.8,5.7c-0.3,2.1-0.5,4.2-0.9,6.3c-0.4,2.3-0.9,4.6-1.3,6.9c-0.4,2.2-1,4.4-1.5,6.6c-0.8,3.6-1.7,7.2-2.5,10.8
		c-1,4.2-1.8,8.4-2.8,12.7c-1,4.2-2,8.4-2.9,12.7c-0.9,4.2-1.8,8.5-2.7,12.7c-1.8,8.4-3.8,16.8-5.9,25.1c-0.6,2.1-1.2,4.3-1.8,6.4
		c-0.5,1.9-1.1,3.7-1.6,5.6c-1.1,3.9-2.3,7.7-3.4,11.5c-1.1,3.8-2.1,7.7-3.2,11.5c-1.3,4.4-2.6,8.7-4,13.1
		c-1.2,3.8-2.3,7.6-3.5,11.4c-1.3,4.2-2.6,8.4-3.9,12.7c-1,3.2-2.2,6.3-3.4,9.4c-0.7,1.8-1.4,3.6-2,5.4c-0.8,2.3-1.6,4.5-2.5,6.8
		c-1.7,4.4-3.4,8.8-5.2,13.2c-1.7,4.3-3.6,8.5-5.5,12.7c-1.6,3.5-3.2,7-4.9,10.5c-1.8,3.9-3.7,7.8-5.5,11.7
		c-1.8,3.8-3.7,7.6-5.5,11.4c-1.6,3.4-3.5,6.7-5.3,10c-2.1,3.9-4.3,7.8-6.5,11.7c-1.9,3.5-4.1,6.9-6.3,10.2
		c-4.8,7.2-9.6,14.4-14.2,21.7c-2.4,3.9-4.9,7.8-7.3,11.6c-2.3,3.6-4.7,7.2-7,10.8c-2.1,3.3-4.3,6.6-6.3,9.9
		c-2.3,3.8-4.5,7.6-6.6,11.4c-1.9,3.5-3.9,6.9-5.9,10.4c-2.4,4-4.8,8-7.1,12c-1.3,2.3-2.7,4.6-4,6.8c-1.3,2.1-2.7,4.2-4,6.4
		c-2.4,3.7-5,7.3-7.5,11c-2.6,3.9-5.2,7.8-7.9,11.6c-1.5,2-2.9,4.1-4.4,6.1c-1,1.3-2,2.7-3,4c-0.9,1.3-2,2.5-3,3.7
		c-7,8.8-14.4,17.2-21.8,25.6c0,0,0.1-0.1,0.1-0.1c-1.6,1.8-3.2,3.6-4.8,5.4c-1.7,2-3.5,3.9-5.3,5.8c-1.7,1.9-3.5,3.7-5.3,5.5
		c-1.7,1.7-3.2,3.5-4.8,5.3c-2.6,3.1-5.3,6.2-8,9.2c-2.4,2.8-5,5.4-7.5,8c-2.5,2.7-5,5.4-7.6,8.1c-1.5,1.6-2.9,3.1-4.4,4.7
		c-0.6,0.6-1.3,1.2-1.9,1.8c-1,0.9-2,1.9-3,2.8c-1.5,1.5-3.2,2.8-4.8,4.2c-1.5,1.3-3,2.6-4.5,4c-3.2,2.8-6.3,5.7-9.3,8.6
		c-6.1,5.8-12.1,11.7-18.2,17.4c-2.9,2.8-5.8,5.7-8.7,8.4c-1.2,1.1-2.4,2.3-3.6,3.3c-1.9,1.7-3.8,3.3-5.6,5c-1.8,1.6-3.7,3-5.5,4.5
		c-1.7,1.4-3.4,2.8-5,4.1c-3.3,2.7-6.7,5.5-10,8.2c-2.9,2.3-5.8,4.6-8.7,7c-3.6,3-7.1,6-10.7,9c-6.3,5.2-12.4,10.5-18.6,15.9
		c-3.4,3.1-6.8,6.1-10.2,9.2c-3.4,3.1-6.9,6-10.4,9c-1.9,1.7-3.8,3.3-5.6,5.1c-2.3,2.2-4.5,4.4-6.8,6.6c-4.1,4.1-8.5,7.9-12.8,11.9
		c-4.9,4.4-9.7,8.9-14.5,13.5c-4.2,4-8.2,8.1-12.4,12.1c-8.9,8.7-18,17.2-27.6,25c-2.3,1.9-4.7,3.7-7,5.5c-1.1,0.9-2.3,1.9-3.4,2.8
		c0.8,1.2,0.9,2.9,0.2,4.2c4.1,4.8,8.2,9.5,12,14.6c4.2,5.7,8.2,11.6,12.1,17.5c1,1.4,1.9,2.8,2.9,4.2c1,1.4,2,2.8,3.1,4.2
		c0.4,0.6,0.9,1.1,1.3,1.7c0.2,0.2,0.4,0.5,0.6,0.7c1.7,2,3.4,4,5.1,6c1.8,2.1,3.5,4.1,5.2,6.2c1.9,2.3,3.8,4.6,5.7,6.9
		c5.3,6.4,10.7,12.7,16,19.1c3.9,4.4,7.8,8.7,11.7,13c2.1,2.3,4.1,4.5,6.2,6.8c2,2.2,4.1,4.4,6.2,6.6c2,2.1,4.1,4.2,6.2,6.2
		c2.1,2.1,4.1,4.2,6.1,6.3c4.1,4.3,8.3,8.5,12.4,12.8c7.8,8,15.2,16.4,22.8,24.5c8.5,9.1,17.3,18,25.8,27.1c3.8,4,7.6,8,11.4,11.8
		c2,2,4.1,4,6,6c2.3,2.4,4.6,4.8,6.9,7.2c0.8,0.9,1.6,1.8,2.4,2.6c1.4,1.6,2.8,3.1,4.2,4.7c1.8,2.1,3.8,4,5.7,6
		c3.7,3.9,7.5,7.8,11.4,11.7c2.6,2.6,5.2,5.3,7.8,7.9c2.8,2.6,5.5,5.3,8.3,7.9c4.3,3.7,8.5,7.5,12.7,11.3c4.6,4.2,9.3,8.5,13.9,12.7
		c3.8,3.5,7.7,6.9,11.6,10.3c4.9,4.4,9.8,8.8,14.7,13.3c3.8,3.5,7.8,7,11.7,10.4c4.2,3.7,8.5,7.3,12.7,11c4.9,4.3,9.9,8.6,14.9,12.9
		c8.7,7.4,17.4,14.8,26.1,22.2c9,7.7,18,15.4,26.9,23.2c9.1,7.9,18,16,26.8,24.2c3.5,3.3,7,6.6,10.5,9.8c8.6,7.5,17.3,15,26.2,22.2
		c4.6,3.7,9.2,7.5,13.6,11.4c4.5,3.9,8.9,7.9,13.6,11.6c4.5,3.6,9,7.3,13.5,10.9c4.9,3.8,9.8,7.5,14.7,11.2c4.4,3.4,8.7,6.8,13,10.2
		c2.2,1.8,4.5,3.6,6.7,5.4c2.2,1.9,4.5,3.9,6.8,5.7c3.9,3.2,7.9,6.4,11.8,9.6c0.9,0.7,1.7,1.4,2.6,2.1c0.5,0.4,1,0.9,1.6,1.3
		c1.1,0.9,2,1.9,2.8,3c0.8,1.2,1.6,2.5,2.2,3.8c0.7,1.4,1.5,2.8,2.2,4.2c1,1.9-0.2,4.4-2.1,5.2c-1,0.4-2.1,0.4-3.1,0
		c-1-0.4-1.7-1.2-2.1-2.1c-0.1-0.2-0.2-0.4-0.3-0.6c-1-2-2.1-4-3.3-5.9c-0.2-0.2-0.3-0.4-0.5-0.6c-0.3-0.3-0.6-0.7-1-0.9
		c0.1,0.1,0.3,0.2,0.4,0.3c-2.2-1.8-4.4-3.7-6.6-5.4c-2.2-1.8-4.5-3.6-6.7-5.4c-4.5-3.7-9-7.5-13.5-11.2c-4.5-3.7-9.2-7.3-13.8-10.9
		c-2-1.6-4-3.2-6.1-4.7c-2.2-1.6-4.4-3.3-6.6-4.9c-9.4-7.3-18.7-14.7-27.7-22.6c-4.2-3.7-8.5-7.4-12.9-11c-1.6-1.3-3.2-2.6-4.7-3.9
		h0c-3.2-2.6-6.4-5.3-9.6-7.9c-4.6-3.9-9.2-7.8-12.6-10.8l-0.6-0.5c-1.5-1.3-3.1-2.7-4.6-4.1l-2.3-2.1l-4.4-4.1
		c-3.7-3.4-8-7.5-12.5-11.6c-4-3.6-8-7.2-12-10.8c-18.7-16.2-37.1-32-54.7-47c-1.2-1-2.4-2-3.6-3.1c-2.6-2.2-5.4-4.5-8-6.8
		c-5.7-5-10.4-9.1-14.7-12.8c-4.6-4-9.3-8.1-13.8-12.1c-2-1.8-4-3.6-6-5.4c-1.9-1.7-3.7-3.4-5.6-5.1c-2-1.8-4-3.5-6-5.3
		c-3.7-3.3-7.5-6.7-11.2-10c-6-5.4-11.9-10.9-17.9-16.3c-2.4-2.1-4.7-4.1-7.1-6.2c-1.8-1.5-3.5-3.2-5.1-4.8l-0.7-0.7
		c-3.8-3.6-7.8-7.6-12.3-12.2c-4.1-4.2-8.6-8.7-12.8-13.2c-2.1-2.2-3.8-4-5.3-5.7c-0.6-0.6-1.1-1.3-1.7-1.9c-1.3-1.4-2.6-2.9-4-4.4
		l-2.3-2.4l-4.7-5c-1.5-1.6-3-3.1-4.6-4.6c-0.8-0.7-1.5-1.5-2.3-2.2c-3.6-3.6-7.2-7.4-10.6-11l-1.1-1.2c-3.2-3.4-6.5-6.8-9.6-10.1
		l-2-2.1c-4.1-4.3-8.5-8.9-13.5-14.2c-2.2-2.3-4.3-4.7-6.5-7c-1.8-1.9-3.6-3.9-5.4-5.8l-1.6-1.7c-3.2-3.5-6.6-7-9.9-10.5
		c-4.1-4.2-8.2-8.5-12.3-12.7c-1.6-1.6-3.1-3.2-4.7-4.8c-2.4-2.5-4.9-5-7.4-7.5l-1.2-1.2c-1.6-1.7-3.2-3.4-4.8-5.1l-2-2.2
		c-1.3-1.5-2.6-2.9-4-4.4l-1.9-2.1c-3.3-3.6-6.8-7.4-10-11.2c-3.6-4.3-7.2-8.6-10.8-12.8l-0.6-0.7l-1.8-2.2
		c-1.3-1.5-2.6-3.1-3.9-4.6c-0.6-0.8-1.2-1.5-1.9-2.3c-1.3-1.6-2.6-3.2-3.9-4.7l-1.6-1.9c-0.6-0.3-1.1-0.7-1.5-1.2l-1.1-1.4
		c-1.7-2.1-3.4-4.2-5-6.3c-1.6-1.9-3.2-3.8-4.9-5.6c-3-3.1-6.2-6.4-9.6-9.6c-2-1.9-4.2-4-7-6.5c-0.1-0.5-0.2-1.1-0.5-1.7
		c-0.5-1-1.3-1.7-2.1-2.4c-0.2-0.1-0.3-0.3-0.5-0.4c0,0,0,0,0,0c0,0,0,0,0,0v0.1v0.1c0,2.2,0,4.5-0.2,6.8c-0.2,2.3-0.8,4.6-1.3,6.6
		c-0.6,2.1-1.2,4.3-2.2,7.1c-1.3,4-2.6,8.1-3.7,12.1c-0.8,2.7-1.6,5.5-2.5,8.2v0c-0.1,0.3-0.2,0.7-0.3,1c0.1-0.3,0.2-0.7,0.3-1
		l0.1,2.2l0.1,2.3l0.3,2.2l0.3,2.2c0.1,0.5,0.1,0.9,0.2,1.4c0.1,0.9,0.2,1.9,0.4,2.8c0.3,1.5,0.5,3,0.8,4.5c0.3,1.5,0.5,3,0.8,4.5
		c0.3,1.4,0.7,2.9,1,4.3c0.7,3.1,1.5,6.2,2.3,9.3c0.4,1.5,0.8,3,1.2,4.6c0.9,3.4,1.8,6.8,2.6,10.2c1.2,4.8,2.6,10.5,3.9,16.3
		c1.1,4.6,2.2,9.3,3.2,13.8l0.3,1.2c0.4,1.7,0.7,3.4,1.1,5.1c0.2,0.9,0.3,1.7,0.5,2.5c0.4,1.8,0.8,4,1.2,6.1c1,5.6,2,11.2,3,16.7
		c0.4,2,0.7,4,1,6c0.1,0.9,0.3,1.7,0.4,2.6c0.3,1.7,0.6,3.4,0.8,5.1c0.2,1.2,0.3,2.4,0.5,3.6c0.5,3.6,0.9,7.4,1.3,11.1
		c0.5,5.7,1,11.4,1.5,17.1c0.2,2,0.4,4.1,0.6,6.2c0.1,0.9,0.2,1.7,0.3,2.6c0.2,1.7,0.3,3.5,0.6,5.3c0.3,1.8,0.5,3.6,0.8,5.4
		c0.5,3.2,0.9,6.5,1.4,9.7c0.8,5.5,1.7,11.1,2.6,16.6c0.7,4.2,1.5,8.5,2.2,12.6l0.6,3.4c0.5,3,1.2,6.1,1.8,9.1
		c0.3,1.6,0.7,3.3,1,4.9c1,4.5,2,9,3,13.5l0.8,3.5c0.8,3.8,1.7,7.7,2.6,11.5c2.9,11.9,5.3,22.4,7.4,32c2.1,9.7,4.1,19.2,5.7,28.9
		c0.8,5.3,1.6,10.9,2.5,17.1c0.2,1.8,0.5,3.6,0.7,5.4l0.1,1.2l0.2,1.4c0.2,1.7,0.4,3.5,0.6,5.2l0.2,2.4c0.6,6.9,1.3,14,1.7,21.1
		c0.1,1.8,0.2,3.5,0.3,5.3c0.5,9.6,1.1,19.1,1.6,28.7c0.3,3.8,0.5,7.7,0.9,11.5c0.4,3.8,0.7,7.7,1.4,11.4c0.2,0.7,0.3,1.4,0.5,2.1
		c0.6,2.1-0.7,4.3-2.8,4.9c-2.1,0.6-4.3-0.7-4.9-2.8c-0.7-2.6-1.1-5.3-1.5-7.9c-0.3-2.5-0.6-5-0.8-7.4c-0.5-5-0.8-10-1.1-15
		c-0.3-5.2-0.6-10.3-0.9-15.5c-0.3-4.9-0.5-9.8-0.8-14.6h0l-0.1-2.3l-0.1-2.3c-0.2-2-0.4-4.1-0.5-6.1c-0.3-3-0.5-6.1-0.8-9.1
		c-0.5-5.1-1.1-10.4-1.7-15c-0.6-5.2-1.4-10.4-2.1-14.9c-0.1-0.7-0.2-1.5-0.3-2.2c-0.2-1.6-0.5-3.3-0.8-4.9l-0.9-4.7l-0.9-4.7
		l-0.1-0.3l0-0.2c-2.1-10.1-4.3-20.1-6.5-29.8c-1.3-5.7-2.7-11.3-3.8-16c-1-4-1.9-8.1-2.7-12l-0.7-3.2c-2.1-9.5-4.2-18.8-5.9-28.3
		c-1.9-10.5-3.7-20.7-5.2-31.1l-0.2-1.5c-1.4-9.2-2.8-18.7-3.6-28.1c-0.3-3.8-0.6-7.5-1-11.3l-0.5-5.4l-0.1-1.6
		c-0.1-1.5-0.3-3.1-0.4-4.6l-0.6-4.9l-0.6-4.9c-0.2-2-0.6-4-0.9-5.9c-0.1-0.7-0.2-1.5-0.4-2.2c-0.4-2.8-0.9-5.2-1.3-7.6
		c-0.6-3.5-1.2-6.9-1.9-10.4l-0.6-3.1c-0.3-1.4-0.5-2.8-0.8-4.3c0,0,0,0,0,0c0,0,0,0,0,0c0,0,0,0,0,0c0,0,0,0,0,0l-0.4-2.1
		c-0.8-3.9-1.6-8-2.6-11.9c-1.4-5.9-2.7-11.7-3.8-16.5c-1.2-5.2-2.6-10.5-3.9-15.6c-1-3.9-2.1-7.8-3-11.8l-1.5-6.2l-0.9-3.6
		l-0.3-1.2l-0.4-1.5c-0.2-0.8-0.3-1.5-0.4-2.3c0-0.3-0.1-0.6-0.1-0.9c-0.1-0.8-0.3-1.5-0.4-2.3l-0.1-0.5c0-0.1,0-0.2-0.1-0.3
		c0,0,0,0,0,0l0,0c-0.8,2.4-1.6,4.8-2.5,7.1c-1.9,6-3.6,11.4-5,16.2c-0.8,2.8-1.6,5.6-2.5,8.4c-1,2.9-2,5.9-2.9,8.3
		c-2.2,6.4-4,12.2-5.6,17.7c-0.9,3.1-1.7,5.7-2.5,8.2c-1,3.1-2,6.2-3,8.9c-1,3.2-2.1,6.4-3.3,9.9c-1.2,3.6-2.5,7.2-3.8,10.8
		c-0.4,1.2-0.9,2.4-1.3,3.6c-1.1,3.3-2.2,6.6-3.3,9.9l-1.2,3.4l-0.3,0.9c-0.6,1.8-1.2,3.7-1.8,5.6c-0.4,1.4-0.8,2.8-1.2,4.1
		c-0.2,0.9-0.5,1.7-0.7,2.6c-1,3.2-1.9,6.5-2.8,9.7l-1,3.6c-0.4,1.6-0.9,3.1-1.3,4.7c-0.9,3.1-1.8,6.2-2.6,9.4
		c-0.4,1.5-0.8,3-1.2,4.5c-0.8,3.2-1.7,6.5-2.6,9.8c-1.2,4.3-2.5,9-3.9,14.3c-1.2,4.4-2.3,8.9-3.3,13.2c-1.3,5.4-2.4,10.2-3.6,14.6
		c-1.1,4.1-2.3,8.5-3.9,13.9c-1.4,4.6-2.6,9.3-3.7,13.4c-0.5,1.9-0.9,3.8-1.4,5.7l-0.3,1.1l-0.6,2.5c-0.4,1.6-0.7,3.2-1.1,4.8
		c-0.4,2-1,4.1-1.5,6l-0.3,1.1c-0.4,1.4-0.7,2.9-1.1,4.4c-0.2,0.8-0.4,1.6-0.6,2.4c-0.6,2.3-1.1,4.7-1.6,7c-0.5,2.2-1,4.4-1.5,6.6
		l-1.1,4.4c-0.7,3-1.5,6-2.2,9c-0.6,2.6-1.2,5.1-1.7,7.7c-0.4,1.9-0.9,3.9-1.3,5.8l-1,4.2c-0.7,3.1-1.4,6.2-2.1,9.3
		c-0.3,1.6-0.8,3.1-1.3,4.6c-0.2,0.7-0.4,1.3-0.6,2c-0.6,2.2-1.3,4.4-1.9,6.6c-0.3,0.9-0.5,1.9-0.8,2.8c-0.4,1.4-0.8,2.8-1.2,4.3
		c-0.4,1.2-0.7,2.4-1.1,3.6l-0.8,2.7c-0.2,0.7-0.4,1.4-0.7,2.1c-0.4,1.4-0.9,2.8-1.2,4.2l-0.5,2c-0.4,1.6-0.8,3.2-1.2,4.9l-0.3,1.2
		c0,0,0,0,0,0c0,0,0,0,0,0c0,0,0,0,0,0c-1,3.9-2,7.8-3.2,11.7c-0.5,1.6-1.1,3.1-1.7,4.6c-0.5,1.4-1,2.9-1.6,4.3
		c-0.5,0.9-1.1,1.7-2.1,2.1c-1,0.4-2.1,0.4-3.1,0c-1.5-0.6-2.5-2.2-2.5-3.7c0-0.5,0.1-1,0.3-1.5c0.6-1.1,0.9-2.3,1.4-3.5
		c0.4-1.3,0.9-2.5,1.4-3.8c1.1-3.4,2-6.8,2.9-10.2l-143.2,0c0,0,0,0,0,0c-1.3,2-2.5,3.9-3.8,5.9c-2.8,4.3-5.3,8.8-7.8,13.2
		c-4.8,8.6-9.6,17.2-14.1,25.9c-1.8,3.7-3.6,7.3-5.4,11c-1.9,3.9-3.9,7.7-5.9,11.6c-0.9,1.9-1.8,3.8-2.6,5.7
		c-0.2,0.7-0.5,1.4-0.6,2.1c-0.6,2.1-2.8,3.4-4.9,2.8c-1.7-0.5-2.9-2.1-2.9-3.9c0-0.3,0-0.7,0.1-1c1.6-5.7,4.7-11,7.4-16.2
		c2.3-4.7,4.7-9.5,7-14.2c2.4-4.8,4.9-9.4,7.5-14.1c2.5-4.5,5-9,7.5-13.5c2.6-4.6,5.2-9.2,8-13.6c0.3-0.5,0.7-1.1,1-1.6h0
		c2.6-4,5.1-8,7.7-12.1c2.7-4.3,5.5-8.6,8.3-12.9c4.7-7.4,9.5-14.9,14.1-22.2l4.1-6.6c0.9-1.4,1.8-2.8,2.7-4.1
		c0.4-0.6,0.8-1.2,1.3-1.9c0.4-0.6,0.8-1.2,1.2-1.8c0.9-1.4,1.9-2.8,2.8-4.2l1.8-2.6c2.4-3.5,4.9-7.1,7.5-10.6l10.2-14
		c3-4.1,6-8.3,8.8-12.4l1-1.4l4.1-5.7c2.4-3.4,4.8-6.8,7.2-10.2c4-5.7,8-11.5,11.9-17.1l0.9-1.2c0.8-1.3,1.6-2.6,2.5-3.9
		c1.8-2.8,3.7-5.7,5.6-8.6l2.2-3.2c2.3-3.5,4.7-7,7-10.6l4.8-7.3c1.1-1.6,2.1-3.3,3.1-4.9c0.5-0.8,1-1.6,1.5-2.4l0.5-0.8
		c0.9-1.4,1.9-2.9,2.7-4.4c1.7-3,3.5-6,5.2-9.1c2.1-3.7,4.2-7.4,6.3-11.1c2.8-4.9,5.6-10,8.5-14.9c5.6-9.6,11.4-19.1,17.4-28.9
		l0.2-0.4c2.4-4,5-8.1,7.6-12.1c3.3-4.9,6.6-9.9,9.9-14.8c5.9-8.7,12-17.5,17.7-25.7l0.8-1.2c0.6-0.9,1.2-1.8,1.9-2.7
		c2-3.1,4.1-6.1,6.1-9.2c3.9-5.9,8-12,12-18c2.3-3.6,5.1-7.8,7.7-12.2c3-5,6-10,9-15.1c1.3-2.2,2.5-4.3,3.8-6.5
		c0.6-1,1.2-2.1,1.8-3.1c1.3-2.2,2.6-4.6,3.8-6.8c0.5-0.9,1-1.8,1.5-2.7c2.6-4.7,5.1-9.6,7.5-14.3l2-4c2-4.4,4.1-9.1,6.8-15.2
		c0.3-0.8,0.9-1.4,1.6-1.8c0.1-0.5,0.1-1.1,0.2-1.6c0.2-0.5,0.4-1,0.4-1.6c0-0.1,0-0.3,0-0.4l0.1-0.3l0.1-0.3
		c0.3-1.8,0.8-3.6,1.2-5.4l0.2-1.1c0.3-1.2,1.1-2.1,2.3-2.6l0-1.3l0-0.6c0-0.2,0-0.4,0-0.6c0-0.1,0-0.2,0-0.3c0,0.1,0,0.2,0.1,0.3
		c-0.1-0.5-0.1-0.9-0.2-1.4l-0.1-0.7c-0.1-0.7-0.3-1.5-0.3-2.2c0-0.1,0-0.3,0-0.4c0-2.1,1.4-3.8,3.4-4c0.1,0,0.3,0,0.4,0
		c0,0,0.1,0,0.1,0c0,0-0.1,0-0.1,0c0,0,0.1,0,0.1,0c-0.2,0-0.3,0-0.5,0c-2,0.3-3.5,2-3.5,4.1c0,0.1,0,0.3,0,0.4
		c0.1,0.8,0.2,1.5,0.4,2.2l0.1,0.7c0.1,0.4,0.1,0.7,0.2,1.1c0,0.1,0,0.2,0,0.3c0,0.2,0,0.4,0,0.6l0-0.6l0,0.7l0,0.7l-0.4,0.3
		c-0.3,0.3-0.6,0.6-1,0.9l-1.4,1.1c-2.2,1.7-4.4,3.5-6.7,5.2c-0.6,0.2-1.1,0.7-1.6,1.2c-0.2,0.2-0.3,0.4-0.4,0.6
		c-0.4,0.2-0.7,0.5-1.1,0.8c-0.3,0.2-0.5,0.5-0.7,0.7c-0.4,0.3-0.7,0.6-1.1,0.9l0.1-0.1c-0.3,0.3-0.6,0.5-1,0.8l-0.1,0.1
		c-0.3,0.2-0.5,0.3-0.8,0.5l-0.3,0.2c-0.2,0.1-0.3,0.2-0.5,0.3c-0.2,0.1-0.4,0.3-0.7,0.4c-0.5,0.2-1.2,0.4-1.9,0.8
		c-0.5,0.3-0.9,0.6-1.2,1c-2,1.5-4.1,2.9-6.1,4.4c-3.1,2.3-6.2,4.7-9.1,7.1c-2.2,1.7-4.4,3.5-6.6,5.2l-1.7,1.3
		c-2.5,1.9-5.1,3.9-7.6,5.8c-2.6,2-5.2,4-7.7,6.1l-0.9,0.7c-0.6,0.5-1.2,1-1.7,1.5c-0.3,0.2-0.5,0.5-0.8,0.7l-3.6,3.1
		c-2.4,2.2-4.9,4.4-7.3,6.6c-2.9,2.6-5.7,5.2-8.6,7.8c-3.1,2.8-6.2,5.5-9.3,8.3l-6,5.3c-3.2,2.9-6.5,5.7-9.7,8.4
		c-1.8,1.5-3.6,3.1-5.4,4.6c-5.5,4.8-11.2,9.6-16.9,14.4c-4.9,4.1-9.9,8.2-14.8,12.4c-5.5,4.6-11,9.1-16.4,13.7l-2.8,2.4
		c-4.4,3.7-8.9,7.4-13.2,11.2c-5.5,4.8-11.1,9.7-16.8,14.5c-1.5,1.3-3.1,2.7-4.6,4l-2.6,2.3c-1.6,1.4-3.2,2.7-4.8,4l-1.5,1.3
		c-2.2,1.8-4.4,3.5-6.5,5.2c-2,1.6-4.1,3.2-6,4.8c-2.7,2.2-5.4,4.4-8.1,6.7c-1.5,1.2-3,2.5-4.5,3.8c-0.6,0.6-1.3,1.1-1.9,1.7
		c-3,2.6-6,5.1-9,7.7l-1.8,1.6c-0.7,0.6-1.4,1.2-2.1,1.8l0,0c0,0,0.1-0.1,0.1-0.1c0,0-0.1,0.1-0.1,0.1l0.1-0.1
		c-5.3,4.7-10.6,9.4-15.8,14.1l-0.6,0.5l-2.2,1.9c-4.1,3.6-8.3,7.4-12.4,11.2l-1.8,1.6c-1.9,1.8-3.8,3.5-5.7,5.3l-2,1.9
		c-1.9,1.8-3.7,3.5-5.6,5.3c-6,5.5-11.3,10.4-16.4,15c-1.8,1.7-3.7,3.4-5.5,5.1c-0.9,0.9-1.9,1.8-2.8,2.6c-1.8,1.6-3.5,3.3-5.2,4.9
		l-2.6,2.5l-7.8,7.4c-2,1.9-3.9,3.8-5.8,5.7l-1.6,1.6l-3.6,3.6l-3.6,3.6c-2.6,2.6-5.3,5.2-7.3,7.1c-4.8,4.6-9.8,9-15.3,13.9
		c-4.3,3.8-8.6,7.7-12.6,11.4c-1.8,1.7-3.6,3.3-5.4,5c-2.2,2-4.3,4.1-6.5,6.1c-1.9,1.7-3.5,3.2-5.3,4.7c-0.6,0.5-1.2,1-1.8,1.6
		c-1.5,1.3-3,2.6-4.6,3.9c-4.3,3.6-8.7,7.2-13.4,11.2c-11.5,10.2-20.3,18.1-28.6,25.6c-2.7,2.5-5.5,4.9-8.2,7.4
		c-2.3,2.1-4.7,4.2-7,6.3c-3.5,3.2-7.2,6.4-10.8,9.5l-3.2,2.7l-1.8,1.6c-1.7,1.5-3.5,3.1-5.2,4.7c-2.7,2.5-5.4,5.1-8.1,7.6l-1.5,1.4
		c0,0,0,0,0,0v0v0c-4.6,4.3-9.3,8.6-13.9,13c-2.5,2.3-4.9,4.6-7.4,6.9c-1.6,1.4-3.2,2.9-4.8,4.3c-1.2,1.1-2.6,2.1-3.9,3.2
		c-5.6,4.6-11.3,9.1-17,13.7c-2.2,1.8-4.5,3.6-6.7,5.4c-2.4,2-4.8,4-7.2,6c-2.8,2.2-5.5,4.4-8.4,6.5c-2.8,2.1-5.6,4.3-8.3,6.4
		c-0.9,0.7-1.8,1.4-2.8,2.1c-1.3,1-2.6,2.1-4,3.1c-2.6,1.9-5.3,3.7-7.9,5.5c-2.5,1.7-5,3.4-7.4,5.3c-2.6,2.1-5.3,4.1-7.9,6.2
		c-3.4,3-6.8,6.1-9.8,9.5c-3.6,4.3-6.7,8.9-9.8,13.5c-1.9,2.8-3.8,5.6-5.7,8.4c-0.1,0.1-0.1,0.2-0.2,0.3c0,0,0.1-0.1,0.1-0.1
		c-1.7,2.6-3.5,5.2-5.2,7.7c0.1-0.1,0.2-0.3,0.3-0.4c-0.1,0.1-0.2,0.2-0.2,0.4c-1.3,1.9-2.5,3.7-3.8,5.6c-0.6,0.9-1.3,1.6-2.4,1.8
		c-1,0.3-2.2,0.1-3.1-0.4c-1.2-0.7-2-2.1-2-3.6c0-0.7,0.2-1.3,0.6-1.9c1.4-2.1,2.8-4.1,4.2-6.2c0,0-0.1,0.1-0.1,0.1
		c1.7-2.6,3.5-5.1,5.2-7.7c0,0,0,0,0,0v0c0,0,0,0,0,0c0,0,0,0,0,0c0,0,0,0,0,0c0,0,0,0,0,0h0c0,0,0,0,0,0c2.1-3.2,4.3-6.3,6.4-9.4
		c1-1.5,2.1-3,3.1-4.5c1.4-2,2.8-4,4.2-5.9c1.5-2,3.1-3.8,4.8-5.6c2.6-2.7,5.4-5.1,8.1-7.6c1.3-1.2,2.8-2.3,4.2-3.4
		c1.3-1.1,2.7-2.1,4.1-3.2c2.7-2.1,5.6-4,8.4-6c1.1-0.8,2.3-1.6,3.4-2.4c1.3-0.9,2.7-1.8,4-2.8c5.9-4.5,11.7-9,17.6-13.5
		c3.3-2.5,6.5-5.1,9.6-7.7c3.2-2.6,6.3-5.2,9.5-7.8c6.8-5.5,13.7-10.9,20.4-16.5c2-1.8,4-3.6,6-5.4c2.1-1.8,4-3.8,6.1-5.7
		c4-3.7,8-7.4,12-11.1c2.1-2,4.1-3.9,6.2-5.9c2.1-1.9,4.1-3.9,6.2-5.8c4.3-3.8,8.6-7.6,12.9-11.4c10.7-9.4,21.2-19,31.8-28.5
		c5-4.5,10-9,15-13.4c5.5-4.9,11.1-9.6,16.7-14.3c3.1-2.6,6.2-5.2,9.2-7.9c2.5-2.3,5-4.5,7.4-6.8c2.6-2.4,5.1-4.8,7.7-7.2
		c2.7-2.4,5.3-4.9,8-7.3c2.7-2.5,5.5-4.9,8.2-7.3c2.7-2.4,5.3-4.8,8-7.2c2.6-2.4,5.2-4.9,7.8-7.4c2.6-2.5,5.1-5,7.6-7.5
		c2.5-2.5,4.9-4.9,7.4-7.4c2.5-2.5,5-4.8,7.6-7.2c2.5-2.4,5-4.7,7.5-7.1c4.8-4.6,9.7-9.1,14.6-13.6c5.1-4.6,10.2-9.2,15.2-13.9
		c5.4-5.1,10.8-10.2,16.3-15.2c2.9-2.6,5.8-5.2,8.7-7.8c2.6-2.3,5.2-4.7,7.9-7c4.8-4.3,9.6-8.6,14.5-12.8c2.6-2.2,5.2-4.4,7.8-6.7
		c1.7-1.5,3.4-2.9,5.1-4.4c1.2-1,2.3-2,3.5-3c3-2.4,6-4.9,9-7.4c2.8-2.3,5.6-4.4,8.4-6.6c5.6-4.4,10.9-9,16.2-13.6
		c5.3-4.5,10.5-9.1,15.8-13.6c10.6-9.3,21.5-18.3,32.3-27.3c7.8-6.5,15.6-13,23.4-19.5c4-3.3,7.8-6.7,11.7-10.1
		c3.7-3.2,7.5-6.4,11.2-9.7c5.3-4.7,10.6-9.4,15.8-14.1c5.1-4.6,10.3-9.3,15.4-13.9c2.7-2.4,5.5-4.9,8.3-7.3
		c1.1-0.9,2.2-1.8,3.3-2.7c1.3-1,2.6-2.1,3.9-3c6-4.6,12-9.1,17.9-13.8c5.8-4.6,11.7-9,17.7-13.3c1.9-1.4,3.9-2.8,5.9-4.1
		c0.2-0.7,0.4-1.4,0.7-2.1c0.3-1,0.8-2.1,1.2-3.1c0.5-1.3,1.5-2.4,2.3-3.5c0.6-0.7,1.4-1.3,2.1-1.9c0.8-0.6,1.5-1.3,2.3-1.9
		c1.3-1,2.5-2,3.8-3c-0.4-0.5-0.8-0.9-1.2-1.4c-5.4-6.1-10.9-12.2-16.1-18.6c-1.5-1.8-3-3.6-4.5-5.5c-1.5-1.8-2.9-3.8-4.4-5.7
		c-2.3-3-4.6-6-7-9c-1.6-2-3.2-4-4.8-6c-1.2-1.5-2.5-2.9-3.7-4.4c-2.8-3.3-5.6-6.6-8.4-9.9c-5.9-6.9-11.4-14.1-17-21.3
		c-2.2-2.9-4.4-5.8-6.5-8.8c-3.1-4.3-6.2-8.5-9.4-12.7c-2.1-2.8-4.3-5.4-6.5-8.2c-3-3.9-6-7.8-9-11.8c-2.3-3.1-4.6-6.1-6.9-9.2
		c-1.5-1.9-2.9-3.9-4.4-5.8c-1.5-2-2.8-4-4.2-6c-3.1-4.5-6-9.1-8.9-13.6c-2.9,1.6-5.9,3.2-8.9,4.7c-1.8,0.9-3.6,1.8-5.5,2.7
		c-2.1,0.9-4.2,1.8-6.3,2.5c-4.1,1.4-8.3,2.6-12.5,3.3c-4.3,0.8-8.5,0.8-12.9,0.7c-2.1-0.1-4.2-0.2-6.3-0.6c-1-0.2-2.1-0.4-3.1-0.8
		c-1.1-0.4-2-0.9-2.9-1.5c-1.7-1.2-3-3.1-3.3-5.1c-0.1-0.7-0.2-1.4-0.2-2c0-0.8,0.1-1.6,0.1-2.3c0.1-0.8,0.3-1.6,0.5-2.5
		c0.4-1.5,1.2-2.8,2.1-4c0.6-0.8,1.4-1.6,2.1-2.3c0.8-0.8,1.6-1.7,2.5-2.4c1.8-1.6,3.7-3.2,5.7-4.6c0.2-0.1,0.4-0.3,0.6-0.4
		c-0.5,0-1,0-1.5,0c-4.2,0-8.4,0-12.6-0.6c-4.2-0.5-8.3-2.3-11.4-5.1c-1.6-1.4-2.5-3.5-2.8-5.6c0-0.3-0.1-0.6-0.1-0.9
		c0-0.7,0.1-1.3,0.1-2c0.1-1.2,0.5-2.6,1.1-3.7c2.6-4.3,7-7.1,11.4-9.2c2.9-1.4,5.8-2.6,8.8-3.6c-0.8-0.5-1.6-1.1-2.4-1.6
		c-4.3-2.9-8.6-5.7-12.8-8.8c-4.5-3.3-9.1-6.6-13.7-9.9c-4.7-3.4-9.3-6.8-14-10.1c-2.4-1.7-4.6-3.5-6.9-5.2
		c-2.1-1.6-4.3-3.2-6.4-4.9c-2.5-2-5-4.1-7.5-6.1c-2.3-1.8-4.7-3.5-7.1-5.2c-4.8-3.6-9.7-7-14.7-10.4c-4.7-3.1-9.4-6.2-14-9.6
		c-4.7-3.5-9.5-7-14.1-10.7c-2.5-2-5.1-4.1-7.6-6.1c-2.1-1.7-4.1-3.3-6.2-4.9c-2.7-2-5.4-3.9-8.1-5.8c-2.4-1.6-4.7-3.4-7-5.1
		c-4.5-3.3-8.9-6.9-13.3-10.4c-4.9-3.9-9.8-7.8-14.7-11.7c-4.3-3.4-8.6-6.7-13-9.9c-4.9-3.6-9.7-7.2-14.4-11
		c-2.4-1.9-4.7-3.8-7.1-5.7c-2.4-2-4.9-3.9-7.4-5.7c-4.9-3.7-9.7-7.3-14.6-11c-4.7-3.5-9.5-7.1-14.3-10.5c-4.7-3.4-9.4-6.7-14.1-10
		c-6.4-4.5-12.7-9.2-19-13.7c-3.1-2.2-6.1-4.4-9.2-6.6c-2.9-2.1-5.8-4-8.7-6c0.1,0.1,0.3,0.2,0.4,0.3c-0.2-0.1-0.3-0.2-0.5-0.3
		c-0.1-0.1-0.2-0.1-0.3-0.2c-0.1,0-0.1-0.1-0.2-0.1c-0.1-0.1-0.2-0.1-0.2-0.2c-0.7-0.4-1.3-0.9-2-1.3c0,0,0,0,0,0
		c-0.1-0.1-0.3-0.2-0.4-0.3c-0.6-0.4-1.2-0.8-1.8-1.2c-0.1-0.1-0.3-0.2-0.4-0.3c-0.3-0.2-0.5-0.4-0.8-0.5c0,0,0,0,0,0
		c-0.2-0.2-0.5-0.3-0.7-0.5c-0.2-0.1-0.3-0.2-0.5-0.3c-4.8-3.3-9.6-6.5-14.4-9.9c-4.5-3.2-8.8-6.5-13.3-9.7
		c-5.1-3.6-10.2-7.1-15.3-10.6c-5.1-3.5-10.1-7.3-15-11.1c-4.3-3.3-8.5-6.7-12.9-9.9c-2.3-1.7-4.6-3.5-7-5.1
		c-2.8-1.9-5.6-3.8-8.3-5.7c-2.8-1.9-5.4-3.9-8.2-5.9c-2.4-1.7-4.8-3.5-7.2-5.2c-0.6-0.5-1.3-0.9-1.9-1.4c0,0,0,0,0,0l0,0
		c0,0,0,0,0,0v0c0,0,0,0,0,0c0,0-0.1-0.1-0.1-0.1c0,0,0,0,0,0c-2.8-1.9-5.6-3.8-8.3-5.6c0,0,0,0,0,0c-2.9-1.9-5.7-3.9-8.6-5.9
		c-10.1-6.6-20.4-13.1-30.5-19.8c-4.8-3.1-9.3-6.6-13.9-10c-2.3-1.6-4.4-3.4-6.7-5.1c-2.3-1.8-4.7-3.5-6.9-5.3
		c-4.1-3.3-8.1-6.6-12.1-9.9c-3.6-3-7.3-5.9-11-8.8c-8.1-6.4-16.1-12.9-24.1-19.5c-1-0.8-1.5-2-1.5-3.2c0-0.8,0.3-1.7,0.8-2.4
		c0.2-0.3,0.5-0.5,0.7-0.7c-3.7,0.4-7.5,0.8-11.2,1.2c-4.2,0.4-8.4,0.7-12.5,1.1c-4.1,0.4-8.2,0.9-12.4,1.4
		c-2.4,0.3-4.8,0.6-7.3,0.9c-2.3,0.3-4.7,0.5-7,0.7c-3.6,0.3-7.3,0.5-10.9,0.8c-2.5,0.2-5,0.5-7.6,0.7c-2.3,0.2-4.7,0.7-7,1
		c-3.8,0.6-7.7,1.2-11.5,1.8c-4.5,0.6-9,1.3-13.6,1.7c-2.2,0.2-4.4,0.5-6.6,0.6c-2.3,0.1-4.5,0.3-6.8,0.4c-4.5,0.3-9,0.5-13.5,0.8
		c-8,0.5-16,0.8-24,1c-8.6,0.2-17.1,0.8-25.7,1.1c-4.8,0.2-9.6,0.2-14.4,0.3c-2.4,0.1-4.7,0.2-7.1,0.3c-2.3,0.1-4.7,0.3-7,0.4
		c-6.6,0.5-13.2,1-19.8,1.5c-6.3,0.5-12.7,0.9-19,1.2c-3.1,0.2-6.2,0.4-9.4,0.7c-3.9,0.4-7.8,0.7-11.8,1.1
		c-7.2,0.7-14.3,1.6-21.4,2.4c-3.1,0.3-6.3,0.7-9.4,1c-1.7,0.2-3.3,0.3-5,0.5c0,0-0.1,0-0.1,0c-0.3,0-0.7,0-1,0.1
		c-0.1,0-0.2,0-0.3,0c-0.5,0-1,0.1-1.6,0.1c-0.3,0-0.6,0-0.9,0.1c-0.7,0.1-1.4,0.1-2.1,0.1c-1.9,0.1-3.7,0.2-5.6,0.3
		c-1.6,0.1-3.2,0.3-4.8,0.4c-1.7,0.1-3.5,0.4-5.2,0.6c-3.2,0.4-6.3,0.8-9.5,1.2c-5,0.7-10,1.2-14.9,2c-0.2,0.1-0.4,0.2-0.6,0.2
		c-2,0.7-4.2,1.1-6.1-0.3c-1-0.8-1.5-2-1.5-3.2C306.1,1033.4,306.8,1032.1,308.1,1031.4z M944,507.8c-1.1,0.1-2.1-0.1-3-0.8
		c-0.5-0.4-0.8-0.8-1.1-1.4c-2.2,2-4.4,3.9-6.6,5.9c-3.2,2.9-6.4,5.9-9.7,8.8c-0.5,0.4-1,0.9-1.5,1.3c-2.1,1.8-4.2,3.7-6.3,5.5
		c-0.6,0.6-1.3,1.2-1.9,1.7c-1.1,1-2.2,1.9-3.3,2.9c-6.6,5.7-13.3,11.4-19.9,17.1c-3.2,2.7-6.4,5.4-9.6,8.2c-3.4,3-6.8,5.9-10.2,8.8
		c-16.5,14-32.8,28.3-49.1,42.6c-5,4.4-10,8.9-15,13.4c-5.1,4.6-10.1,9.2-15.1,13.8c-2.8,2.6-5.6,5.2-8.4,7.9
		c-2.1,1.9-4.2,3.8-6.4,5.6c-5.3,4.6-10.6,9.3-16,13.9c-6.7,6-13.4,12-20.2,18.1c-3.1,2.8-6.3,5.5-9.5,8.2c-3.4,3-6.9,5.9-10.3,8.9
		c-3.2,2.8-6.5,5.4-9.8,8.1c-3.7,3-7.4,5.8-11.2,8.7c-6.7,5.2-13.6,10.2-20.3,15.5c-6.9,5.3-13.7,10.8-20.6,16
		c-3.2,2.5-6.5,4.9-9.7,7.4c-2.3,1.8-4.6,3.6-6.9,5.4c-1.5,1.2-3.1,2.4-4.6,3.6c-7.4,6.1-14.8,12.3-22.2,18.4
		c-6.7,5.6-13.3,11.2-19.9,16.8c-2.3,2-4.6,3.9-6.9,5.9c-2.7,2.3-5.4,4.7-8.1,7c-5.5,4.6-11.1,9.2-16.6,13.9
		c-2.6,2.2-5.3,4.5-7.9,6.7c-3.4,2.7-6.7,5.5-10.1,8.2c-2.4,1.9-4.7,3.9-7.1,5.8c-2.4,1.9-4.8,3.9-7.1,5.9
		c-5.9,5.2-11.9,10.4-17.9,15.6c-4.9,4.2-9.9,8.4-14.8,12.6c-5.2,4.5-10.5,9-15.9,13.4c-2.8,2.3-5.7,4.6-8.5,6.9
		c-2.7,2.3-5.4,4.6-8.1,6.9c-3.2,2.9-6.3,5.8-9.5,8.5c-3.5,3.1-7.1,6.1-10.6,9.2c-3,2.7-5.9,5.5-9,8.1c-2.8,2.5-5.7,5-8.5,7.5
		c-2.1,1.9-4.3,3.7-6.3,5.6c-2.5,2.4-5,4.8-7.5,7.1c-2.1,1.9-4.2,3.8-6.3,5.6c-2.8,2.4-5.6,4.8-8.4,7.2c-5,4.2-10,8.4-15,12.5
		c-2.1,1.7-4.2,3.4-6.2,5.1c-2.6,2.2-5.3,4.4-7.9,6.7c-2.7,2.4-5.4,4.9-8.1,7.4c-2.8,2.5-5.4,5.2-8.1,7.7c-2.6,2.5-5.2,4.9-7.8,7.2
		c-1.4,1.3-2.8,2.6-4.2,3.8c-1.7,1.4-3.4,2.8-5.1,4.2c-3,2.5-6,4.9-9.1,7.2c0,0,0,0-0.1,0.1c3.4-0.4,6.8-0.9,10.3-1.3
		c3-0.4,6-0.7,9-0.8c1.8-0.1,3.6-0.2,5.4-0.3c0.1,0,0.2,0,0.4,0c0.4,0,0.7-0.1,1.1-0.1c0.2,0,0.3,0,0.5,0c0.9-0.1,1.8-0.2,2.7-0.2
		c0.4,0,0.9-0.1,1.3-0.1c5.9-0.6,11.8-1.2,17.8-1.9c5.8-0.6,11.6-1.4,17.4-1.9c6.7-0.6,13.4-1.3,20.1-1.8c2.9-0.2,5.7-0.3,8.6-0.5
		c2.8-0.2,5.7-0.4,8.5-0.6c10.1-0.8,20.3-1.6,30.4-2.2c10-0.6,19.9-0.5,29.9-1c5-0.2,10-0.6,15-0.7c5.1-0.1,10.2-0.2,15.3-0.4
		c5.3-0.2,10.6-0.5,15.8-0.9c5.1-0.3,10.3-0.6,15.4-0.9c2.3-0.2,4.6-0.4,6.9-0.6c2.2-0.2,4.3-0.5,6.5-0.8c4.5-0.6,9-1.2,13.4-1.9
		c1.8-0.3,3.6-0.6,5.4-0.8c1.9-0.3,3.8-0.6,5.7-0.8c2.5-0.2,5-0.5,7.6-0.7c2.3-0.2,4.7-0.3,7.1-0.5c8.7-0.6,17.4-1.8,26.1-2.8
		c3.7-0.4,7.4-0.7,11.1-1.1c4.5-0.4,8.9-0.8,13.3-1.3c4-0.4,8-0.8,12-1.3c4.3-0.5,8.5-1.1,12.8-1.5c2.1-0.2,4.2-0.4,6.3-0.5
		c2.3-0.1,4.6-0.3,6.8-0.4c4.7-0.3,9.3-0.5,14-0.6c3.9-0.1,7.8-0.3,11.7-0.5c4.3-0.2,8.6-0.5,13-0.7c4.4-0.2,8.8-0.3,13.3-0.5
		c4.5-0.2,9-0.5,13.4-0.7c2.2-0.1,4.3-0.2,6.5-0.2c2.3-0.1,4.6-0.2,6.8-0.3c4.5-0.2,8.9-0.5,13.4-0.7c4.3-0.2,8.6-0.3,13-0.5
		c4.3-0.2,8.6-0.4,12.9-0.6c2-0.1,4-0.1,6-0.1c2.1,0,4.2,0,6.2,0c4.9,0,9.8,0,14.7-0.1c8.2,0,16.4-0.2,24.6-0.7
		c4.7-0.4,9.4-0.9,14.1-1.4c4.5-0.5,8.9-0.8,13.4-1.1c2.7-0.2,5.5-0.5,8.2-0.6c1.3,0,2.6,0,3.9,0.3c0.4,0.1,0.8,0.2,1.2,0.3
		c0.5,0.2,1,0.4,1.6,0.6c0.8,0.3,1.6,0.9,2.4,1.4c2,1.3,3.7,3.3,5.2,5.1c1.8,2,3.5,4.1,5.3,6.1c1.4,1.6,2.8,3.1,4.1,4.7
		c1.5,1.8,2.9,3.6,4.3,5.4c1.6,2,3.3,3.9,4.9,5.8c1.8,2.1,3.6,4.2,5.4,6.3c1.2,1.4,2.5,2.7,3.8,4.1c1.1,1.2,2.1,2.5,3.2,3.8
		c2.5,3.1,5.1,6,7.6,9.1c2.5,3.1,4.9,6.2,7.4,9.2c1.4,1.7,2.7,3.4,4.1,5.1s2.6,3.5,3.9,5.3c4.7,6.3,9.6,12.4,14.2,18.8
		c2.4,3.3,4.8,6.5,7.2,9.8c2.4,3.3,5,6.6,7.6,9.8c2.5,3.1,5,6.2,7.4,9.4c2.9,3.8,5.7,7.7,8.7,11.4c2.8,3.4,5.6,6.8,8.4,10.2
		c2.9,3.6,5.7,7.3,8.5,11.1c2.3,3.1,4.5,6.3,6.9,9.4c2.7,3.6,5.4,7.2,8.1,10.8c2.8,3.7,5.6,7.4,8.4,11.1c2.5,3.3,5.1,6.5,7.7,9.8
		c4.4,5.5,8.8,11.1,13.2,16.6c3.9,5,7.7,10.1,11.5,15.2c3.8,5.2,7.7,10.3,11.6,15.4c4.1,5.3,8.1,10.6,12.1,15.9
		c4.2,5.6,8.1,11.5,12.2,17.2c3.9,5.5,7.7,11.1,11.6,16.6c3.7,5.3,7.4,10.6,11.1,16c2,2.9,3.8,5.8,5.7,8.7c1.8,2.8,3.7,5.5,5.5,8.3
		c-0.1-0.1-0.2-0.3-0.3-0.4c4.5,6.6,9,13.2,13.4,19.8c4.5,6.8,9,13.6,13.6,20.4c-0.1-0.1-0.2-0.3-0.3-0.4c1.6,2.2,3.2,4.4,4.8,6.7
		c1.7,2.3,3.4,4.6,5.2,6.9c2.9,3.8,5.8,7.6,8.8,11.4c3.8,4.8,7.6,9.6,11.3,14.4c0.1,0,0.2-0.1,0.3-0.1c0.1,0,0.1,0.1,0.2,0
		c0.4-0.1,0.7-0.2,1.1-0.3c0,0,0,0,0,0c0.1,0,0.2,0,0.3-0.1c0.2-0.1,0.5-0.1,0.7-0.2c0.1,0,0.2,0,0.2,0c0.4-0.1,0.8-0.2,1.2-0.3
		c0.5-0.1,1.1-0.1,1.6-0.2c0.5-0.1,1-0.1,1.5-0.1c0,0-0.1,0-0.1,0c0.8,0,1.6,0,2.3-0.1c0.8,0,1.5,0,2.3-0.1c0,0,0,0,0.1,0
		c0.1,0,0.1,0,0.2,0c0,0,0,0,0,0c0,0,0,0,0,0c0,0,0,0,0.1,0c0.5,0,0.9,0,1.4-0.1c0,0,0,0,0,0c0.2,0,0.5,0,0.7,0c0,0,0,0,0,0
		c0.1,0,0.2,0,0.3,0c0,0,0,0,0,0c0,0,0.1,0,0.1,0c0,0,0,0,0,0c0.4,0,0.7,0,1.1,0c0.5,0.1,0.9,0.1,1.4,0.2c0.4,0.1,0.8,0.1,1.2,0.2
		c0.3,0,0.6,0.1,0.9,0.1c0.4,0.1,0.8,0.1,1.2,0.1c0.2,0,0.5,0.1,0.7,0.1c0.2,0,0.3,0,0.5,0c0.2,0,0.5,0,0.7,0c3,0.1,6,0.3,9,0.9
		c0.9,0.2,1.9,0.4,2.8,0.5c1.1,0.2,2.2,0.3,3.3,0.6c2.6,0.7,5.3,1.6,7.3,3.3c1.5,1.3,2.6,3.2,2.5,5.3c-0.1,2.1-1.1,4-2.5,5.5
		c-1.4,1.5-3.2,2.6-4.9,3.8c-0.8,0.5-1.6,1-2.3,1.5c2,0,4,0.1,6,0.3c2.1,0.2,4.1,0.6,6.2,1c1.5,0.3,3.1,0.8,4.5,1.5
		c1.5,0.8,3,1.9,3.7,3.5c0.5,1.2,0.7,2.5,0.5,3.8c-0.3,1.4-0.8,2.6-1.5,3.8c-0.5,0.8-1.2,1.6-1.9,2.3c-0.9,1-1.9,1.9-2.9,2.7
		c0,0,0,0,0,0c0,0,0,0,0,0c0,0,0,0,0,0c0,0,0,0,0,0s0,0,0,0c0,0,0,0,0,0c0,0,0,0,0,0l0,0c-0.1,0.1-0.2,0.2-0.3,0.3
		c0.1-0.1,0.2-0.2,0.3-0.2c-3.1,2.8-6.5,5.3-10,7.6c-1.7,1.1-3.5,2.1-5.2,3.3c-0.2,0.1-0.3,0.2-0.5,0.3c2.3,3.7,4.7,7.3,7.1,11
		c1.8,2.7,3.6,5.4,5.6,8c2.5,3.4,5.1,6.7,7.6,10c2.2,2.8,4.3,5.7,6.4,8.6c2.2,3,4.5,5.9,6.8,8.9c1.9,2.4,3.8,4.8,5.7,7.2
		c1.2,1.5,2.4,3.2,3.6,4.8c1.1,1.5,2.2,3,3.3,4.5c2.5,3.5,5.1,6.9,7.6,10.4c2.3,3.1,4.7,6.1,7,9.1c4.3,5.5,8.6,10.9,13.1,16.2
		c2.3,2.7,4.6,5.4,6.9,8.1c1.2,1.4,2.4,2.8,3.5,4.2c1.5,1.7,2.8,3.5,4.2,5.3c2.1,2.6,4.2,5.3,6.2,8c2,2.6,4,5.3,6.1,7.9
		c2.5,3.1,5,6.2,7.6,9.2c2.5,3,5.1,5.9,7.7,8.9c0,0,0,0,0,0c2.1,2.4,4.2,4.8,6.3,7.1c2.2-1.8,4.4-3.6,6.6-5.4
		c4.5-3.5,8.9-7.1,13.3-10.8c3.2-2.9,6.4-5.8,9.6-8.7c3.4-3.2,6.8-6.4,10.1-9.6c6.5-6.4,13-12.8,19.7-19.1
		c6.3-5.9,12.9-11.4,19-17.5c1.4-1.3,2.7-2.7,4.1-4c1.6-1.6,3.2-3.2,4.8-4.7c3.3-2.9,6.6-5.8,9.9-8.7c6.2-5.5,12.3-11.1,18.5-16.6
		c3.1-2.7,6.2-5.4,9.3-8.1c3.3-2.8,6.6-5.4,9.9-8.2c3.5-3,7.1-6,10.7-8.9c3.2-2.6,6.4-5.1,9.6-7.7c3.6-2.9,7.2-5.9,10.8-8.8
		c1.9-1.6,3.9-3.1,5.7-4.7c1.9-1.7,3.8-3.3,5.6-5c-0.1,0.1-0.3,0.2-0.4,0.3c2.9-2.8,5.9-5.5,8.8-8.4c3-2.9,6-5.7,9-8.6
		c6.4-6.2,12.8-12.4,19.4-18.5c2.7-2.5,5.4-4.9,8.2-7.3c3-2.7,6.1-5.4,8.9-8.4c5.8-6.1,11.5-12.3,17.3-18.4c4-4.5,7.9-9.1,11.9-13.6
		c2.1-2.3,4.2-4.5,6.4-6.8c2-2.1,4-4.3,6-6.5c-0.1,0.1-0.2,0.3-0.3,0.4c3.4-3.9,6.8-7.7,10.2-11.5c5.5-6.4,11.1-12.8,16.3-19.4
		c2.4-3,4.7-6,6.9-9.1c2.5-3.5,5-7.1,7.5-10.6c3.5-5.2,7.1-10.4,10.6-15.6c1.7-2.6,3.4-5.3,5-8c1.6-2.7,3.2-5.5,4.8-8.3
		c1.5-2.7,3.2-5.3,4.8-8c1.6-2.7,3.2-5.4,4.7-8.1c2.9-5.2,5.8-10.5,9-15.6c3.7-5.9,7.5-11.7,11.3-17.5c3.2-4.8,6.1-9.8,9.3-14.7
		c3.5-5.4,7-10.8,10.6-16.2c1.8-2.7,3.7-5.5,5.4-8.3c1-1.6,2-3.1,3-4.7c1-1.5,1.8-3.2,2.6-4.8c3-5.4,6-10.9,8.9-16.4
		c6.4-13.1,12.7-26.2,18.6-39.6c3.2-7.2,6.1-14.5,8.9-21.9c1.2-3.2,2.3-6.4,3.5-9.6c1.2-3.3,2.4-6.6,3.6-9.9c1.9-6,3.7-12,5.5-18.1
		c1-3.3,2-6.6,3.1-9.9c0.9-2.9,1.8-5.9,2.7-8.8c1.8-6,3.3-12,5.1-18c1-3.5,2.1-6.9,3.1-10.4c0.8-2.8,1.7-5.6,2.4-8.4
		c0.8-3.1,1.6-6.2,2.3-9.3c0.9-3.7,1.7-7.4,2.6-11.1c1.5-6.5,2.7-13.1,4.2-19.6c0.8-3.4,1.5-6.7,2.3-10.1c0.7-3,1.3-5.9,2-8.9
		c1.5-6.7,3.1-13.4,4.7-20.2c0.6-3.4,1.3-6.8,1.8-10.2c0.5-3.8,1-7.7,1.5-11.5c0.1-1.7,0.2-3.4,0.3-5.1c0.1-1.9,0.1-3.7,0.1-5.6
		c0-3.5,0-7.1,0-10.6c0-8.3,0-16.7,0-25c0-7.9,0-15.8-0.1-23.7c0-3.7-0.1-7.4-0.2-11c-0.1-3.9-0.3-7.9-0.6-11.8
		c-0.7-8.6-1.6-17.1-2.4-25.7c-0.7-8.6-1.4-17.3-2.3-25.9c-0.4-3.6-0.9-7.2-1.5-10.8c-0.7-4.8-1.4-9.5-2-14.3
		c-0.5-4.1-1-8.2-1.4-12.3c-0.4-4.1-0.7-8.2-1.1-12.3c-0.4-4.6-0.9-9.1-1.4-13.7c-0.4-4.2-1-8.3-1.5-12.4c-0.6-4.5-1.1-8.9-1.6-13.4
		c-0.5-4.2-0.9-8.5-1.4-12.7c-0.4-3.8-0.8-7.7-1.3-11.5c-0.7-4.9-1.3-9.8-2-14.7c-1.2-8.5-2.3-16.9-3.5-25.4
		c-2-14.4-3.7-28.9-5.2-43.4c-0.4-3.9-0.8-7.8-1.2-11.7c-0.2-2-0.4-4.1-0.7-6.1c-0.2-1.8-0.5-3.6-0.8-5.4c-0.6-4-1.2-8-1.9-12.1
		c-0.6-4-1.2-8-1.8-11.9c-0.6-3.9-1.1-7.9-1.7-11.8c-0.5-3.8-1.2-7.7-1.8-11.5c-0.6-3.6-1.2-7.2-1.8-10.8c-0.6-3.7-1.1-7.3-1.7-11
		c-1.2-7.6-2.7-15.2-4.1-22.8c-1.5-7.5-2.9-15-4.4-22.4c-0.8-3.4-1.6-6.8-2.3-10.2c-0.8-3.4-1.7-6.8-2.6-10.3
		c-1.7-6.7-3.8-13.3-5.9-19.8c-2-6.1-4-12.2-6.1-18.3c-1.1-3.4-2.3-6.8-3.4-10.2c-1.1-3.4-2.3-6.8-3.4-10.3
		c-2.1-6.9-4.2-13.7-6.3-20.6c-1.8-6-3.8-12-5.7-18.1c-4.2-13.4-8.6-26.7-13-40c-2.3-6-4.5-12.1-6.8-18.1
		c-2.2-5.8-4.6-11.5-6.8-17.4c-1-2.6-1.9-5.1-2.9-7.7c-0.7-1.8-1.4-3.5-2-5.3c-0.4-1.1-0.8-2.2-1.3-3.3c-2.7-6.2-5.5-12.4-8.3-18.6
		c-1.4-2.7-2.8-5.4-4.2-8.1c-1.1-2.2-2.4-4.3-3.6-6.5c-1.1-2-2.2-4-3.4-5.9c-1.6-2.5-3.1-5.1-4.7-7.6c-1.5-2.1-3-4.3-4.5-6.4
		c-1.5-2.1-3-4.1-4.6-6.2c-1.5-2-3-4-4.6-5.9c-2-2.4-4-4.8-6-7.2c-2.4-2.7-4.8-5.4-7.2-8.1c-1.4-1.6-2.8-3-4.3-4.6
		c-1.1-1.2-2.3-2.5-3.4-3.7c-2.8-3-5.7-5.9-8.5-8.9c-2.8-3.1-5.6-6.2-8.4-9.3c-1.8-2-3.6-4-5.5-6c-1.1-1.2-2.2-2.2-3.3-3.3
		c-3.2-3.2-6.5-6.3-9.8-9.4c-3.1-2.9-6.1-5.9-9.2-8.8c-2.6-2.6-5.3-5.1-8-7.6c-6.5-5.7-13.1-11.3-19.8-16.9
		c-1.6-1.3-3.2-2.6-4.8-3.8c-1.4-1.1-2.8-2.2-4.2-3.2c-1.6-1.2-3.2-2.5-4.8-3.6c-2.2-1.5-4.3-3.1-6.5-4.6
		c-5.8-3.8-11.6-7.6-17.6-11.2c-5.8-3.5-11.7-6.8-17.6-10c0.2,0.1,0.3,0.2,0.5,0.2c-3-1.5-6.1-3-9.1-4.5c-3.5-1.7-7.1-3.2-10.8-4.6
		c-0.4-0.1-0.9-0.3-1.3-0.4c0.1,0,0.1,0,0.2,0c-2.6,0.4-5.2,0.8-7.8,1.1c-1.5,0.2-3,0.4-4.4,0.5c-3.9,3.2-7.8,6.4-11.9,9.4
		c-2.7,2-5.3,4.1-8.1,6.1c-3,2.2-6,4.3-9,6.4c-2.7,2-5.4,4-8,6.1c-3.1,2.5-6.3,4.9-9.4,7.4c-3.2,2.6-6.4,5.2-9.6,7.8
		c-3.3,2.7-6.5,5.5-9.7,8.3c0.1-0.1,0.3-0.2,0.4-0.3c-7.6,6.8-15.4,13.3-23.2,20c-4.7,4.4-9.3,8.8-14,13.2c-2.8,2.7-5.6,5.4-8.4,8.2
		c-2.4,2.3-4.7,4.6-7.2,6.9c-2.4,2.2-4.9,4.3-7.3,6.6c-2.7,2.6-5.5,5.3-8.3,7.9c-4.5,4.2-9.1,8.4-13.4,12.9
		c-4.9,5-9.9,9.8-14.7,14.8c-5,5.1-10.2,9.9-15.5,14.7c-2.2,2-4.5,4-6.7,6c-2.6,2.2-5.1,4.5-7.7,6.6c-2.8,2.2-5.6,4.5-8.4,6.7
		c-2.6,2-5,4.2-7.4,6.3c-1.9,1.8-3.8,3.5-5.7,5.3c-1.1,1-2.1,2.1-3.2,3.2c-1,1-2.1,2-3.1,3.1c-4.3,4.4-8.5,8.7-12.8,13.1
		c-3.7,3.8-7.5,7.6-11.3,11.3c-2.5,2.4-4.9,4.8-7.5,7.2c-2,1.9-4.1,3.7-6.1,5.6c-4.1,3.9-8.3,7.8-12.6,11.6c-2.2,2-4.4,4.1-6.6,6.1
		c-2.1,2-4.1,4.1-6.2,6c-4.3,3.9-8.7,7.7-13,11.6c-4.7,4.2-9.5,8.4-14.4,12.6c0.1,0,0.1-0.1,0.2-0.1c-4.8,4.2-9.5,8.5-14.2,12.9
		c-2.3,2.1-4.6,4.3-6.9,6.4c-2.4,2.2-4.9,4.4-7.2,6.7c-1.3,1.2-2.5,2.4-3.8,3.6c-1.2,1.1-2.5,2.2-3.7,3.3c-2.2,1.9-4.4,3.8-6.6,5.7
		c-5.2,4.4-10.4,8.8-15.5,13.3c-3.2,2.9-6.5,5.9-9.7,8.8c-2.8,2.5-5.7,5-8.5,7.4c-3.4,2.9-6.8,5.7-10.1,8.6c-3,2.5-6,5-9,7.4
		c-6.9,5.7-13.6,11.5-20.7,17c-3.4,2.7-6.8,5.3-10.2,8c-2,1.5-3.9,3.1-5.8,4.7c-1.7,1.4-3.4,2.8-5.1,4.3c-3.3,2.8-6.6,5.5-9.9,8.3
		c-3.2,2.7-6.4,5.3-9.7,7.9c-7.5,5.8-14.9,11.5-22.5,17.3c-6.6,5.1-13.1,10.3-19.4,15.7c-3.5,2.9-7,5.8-10.4,8.7
		c-3.8,3.2-7.5,6.4-11.3,9.7c-4.9,4.3-9.8,8.4-14.8,12.6c-2.7,2.3-5.4,4.5-8.1,6.8c-3,2.6-6,5.2-9,7.8c-1.8,1.6-3.7,3.3-5.5,4.9
		c0.2,1.2,0.5,2.5,0.7,3.7c0,0.2,0.1,0.4,0.1,0.6C947.5,505.9,945.9,507.6,944,507.8z M904,996.6l-0.1-0.1l-0.2-0.1l-0.1,0l-0.3-0.1
		l-0.3-0.1l-0.9-0.1c-0.3,0-0.6,0-0.8,0H901c-0.4,0-0.8,0-1.2,0l-0.2,0c0,0-0.1,0-0.2,0l-0.1,0c-0.1,0-0.1,0-0.2,0
		c-0.8,0.1-1.6,0.1-2.4,0.2c-0.8,0.1-1.6,0.1-2.4,0.2c-1.8,0.1-3.6,0.2-5.3,0.3l-1.5,0.1c-3,0.3-5.9,0.6-8.8,0.9
		c-4.4,0.5-8.9,1-13.4,1.2c-8.3,0.5-16.6,0.6-24.5,0.7c-3.9,0-7.8,0-11.7,0c-4.2,0-8.5,0-12.7,0.1c-3.7,0-7.4,0.2-11,0.4l-1.3,0.1
		c-3.6,0.2-7.2,0.3-10.8,0.4l-2.7,0.1c-2.8,0.1-5.6,0.3-8.3,0.4l-2.9,0.2c-4.1,0.2-8.1,0.4-12.1,0.5c-4.7,0.2-9.4,0.4-14,0.6
		c-4.2,0.2-8.5,0.4-12.8,0.6l-2.2,0.1c-3.3,0.1-6.7,0.2-10,0.4c-4.2,0.2-8.5,0.5-12.8,0.6c-1.5,0.1-2.9,0.1-4.4,0.1
		c-2.6,0.1-5.3,0.2-8,0.3c-4.7,0.3-9.3,0.5-13.9,0.8l-3.3,0.3l-3.3,0.3c-1.4,0.1-2.8,0.3-4.2,0.5c0,0,0,0,0,0l-0.2,0
		c-0.6,0.1-1.3,0.2-1.9,0.2c-1.5,0.2-3,0.4-4.5,0.6c-1.7,0.2-3.4,0.4-5,0.6c0,0,0,0,0,0c0,0,0,0,0,0c0,0,0,0,0,0s0,0,0,0s0,0,0,0
		c0.2,0.1,0.5,0.3,0.7,0.4l4.9,4l0.4,0.3c3.4,2.7,6.7,5.5,10.1,8.2l2.1,1.7c1.5,1.2,3.1,2.5,4.6,3.7l1.8,1.4l0.7,0.5
		c1.5,1.2,3,2.3,4.5,3.5l1.6,1.3c1.8,1.5,3.6,2.9,5.4,4.4l0.9,0.8c2,1.7,4,3.3,5.9,4.9l0.5,0.4l0.4,0.3c2,1.6,4.1,3.3,6.2,4.9
		c2.5,1.9,4.9,3.8,7.4,5.7c3.1,2.3,6,4.5,8.8,6.6c1.9,1.4,3.8,2.7,5.7,4l2,1.4c6.7,4.4,13.5,8.8,20.2,13.1c2.9,1.8,5.7,3.7,8.6,5.6
		l1.5,1c2.1,1.4,4.2,2.9,6.3,4.3l0.2,0.1l0.5,0.4c0.8,0.6,1.7,1.2,2.5,1.7l8.1,5.5l0.1,0.1l0.1,0.1c1.9,1.3,3.7,2.6,5.6,4
		c0.8,0.6,1.6,1.2,2.5,1.8l3.5,2.5l3.5,2.5c1.9,1.3,3.8,2.6,5.6,3.9l0.3,0.2c2.4,1.6,5.1,3.5,7.6,5.4c0.6,0.4,1.2,0.9,1.8,1.3
		l0.6,0.5c1.7,1.2,3.4,2.5,5,3.8l4,3.2l4,3.1c1.6,1.3,3.3,2.5,4.9,3.8l2.4,1.9c1.7,1.3,3.5,2.6,5.1,3.7l1.8,1.3c3,2.1,6,4.2,8.9,6.2
		l0.1,0.1c3.9,2.7,8.3,5.7,12.5,8.8l3.3,2.4l3.3,2.4c1.3,0.9,2.5,1.8,3.8,2.7l2,1.4c3.1,2.2,6.3,4.3,9.3,6.4l1.2,0.8
		c0.2,0.1,0.3,0.2,0.5,0.3c0.1,0.1,0.2,0.1,0.4,0.3l0.1,0.1l0.1,0.1l0.2,0.1l0.3,0.2l0.2,0.2c0.5,0.3,0.9,0.6,1.3,0.9l1.2,0.8
		l1.9,1.3l0.3,0.2c0.2,0.1,0.4,0.3,0.6,0.4c0.2,0.1,0.5,0.3,0.7,0.5c0.3,0.2,0.7,0.5,1,0.7l0.2,0.1c0.1,0.1,0.3,0.2,0.4,0.3l5.3,3.6
		c2.1,1.5,4.3,3,6.6,4.7l0.2,0.1l2,1.4l0.9,0.7c3.5,2.5,7.1,5.1,10.6,7.7c4.6,3.3,9.4,6.8,14.8,10.6c5.2,3.7,10.5,7.5,15.7,11.3
		c2.9,2.1,5.7,4.2,8.5,6.3l0.4,0.3c1.7,1.3,3.3,2.5,5,3.7c1.7,1.3,3.4,2.6,5.1,3.8l1.6,1.2c0.6,0.4,1.2,0.9,1.8,1.3l0.4,0.3l0.1,0.1
		c1.5,1.1,3.1,2.3,4.6,3.5c1.2,1,2.4,2,3.6,3l1,0.8l0.2,0.1c3,2.4,6,4.9,9.1,7.3c3.5,2.7,7.1,5.4,10.6,8l0.5,0.3
		c1.4,1,2.8,2.1,4.1,3.1c7,5.3,14,10.8,20.7,16.2l0.2,0.1l2,1.6l4.1,3.3c4.2,3.4,8.9,6.9,14.6,11.1c1,0.7,2,1.4,3,2.1l0.2,0.1
		c1.1,0.7,2.2,1.5,3.3,2.3l1.3,1l3,2.2c0.8,0.6,1.6,1.2,2.4,1.9l0.4,0.3l0.7,0.6c1.3,1,2.6,2.1,3.9,3.1c3.6,2.9,6.8,5.4,10.1,8
		c1.2,0.9,2.4,1.8,3.6,2.7l0.2,0.2c0.8,0.6,1.6,1.2,2.4,1.8c2.2,1.7,4.7,3.5,7.7,5.6c0,0,0.1,0.1,0.1,0.1l2.9,1.9
		c3.7,2.5,7.6,5.1,11.3,7.7c5.5,3.9,10.4,7.5,15.1,11c2.4,1.8,4.6,3.6,6.3,5l1.9,1.5l1.8,1.5c0.8,0.7,1.7,1.3,2.7,2
		c0.5,0.3,0.9,0.7,1.4,1c2.2,1.7,4.4,3.3,6.6,5c1.4,1.1,2.9,2.1,4.4,3.1c0.8,0.6,1.6,1.1,2.4,1.7c2.4,1.8,4.9,3.5,7.3,5.3
		c2.9,2.1,5.7,4.2,8.6,6.2l1.4,1l0.3,0.2c0.7,0.5,1.4,1,2.1,1.5c0.3,0.2,0.6,0.4,0.9,0.7l0.5,0.3c0.8,0.6,1.6,1.2,2.4,1.8l1.5,1.1
		c1.8,1.3,3.6,2.5,5.5,3.8c2.4,1.5,4.7,3.1,6.7,4.5c1.6,1,3.3,2,4.7,2.8c0.2,0.1,0.4,0.2,0.7,0.4c0.6-0.2,1.1-0.4,1.7-0.7
		c2.3-1,4.1-1.7,5.8-2.4l0.2-0.1l0.2-0.1c0,0,0.1,0,0.1,0c0,0,0,0,0,0c0,0,0,0,0,0l0,0c-2.4-3-4.7-6-7.1-9l-0.8-1.1
		c-3-3.8-6.2-7.9-9.9-12.7c-3.6-4.7-7.1-9.6-10.1-13.7c-2.2-3.1-4.3-6.3-6.5-9.5l-1.2-1.8c-3.1-4.6-6.1-9.3-9.2-13.9l-7-10.4
		l-3.6-5.3c-3.2-4.7-6.3-9.5-9.3-14.1l-1.6-2.4c-4.7-6.9-9.8-14.1-15.1-21.7c-1.1-1.6-2.2-3.2-3.3-4.8l-0.1-0.2l-0.3-0.4
		c-0.9-1.3-1.7-2.5-2.7-3.8c-2.9-4.1-5.8-8.3-8.7-12.4c-4.7-6.7-9.7-13.3-14.6-19.7l-0.5-0.6c-5.9-7.7-11.7-15.5-16.6-22.1
		c-5.7-7.7-11.7-15.3-17.6-22.6c-4.7-5.8-9.5-11.9-14.1-17.9c-1.1-1.4-2.2-2.9-3.3-4.4l-0.6-0.8c-1-1.4-2.1-2.8-3.1-4.2l-2.1-2.7
		l-0.3-0.4c-1.9-2.5-3.9-5.1-5.7-7.7c-2.7-3.7-5.4-7.4-8.1-11.1c-2.1-2.8-4.3-5.6-6.6-8.4l-1.7-2.1c-0.8-0.9-1.5-1.9-2.3-2.8
		c-0.8-0.9-1.5-1.8-2.2-2.7c-2.2-2.7-4-5-5.8-7.4c-1.7-2.3-3.5-4.6-5.4-7.1c-0.4-0.6-0.9-1.1-1.3-1.7c-0.9-1.2-1.9-2.5-2.9-3.8
		c-3.3-4-6.8-8.3-10.1-12.9c-1.7-2.3-3.4-4.7-5.2-7c-0.6-0.8-1.2-1.6-1.8-2.4c-0.8-1.1-1.6-2.2-2.4-3.2l-2.7-3.5
		c-2.1-2.8-4.3-5.6-6.4-8.4l-0.7-0.9c-1.4-1.8-2.8-3.6-4.1-5.5c-1.2-1.6-2.8-3.8-4.4-5.8c-1.3-1.6-2.6-3.2-3.9-4.9
		c-1.9-2.4-3.9-5-6-7.5c-1.2-1.5-2.5-3-3.8-4.5l-1.1-1.3c-0.8-0.9-1.5-1.8-2.3-2.7l-0.3-0.4l-0.7-0.8c-0.5-0.6-0.9-1.1-1.4-1.7
		c-0.6-0.7-1.2-1.3-1.8-2c-1.2-1.4-2.5-2.8-3.8-4.2c-1-1.2-2-2.4-3-3.6l-0.4-0.4c-0.7-0.9-1.4-1.7-2.1-2.6l-1.3-1.5
		c-1.1-1.2-2.2-2.6-3.4-4l-0.9-1.2l-0.8-0.9l-0.7-0.9l-0.1-0.1l-0.1-0.1l-0.1-0.1l-0.1-0.1c0,0-0.1-0.1-0.1-0.1l-0.3-0.3l-0.2-0.2
		l-0.1-0.1l-0.2-0.2l-0.1-0.1l-0.1-0.1l-0.1-0.2c-0.1-0.1-0.2-0.3-0.4-0.4c-0.2-0.2-0.3-0.4-0.5-0.5l0,0c0,0,0.1,0.1,0.1,0.1
		c0,0-0.1-0.1-0.1-0.1h0l0.1,0.1c0,0-0.1-0.1-0.1-0.1l0,0c-1.3-1.5-2.6-3-3.9-4.5l-0.2-0.2c-0.8-1-1.7-1.9-2.6-2.9l-0.2-0.2
		c-1.1-1.2-2.4-2.6-3.7-3.9l-0.3-0.2l0,0l-0.1-0.1l0,0l0.1,0.1l0,0c0,0,0.1,0,0.1,0.1c0,0-0.1,0-0.1-0.1l0.1,0c0,0,0,0,0,0l0,0
		c-0.2-0.2-0.4-0.3-0.6-0.4c-0.2-0.2-0.5-0.3-0.8-0.4c0,0,0,0-0.1,0C904.1,996.6,904,996.6,904,996.6c-0.1-0.1-0.2-0.1-0.3-0.2
		c0,0,0.1,0,0.1,0.1c0,0-0.1,0-0.1,0c0,0,0,0,0,0c0,0,0,0,0.1,0c0,0,0,0,0,0c0,0,0,0,0.1,0c0,0,0,0,0,0l-0.1,0l0.1,0L904,996.6
		L904,996.6z M1015.3,117.8l-0.1,0c-4.4,1.1-9,2.1-13.6,3.1c-2.6,0.5-5.4,1-7.5,1.3l-0.8,0.1l-1.6,0.3l-0.7,0.1c-2,0.3-4,0.7-6,1
		c-5,0.8-10.4,1.3-16.5,1.8c-2,0.1-4,0.3-6.1,0.4l-0.4,0c-3.5,0.3-7,0.5-10.4,0.7c-0.9,0.1-1.8,0.1-2.6,0.2
		c-1.7,0.1-3.4,0.4-5.1,0.7c-0.4,0.1-0.9,0.2-1.3,0.4l-0.2,0.1l-0.2,0.1c0,0,0,0,0,0c0.2,2.9,0.5,5.7,0.7,9c0.1,2,0.2,3.9,0.2,5.7
		l0,1.8l0,1.8v19.9v39.3v78.1l0,19.9l0,19.9c0,6.6,0,13.3,0.1,20l0,3.2c0,2.3,0,4.7,0.1,7c0,0,0,0,0,0c0,2.9,0.1,5.9,0.2,8.8
		c0,0,0,0,0,0v0c0,0,0,0,0,0l0,0c0,0,0,0,0,0l0,0.7c0.1,3.7,0.3,7.3,0.4,11l0.1,1.8c0.1,2.6,0.2,4.9,0.2,7.2
		c0.1,4.7,0.1,9.5,0.1,13.9v2.9l0,2.9V415l0,12.2c0,5.1,0,10.2,0,15.2l0,2.4c0,6.4,0,12.8,0.1,19.2c0,6.3,0.1,13.1,0.4,20.1l0,0v0.1
		l0,0.2l0,0.2l0,0.2l0,0.2c0.2,1.9,0.3,3.3,0.5,4.6c0,0.3,0.1,0.5,0.1,0.8c0,0,0,0,0,0c0,0,0,0,0,0c0,0,0,0,0,0c0,0,0,0,0,0
		c0,0,0,0,0,0c0,0,0,0,0,0c1.5-1.4,3.1-2.7,4.6-4.1l1.7-1.5l0.6-0.6c2.5-2.1,5-4.3,7.5-6.4l0.7-0.6l0.1-0.1c3.4-2.8,6.7-5.6,10-8.4
		c3.9-3.3,7-5.9,9.8-8.4c3.4-3,7.1-6.1,11.3-9.7c5.1-4.3,10.8-9.1,17.6-14.6c5.2-4.3,10.6-8.4,15.7-12.3l2.1-1.6
		c5.5-4.2,10.9-8.4,17.4-13.4c0.8-0.6,1.6-1.3,2.4-2l1-0.8l1.2-1c1.2-0.9,2.3-1.9,3.5-2.9c2.9-2.4,5.9-4.9,8.8-7.3
		c3.3-2.7,6-5,8.6-7.1c3.2-2.6,6.4-5.1,10-7.9l1.2-0.9l1.9-1.5c-0.3-0.6-0.5-1.2-0.5-1.9c0-0.3,0-0.5,0-0.8c0-0.4-0.1-1.2-0.2-2
		c-0.4-0.5-0.7-1.1-1.2-1.8l-0.4-0.5c-0.3-0.3-0.5-0.7-0.8-1c-0.5-0.8-1-1.5-1.4-2.2c-1-1.6-1.9-3.4-2.8-5.3
		c-0.9-1.9-1.5-3.8-1.9-5.7c-0.3-1.7-0.3-3.5-0.3-5.2v-1.2v-5.2c0-2.2,0-4.4,0-6.6c0-2.4,0.1-4.3,0.1-6c0.1-1.9,0.3-3.7,0.5-5.5
		l0-0.1l0.1-0.6c0.6-5.1,1.3-9,2.1-12.6c0.1-0.6,0.3-1.2,0.4-1.9c0.3-1.4,0.6-2.7,0.9-3.9l0.3-1l0.1-0.4c0.4-1.6,0.8-3.2,1.3-4.7
		c0.4-1.3,0.8-2.6,1.1-3.6l0.1-0.4l0.2-0.5c0.2-0.5,0.3-0.9,0.4-1.4l0.1-0.2c0.6-2,1.4-4.2,2.2-6.4c1.4-3.7,2.9-7.6,5-11.2l0.2-0.3
		l0.1-0.1c1.5-2.6,3-5.2,4.7-7.7l1.5-2.1c0.6-0.8,1.1-1.6,1.7-2.4l0.1-0.1c0.3-0.5,0.7-1,1-1.5l0.2-0.3l0.1-0.1
		c0.1-0.1,0.2-0.2,0.3-0.4l0,0l0,0.1l0,0l0,0l0,0l0,0l0,0l1.4-2l0.4-0.6l0.1-0.1l0-0.1c0.1-0.1,0.2-0.2,0.2-0.4c0,0,0,0,0,0.1
		c0,0,0-0.1,0.1-0.1h0l-0.1,0.1l0,0l0,0.1l0,0l0,0l0.6-0.9l0.3-0.4l0-0.1c0,0,0,0,0-0.1l0,0l0,0.1c0,0,0,0,0,0l0,0c0,0,0,0,0,0l0,0
		c1.1-1.7,2.4-3.5,3.8-5.3c1.3-1.6,2.9-3,4.4-4.3c1.3-1.1,3.1-2.5,5.1-3.6c2.2-1.2,4.1-2.1,6.1-2.7c2.6-0.9,5.5-1,7.9-1
		c0.7,0,1.5,0,2.2,0l0.6,0l0.6,0l0.6,0c2.2,0,4.2,0.1,6.2,0.2c1.5,0.1,2.9,0.3,4.4,0.5l0.1,0l0.1,0l0.5,0.1l0.5,0.1l0.5,0.1
		c1.8,0.2,3.6,0.7,5.2,1.1l1.2,0.3c1.9,0.5,3.8,1,5.8,1.6c1.9,0.5,3.6,1.2,5.6,2c1.8,0.8,3.6,1.6,5.5,2.4c2,0.9,3.9,2,5.8,3.1
		c0.8,0.5,1.7,1,2.5,1.5l0.6,0.4c0.7,0.4,1.4,0.9,2.1,1.4c1.4,1.1,2.8,2.5,4.3,4.2c1.5,1.7,2.7,3.4,3.7,5.1c2.6,4.6,3.6,9.9,4.6,15
		c0,0,0,0.1,0,0.1l0.1,0.4h0c0,0,0,0,0,0l0,0.1c0,0,0,0.1,0,0.2c0,0,0,0.1,0,0.1c0,0,0,0.1,0.1,0.2c0,0.2,0.1,0.3,0.1,0.5
		c0,0.1,0,0.1,0,0.2l0,0c0,0,0,0,0,0l0,0c0,0,0,0,0,0c0,0,0,0,0,0c0,0,0,0,0,0c1.5-1.4,3.1-2.8,4.6-4.1c2.4-2.1,4.8-4.1,7.1-6.2
		c1.6-1.4,3.1-2.7,4.7-4.1c1.7-1.5,3.4-3,5.1-4.5l1.1-1l0.1-0.1l0.1-0.1c2.6-2.3,5.1-4.5,7.7-6.8l4.5-4l0.7-0.7l0.5-0.5l1-1l2.1-2.1
		c1.5-1.5,3.8-3.7,6.2-5.9c2.9-2.5,5.5-5,8-7.2c0.9-0.8,1.8-1.7,2.7-2.5l0.4-0.4l0.3-0.3c0.9-0.9,1.8-1.7,2.7-2.6
		c2.5-2.3,5.4-5,8.7-8.1c1.3-1.3,2.6-2.6,3.9-3.9l0.2-0.2c0.8-0.8,1.5-1.5,2.3-2.3c3.5-3.5,7.1-7.1,10.5-10.6l0.3-0.3l2.4-2.5
		c5.8-6,10.6-10.8,14.9-15.1c0.8-0.8,1.7-1.6,2.7-2.5l1.2-1.1l0.5-0.5l0.1-0.1l0.1-0.1c0.6-0.5,1.2-1.1,1.8-1.6l2.6-2.3l2.6-2.3
		c0.8-0.7,1.6-1.3,2.4-1.9l1-0.8c2.8-2.2,5.5-4.4,8.3-6.6c1.7-1.4,3.4-2.9,5.1-4.3l0.1-0.1l1.6-1.4l0.1-0.1
		c5.8-5.2,10.6-9.6,15.1-13.8c3.1-2.9,6-5.9,8.9-8.8c1.6-1.6,3.1-3.1,4.7-4.7c1.7-1.7,3.3-3.3,5-5l0.2-0.2c2.2-2.2,5-5,7.7-7.6
		c2.2-2.2,4.6-4.4,6.7-6.3l0.2-0.2l0.2-0.2c2.2-2.1,4.8-4.4,7.2-6.8c2.3-2.2,4.7-4.4,6.8-6.4l0.1-0.1l1.6-1.5l0.8-0.7l1.8-1.6
		c0.9-0.8,1.8-1.7,2.6-2.5l0.2-0.2c0.3-0.3,0.6-0.6,0.9-0.9c0.8-0.8,1.6-1.6,2.4-2.4l0.2-0.2l0.4-0.4c1-1,2-2,3.1-3
		c2.8-2.6,5.5-5.3,8.3-7.9l1.2-1.1l0.6-0.6l0.6-0.6l0.4-0.4c1.1-1,2.1-2,3.2-3c0.4-0.4,0.8-0.7,1.2-1.2c0.8-0.8,1.7-1.6,2.6-2.4
		l4.1-3.6c2-1.7,4-3.5,6-5.2l0.6-0.5l1-0.9l0.9-0.7c1.9-1.6,3.9-3.3,5.8-4.9c2.9-2.6,5.8-5.1,8.7-7.7c2.8-2.4,5.8-4.8,8.2-6.8
		l1.6-1.3l3.1-2.5l0.2-0.2c5.2-4.2,10.6-8.6,16.1-12.7c3.3-2.5,6.6-4.9,9.8-7.2c2.6-1.8,5.2-3.8,7.6-5.6l1.9-1.4
		c0.6-0.4,1.1-0.8,1.6-1.3c0,0,0,0,0.1,0c0.1-0.1,0.2-0.2,0.3-0.3c0,0,0,0,0,0c0,0,0,0,0,0c0,0,0,0,0,0c0,0,0,0,0,0c0,0,0,0,0,0
		c0,0,0,0,0,0l-1.1,0.2l-1.5,0.3c-1.6,0.3-3.1,0.6-4.7,0.8c-3.6,0.6-6.5,1-9.7,1.4c-3.5,0.4-6.9,0.9-10.4,1.3
		c-2.7,0.3-5.4,0.9-8.1,1.4l-1.7,0.3c-2.4,0.4-4.8,0.8-7,1.1c-1,0.1-1.9,0.3-2.9,0.4c-3.9,0.6-7,1-9.8,1.3
		c-3.5,0.4-7.1,0.8-10.6,1.2c-1.4,0.2-2.8,0.4-4.1,0.6l-0.2,0l-0.8,0.1c-1,0.1-2,0.3-2.9,0.5l-0.3,0.1l-0.9,0.2l-2.5,0.6l-0.3,0.1
		c-5.2,1.2-10.5,2.4-15.8,3.5l-2,0.4l-0.2,0c-2.4,0.5-5,1-7.6,1.7c-1.8,0.4-3.6,0.9-5.4,1.4l-0.2,0.1l-0.2,0
		c-1.2,0.3-2.3,0.6-3.5,0.9c-3,0.8-6.3,1.5-10,2.4c-3.2,0.7-6.5,1.5-10,2.5c-2.6,0.7-5.4,1.4-8.7,2.2c-1.2,0.3-2.3,0.5-3.5,0.8
		l-0.5,0.1c-1.8,0.4-3.5,0.8-5.2,1.2c-3.4,0.9-6.9,1.8-10.3,2.7c-2.4,0.6-5,1.2-7,1.7l-2.3,0.5c-3.2,0.7-6.5,1.6-9.4,2.3l-0.7,0.2
		c-2.6,0.7-5.3,1.3-7.9,1.9l-1.1,0.2l-0.5,0.1l-0.2,0c-0.9,0.2-1.9,0.4-2.9,0.7l-2.6,0.7l-2.5,0.7c-1,0.3-2.1,0.6-3.1,0.9l-0.2,0.1
		l-1.8,0.5c-0.9,0.3-1.9,0.5-2.9,0.8l-0.3,0.1l-0.4,0.1l-1.6,0.4c-3.1,0.8-6.1,1.7-8.9,2.5c-1.1,0.3-2.2,0.7-3.3,1l-0.5,0.2
		l-0.3,0.1c-1.5,0.5-3.3,1.1-5,1.6l-1.4,0.4c-1,0.3-2.1,0.6-3.1,0.9l-0.9,0.2l-0.9,0.2c-1,0.3-2.2,0.6-3.4,1
		c-3.5,1.1-7,2.1-10.5,3.2c-1.7,0.5-3.4,1-5.1,1.4l-0.5,0.1l-0.1,0c-1.1,0.3-2.1,0.6-3.2,0.9l-2.6,0.7c-2.2,0.6-4.4,1.2-6.6,1.8
		c-3.4,0.9-6.8,1.9-10.5,2.9c-1.8,0.5-3.6,1.1-5.2,1.6l-0.6,0.2c-1.1,0.4-2.3,0.7-3.4,1.1c-6.6,2-12.7,3.7-18.7,5.3
		c-1.5,0.4-3.1,0.8-4.3,1c-0.7,0.2-1.4,0.3-2.1,0.5c-2.7,0.6-5.5,1.3-8.2,2c-4.4,1.1-9.2,2.2-13.8,3.2c-2.9,0.6-5.8,1.3-8.6,2
		c-1.6,0.4-3.3,0.8-4.9,1.2c-2.4,0.5-5.1,1.2-8,1.7c-2.3,0.5-4.7,0.9-7.1,1.4c-1.3,0.3-2.7,0.6-4.1,0.9c-3.3,0.8-6.6,1.5-9.8,2.2
		c-2.2,0.4-4.4,0.8-6.6,1.2l-1.5,0.3l-0.5,0.1l-1,0.2l-4.6,0.9l-3.1,0.7c-5.3,1.2-10.5,2.4-15.7,3.5l-1.5,0.3
		c-1,0.2-2.1,0.4-3.1,0.7c-0.6,0.1-1.1,0.2-1.7,0.4l-0.2,0c-1,0.2-2.1,0.5-3.2,0.8c-3.1,0.9-6.5,1.9-10.1,3c-2,0.6-4.1,1.2-6.2,1.8
		l-0.2,0.1c-1.1,0.3-2.2,0.6-3.3,0.9l-2.4,0.7l-0.5,0.1c-2.2,0.6-4.4,1.3-6.6,1.9c-1,0.3-2,0.5-3.2,0.8l-0.5,0.1l-0.4,0.1l-0.8,0.2
		c-0.9,0.2-1.8,0.4-2.7,0.6l-0.5,0.1l-1.8,0.4c-3.2,0.7-6.4,1.4-9.6,2.1c-3,0.7-6.1,1.3-9.2,1.9l-0.5,0.1l-0.6,0.1l-0.1,0l-0.2,0
		l-0.1,0c-0.8,0.2-1.6,0.3-2.4,0.5l0,0c0,0,0,0,0,0l-0.1,0c-0.2,0-0.4,0.1-0.5,0.1c0,0,0,0,0,0l0,0l0.1,0l0,0l0,0l0,0l0,0l0,0
		L1015.3,117.8z M1081.6,348c0,1.7,0,3.5,0,5.2c0.1,0.5,0.1,1,0.2,1.5c0.1,0.6,0.3,1.2,0.5,1.7c0.4,0.9,0.7,1.8,1.2,2.7
		c1,2,2.1,3.9,3.3,5.7c0.3,0.4,0.6,0.8,0.9,1.2c0.4,0.6,0.7,1.1,1.1,1.7c0.2,0.2,0.4,0.5,0.5,0.8c0.5,0.9,0.8,1.9,1,2.9
		c2.6-2.1,5.2-4.3,7.7-6.4c4.8-4,9.8-8,14.6-12.1c0.1,0,0.1,0,0.2,0c-1.5-0.1-3-0.3-4.4-0.6c-2.2-0.4-4.3-0.9-6.4-1.7
		c-0.9-0.4-1.8-0.8-2.6-1.3c-1.2-0.8-2.3-1.8-3.2-3c-1.3-1.6-2.3-3.3-3.3-5.1c-1.1-1.9-1.9-3.9-2.7-5.9c-0.3-0.9-0.7-1.8-1-2.7
		c-0.4-1.1-0.6-2.2-0.9-3.3c-0.2-0.8-0.2-1.7-0.2-2.5c0-0.9,0.1-1.9,0.2-2.8c-1.9,0-3.7,0-5.6,0c-0.4,2.6-0.7,5.2-0.9,7.8
		c-0.2,3.6-0.1,7.2-0.1,10.8C1081.6,344.3,1081.6,346.2,1081.6,348z M1106,265.1c-1.7,2.5-3.5,5-5.2,7.5l-0.9,1.3
		c-2.1,3.2-3.9,6.4-5.3,8.9c-1.5,3.2-2.9,6.6-4.5,11c-0.4,1.1-0.7,2.3-1.1,3.4c-0.9,2.6-1.8,5.4-2.5,8.1c-0.3,1.1-0.6,2.1-0.9,3.2
		c-0.2,0.8-0.4,1.6-0.7,2.4c-0.3,1.2-0.6,2.4-0.8,3.5c-0.1,0.5-0.2,1-0.3,1.4c0,0,0,0,0,0c0,0,0,0,0,0c0,0,0,0,0,0c0,0,0,0,0,0h40.5
		h27.2c0.9,0,1.7,0.3,2.4,0.8c2.7-2.3,5.4-4.6,8-6.9c0.4-0.4,0.8-0.7,1.3-1.1c1.1-1,2.2-2,3.3-3c2.1-2,4.3-4.1,6.4-6.1
		c2.2-2,4.4-4,6.6-6c1.1-1,2.1-1.9,3.1-2.9c0.7-0.7,1.4-1.3,2.1-2l0.5-0.4l0.4-0.4c0,0,0,0,0,0c0.1,0.1,0.2,0.2,0.3,0.4c0,0,0,0,0,0
		c0,0,0,0,0,0c0,0,0,0,0,0c0,0,0,0,0.1,0.1c0,0,0,0,0,0c0,0,0,0,0,0c-0.4-0.5-0.7-1-0.9-1.6c-0.7-2.4-1.2-4.8-1.6-6.8
		c-0.5-2.1-1.1-5-2-7.7c-0.3-0.7-0.6-1.4-1-2.4c-0.4-0.8-0.8-1.4-1.2-2c-0.6-0.8-1.2-1.5-1.7-2.2c-1-1.1-2-2.1-3-3.1
		c-0.3-0.3-0.7-0.5-1.1-0.8c-2.8-1.8-5.1-3.2-7.4-4.4c-3.3-1.6-6.7-3.1-10.1-4.3c-3.8-1.2-7.9-2.2-11.3-3c-2.6-0.5-5.2-0.8-7.8-1
		c-3.4-0.1-6.9-0.2-10.9-0.1c-0.6,0.1-1.1,0.1-1.7,0.2c-0.8,0.2-1.5,0.4-2.3,0.7c-1,0.4-2,0.9-2.8,1.3c-0.9,0.5-1.8,1-2.8,1.7
		c-1,0.7-2,1.5-3.2,2.6c-0.8,0.8-1.5,1.5-2.1,2.1c-0.8,1-1.6,2.1-2.5,3.4c-0.3,0.4-0.5,0.8-0.8,1.2l-1,1.4l-1,1.4l0,0v0l0,0
		C1106.2,264.9,1106.1,265,1106,265.1c0.1-0.1,0.1-0.1,0.1-0.1C1106.1,265,1106.1,265,1106,265.1C1106.1,265,1106.1,265,1106,265.1
		L1106,265.1z M1096.3,323.9c-0.1,0.7-0.2,1.4-0.3,2c0,0.4,0,0.8,0,1.2c0.1,0.5,0.1,0.9,0.2,1.4c0.2,0.6,0.3,1.2,0.5,1.7
		c0.8,2.1,1.6,4.2,2.5,6.2c0.6,1.1,1.2,2.2,1.9,3.3c0.4,0.6,0.8,1.2,1.3,1.7c0.3,0.3,0.6,0.6,0.9,0.9c0.1,0.1,0.2,0.1,0.3,0.2
		c0.2,0.1,0.4,0.2,0.5,0.3c0.5,0.2,1,0.4,1.5,0.6c1,0.3,2,0.6,3,0.8c1.4,0.3,2.7,0.5,4.1,0.6c2,0.1,4,0.1,6,0.1c0.1,0,0.3,0,0.4-0.1
		c0.7-0.2,1.3-0.3,1.9-0.5c0.9-0.3,1.7-0.8,2.6-0.9h0c2.2-1.9,4.4-3.8,6.6-5.7c2.5-2.3,5-4.6,7.5-6.8c2.6-2.4,5.3-4.7,8-7
		c-2,0-4,0-6,0c0.3,1.1,0.3,2.3-0.3,3.3c-0.9,1.7-2.1,3.3-3.4,4.7c-0.7,0.8-1.4,1.6-2.2,2.3c-0.8,0.7-1.7,1.4-2.7,2
		c-1.5,1-3.1,1.8-4.8,2.5c-2.1,1-4.4,1.6-6.8,1.6c-1.6,0-3.2,0-4.8-0.2c-1.9-0.2-3.8-0.9-5.5-1.8c-0.8-0.5-1.6-1.1-2.4-1.7
		c-0.9-0.7-1.7-1.5-2.5-2.2c-1.6-1.6-2.8-3.3-3.8-5.3c-0.6-1.2-1.2-2.5-1.4-3.9c-0.1-0.4-0.1-0.7-0.1-1c0-0.1,0-0.2,0-0.2
		C1098.3,323.9,1097.3,323.9,1096.3,323.9z M1107.2,323.9C1107.2,323.9,1107.2,323.9,1107.2,323.9h2.4
		C1108.8,323.9,1108,323.9,1107.2,323.9z M1173.8,1418.7L1173.8,1418.7L1173.8,1418.7L1173.8,1418.7c0,0.2,0,0.3,0,0.4
		c0,0,0,0.1,0,0.1c0,0,0,0,0,0c0,0,0,0,0,0.1c0,0,0,0,0,0c0,0,0,0,0,0.1c0,0,0,0.1,0,0.1c0,0,0,0,0,0c0,0,0,0,0,0l0,0.1l0,0.1
		l0.1,0.1l0.1,0.2l0.1,0.1l0.1,0.1c0.1,0.1,0.2,0.2,0.3,0.3c0.2,0.2,0.5,0.4,0.7,0.5c0,0,0.1,0.1,0.1,0.1c0,0,0,0,0.1,0
		c0.1,0,0.1,0.1,0.2,0.1c0,0-0.1,0-0.1-0.1c0,0,0,0,0,0s0,0,0,0c0,0,0,0,0,0c0,0,0,0,0,0c0,0,0,0,0,0c0,0,0,0,0,0
		c0.1,0,0.1,0.1,0.2,0.1c0.1,0.1,0.3,0.2,0.4,0.2c0.7,0.4,1.5,0.7,2.3,1c0.5,0.2,1,0.3,1.5,0.4c1.5,0.3,3.1,0.4,4.5,0.5
		c2.6,0.1,5.2,0.1,7.4,0.2c0.7,0,1.5,0,2.2,0c1.6,0,3.2,0,4.9-0.1c2.1-0.2,4.2-0.6,6.3-1c3.2-0.7,6.2-1.5,9-2.4
		c1.4-0.5,2.7-1,4.1-1.6c0.6-0.2,1.1-0.4,1.7-0.7h0c0.2,0.1,0.5,0,0.7-0.2c0.1,0,0.2-0.1,0.4-0.1c1.2-0.3,2.3-0.8,3.4-1.2
		c0.6-0.3,1.3-0.5,1.9-0.8l0.5-0.2c0.3-0.1,0.6-0.2,0.9-0.4c0.2-0.1,0.5-0.2,0.7-0.3c0.3-0.1,0.5-0.2,0.7-0.4
		c0.1-0.1,0.3-0.2,0.4-0.3l0.1-0.1c0.1-0.1,0.3-0.2,0.4-0.3l0.2-0.2l0.1-0.1c0.1-0.1,0.3-0.2,0.4-0.3c0.1-0.1,0.1-0.1,0.1-0.2
		c2.2-1,4.3-2.1,6.3-3.1c0.3-0.1,0.6-0.3,0.9-0.4c0.1,0,0.1-0.1,0.2-0.1l0,0l0.1-0.1c0.1,0,0.2-0.1,0.3-0.1c0,0,0,0,0,0c0,0,0,0,0,0
		c0,0,0,0,0,0c0,0,0,0,0,0l1.2-0.7c2.5-1.3,5.1-2.8,7.6-4.3c0.8-0.5,1.6-1.1,2.3-1.6c0.3-0.2,0.5-0.4,0.8-0.6c0,0,0,0,0,0
		c0.1-0.1,0.3-0.2,0.4-0.3c0,0,0,0,0.1-0.1s0,0,0.1-0.1c0.1,0,0.1-0.1,0.1-0.1l0.1-0.1c0,0,0,0,0,0c0,0,0,0,0,0l0,0c0,0-0.1,0-0.1,0
		c0,0,0.1,0,0.1,0c-0.5-0.2-0.9-0.4-1.4-0.6c-0.6-0.2-1.3-0.4-1.9-0.6c-3.4-0.7-7.1-1.4-10.9-1.7c-2.1-0.1-3.9-0.1-5.5-0.2l-0.1,0
		l-0.1,0c-0.3,0-0.6-0.1-0.9-0.1l-0.5-0.1c-0.9-0.1-1.8-0.2-2.7-0.2c-0.3,0-0.7,0-1-0.1l-0.4,0c-0.3,0-0.6,0-0.9,0l-0.4,0
		c-0.1,0-0.3,0-0.5,0c-0.1,0-0.1,0-0.2,0c-0.2,0-0.5,0-0.7,0c0,0,0,0,0,0c0,0,0,0-0.1,0c0,0-0.1,0-0.1,0c-0.5,0-1,0.1-1.4,0.1
		l-0.2,0c-0.2,0-0.4,0.1-0.6,0.1c-0.2,0-0.3,0.1-0.5,0.1l-0.2,0c-0.4,0.1-0.8,0.2-1.3,0.2c-0.5,0.1-1,0.2-1.5,0.3
		c-0.4,0.1-0.8,0.2-1.2,0.3c-1,0.2-1.9,0.4-2.7,0.6c-0.3,0.1-0.6,0.1-0.9,0.2l-0.4,0.1c-0.2,0-0.4,0.1-0.6,0.1
		c-0.2,0-0.4,0.1-0.6,0.1c-0.4,0.1-0.8,0.3-1.2,0.6c-0.2,0.1-0.4,0.3-0.5,0.4l-0.1,0.1l-1,0.4c-0.2,0-0.4,0.1-0.6,0.2
		c-0.1,0-0.1,0.1-0.2,0.1l-0.3,0.1l-0.4,0.2l-0.3,0.1l-0.2,0.1l0,0c-0.1,0-0.1,0-0.1,0.1h0l0,0l-0.1,0l-0.1,0
		c-0.1,0-0.3,0.1-0.5,0.2c-0.3,0.1-0.5,0.2-0.7,0.3c-0.2,0.1-0.4,0.2-0.6,0.3l-0.2,0.1c-0.1,0.1-0.3,0.2-0.5,0.3
		c-0.1,0.1-0.2,0.1-0.4,0.2l-0.4,0.1l-0.3,0.1l-0.1,0c-0.2,0.1-0.3,0.1-0.5,0.2c-0.2,0.1-0.4,0.2-0.7,0.3l-0.1,0.1l-0.1,0l-0.1,0.1
		l-0.3,0.2l-0.1,0.1l-0.2,0.1l-0.1,0l-0.2,0.1c-0.2,0.1-0.5,0.2-0.8,0.3l-0.2,0.1c-0.2,0.1-0.3,0.1-0.5,0.1c-0.2,0-0.3,0.1-0.6,0.2
		l-0.3,0.1c-0.2,0.1-0.3,0.1-0.5,0.2c-1.9,0.7-3.9,1.4-6.3,2.2l-0.8,0.3l-0.8,0.3c-2.4,0.9-4.8,2-6.9,3c-1.5,0.8-2.9,1.6-4.1,2.4
		c-0.6,0.4-1.2,0.9-1.7,1.3l-0.1,0.1c-0.3,0.3-0.5,0.5-0.8,0.8c-0.2,0.2-0.4,0.5-0.6,0.7l-0.2,0.3c0,0.1,0,0.1-0.1,0.2l0,0.1l0,0.2
		c0,0,0,0.1,0,0.1c0,0.1,0,0.3-0.1,0.4c0,0,0,0,0,0C1173.8,1418.6,1173.8,1418.7,1173.8,1418.7L1173.8,1418.7l0-0.1l0,0c0,0,0,0,0,0
		c0,0,0,0,0,0h0L1173.8,1418.7L1173.8,1418.7L1173.8,1418.7l0-0.1c0,0,0,0,0,0v0C1173.8,1418.7,1173.8,1418.7,1173.8,1418.7z
		 M1188.7,1447.5l-0.1,0.3l-0.1,0.2c-0.1,0.5-0.1,1.1-0.2,1.6c0,0.2,0,0.5,0,0.7v0.2c0,0,0,0,0,0c0,0,0,0.1,0.1,0.1
		c0,0,0.1,0.1,0.1,0.1c0.1,0.1,0.2,0.1,0.3,0.2l0.2,0.1l0.2,0.1c0.1,0,0.2,0.1,0.3,0.1c0.5,0.1,1,0.3,1.6,0.4c0.9,0.2,1.8,0.3,3,0.4
		c0,0,0,0,0,0c1.6,0.1,3.2,0.1,4.6,0.1c0.2,0,0.5,0,0.7,0c0.1,0,0.2,0,0.4,0c0,0,0,0,0,0c1.1,0,2.2,0,3.3-0.1
		c1.9-0.2,3.8-0.4,5.8-0.8c3.7-0.8,7.4-1.9,11.2-3.2c3.3-1.2,6.5-2.8,9.6-4.3l0.5-0.2l0.7-0.4l0.8-0.4l0.2-0.1l0.2-0.1l0.1,0
		l0.1-0.1l0.1-0.1l0.1-0.1c0.1,0,0.2-0.1,0.3-0.1l0.1-0.1l0.3-0.2l0.1-0.1c0.7-0.4,1.5-0.8,2.2-1.2l0.2-0.1l0.1-0.1l0,0
		c0,0,0.1,0,0.1-0.1c0,0,0,0,0,0c0,0,0,0,0,0c0.5-0.1,0.9-0.2,1.4-0.4l0.2-0.1c0.7-0.2,1.5-0.5,2.5-1c0.9-0.4,1.8-0.9,2.5-1.4
		c0.7-0.4,1.3-0.8,2-1.3c0.4-0.2,0.7-0.5,1.1-0.7l0.7-0.4l0.1-0.1c0.1-0.1,0.3-0.2,0.3-0.2c0.2-0.1,0.5-0.3,0.7-0.4l0.2-0.1
		c0.2-0.1,0.4-0.2,0.5-0.3c0.4-0.3,0.9-0.6,1.3-0.9l0.1-0.1c0.3-0.2,0.5-0.4,0.7-0.5c0.1-0.1,0.2-0.1,0.3-0.2l0.1,0
		c0.3-0.1,0.4-0.4,0.4-0.7c0-0.1,0-0.2-0.1-0.3c0-0.1-0.1-0.1-0.1-0.2c0,0,0,0,0,0c0.4-0.2,0.8-0.5,1.2-0.8c0,0,0,0,0,0
		c0.1,0,0.1-0.1,0.2-0.1c0,0,0.1,0,0.1,0c0,0,0,0,0.1,0l0,0c2.1-1.5,4.2-3,6.4-4.9c0.5-0.5,1-0.9,1.5-1.4c0.8-0.8,1.5-1.5,2.3-2.3
		c0.1-0.1,0.1-0.2,0.2-0.2l0.1-0.1l0-0.1l0-0.1l0-0.1c0,0,0,0,0,0v0l0,0v0l0,0c-0.2-0.1-0.3-0.1-0.5-0.2c0.2,0,0.3,0.1,0.5,0.1
		c-1-0.3-2.1-0.6-3.4-0.9c-1.8-0.3-3.9-0.6-6.1-0.8c-2-0.1-3.8-0.1-5.4-0.1l-1.4,0c-0.3,0-0.5,0-0.8,0l-0.4,0l-0.4,0c0,0,0,0,0,0
		c-0.5,0-1.1,0-1.6,0c-0.6,0-1.1,0-1.7,0c-1,0.1-1.9,0.2-3.1,0.4c-0.8,0.2-1.6,0.4-2.3,0.6l-0.1,0.1l0,0l0,0c0,0,0,0,0,0l0,0l-0.1,0
		l-0.2,0c0,0-0.1,0-0.1,0c-0.2,0-0.3,0-0.4,0.1c-0.1,0-0.2,0.1-0.4,0.2c-0.2,0.1-0.4,0.2-0.6,0.2l-0.3,0.1c-0.1,0-0.2,0.1-0.3,0.1
		c-0.1,0-0.2,0.1-0.3,0.1c-0.2,0.1-0.4,0.2-0.5,0.4c-1,0.3-1.8,0.6-2.5,0.9c-0.6,0.3-1.1,0.6-1.6,0.8l-0.3,0.2
		c-0.2,0.1-0.5,0.3-0.7,0.4c0,0,0,0,0,0c0,0-0.1,0-0.1,0.1c0,0,0,0,0,0c-0.1,0-0.1,0.1-0.2,0.1c0,0-0.1,0-0.1,0.1c0,0,0,0,0,0
		c0,0,0,0,0,0c0,0,0,0,0,0s0,0,0,0c0,0-0.1,0-0.1,0c-0.2,0.1-0.5,0.3-0.7,0.4c-0.4,0.2-0.9,0.5-1.3,0.8c-0.2,0.1-0.4,0.3-0.6,0.4
		l-0.3,0.2l-0.3,0.2l-0.1,0.1l0,0l-0.2,0.1c-0.5,0.3-1,0.6-1.5,0.8c-0.1,0-0.1,0-0.2,0c-0.3,0-0.6,0.1-0.9,0.2l0,0c0,0,0,0,0,0
		l-0.1,0c-0.2,0.1-0.4,0.1-0.6,0.2c-0.4,0.1-0.9,0.3-1.3,0.5c-0.8,0.3-1.7,0.7-2.7,1.2l-0.3,0.1l-0.3,0.1c-0.8,0.3-1.7,0.7-2.9,1.1
		c-0.4,0.2-0.9,0.3-1.3,0.5c-0.3,0.1-0.6,0.3-0.8,0.4l-0.3,0.2c-0.3,0.1-0.6,0.3-0.9,0.4c-0.1,0.1-0.3,0.1-0.4,0.2
		c-0.1,0.1-0.3,0.1-0.4,0.2c-0.3,0.1-0.5,0.3-0.8,0.4c-0.1,0.1-0.3,0.2-0.4,0.4c0,0,0,0,0,0v0c-1.3,0.5-3.2,1.2-5,2
		c-1.3,0.7-2.7,1.4-4,2.3c-1.9,1.3-3.7,2.8-5.7,4.5c-1.1,1-2.1,2-3,3c-0.3,0.3-0.5,0.6-0.8,1l0,0c0,0,0,0,0,0c0,0,0,0,0,0
		c0,0,0,0,0,0c0,0,0,0,0,0v0h0c0,0,0,0,0,0c0,0,0,0,0,0c0,0,0,0,0,0.1l0,0C1189,1446.9,1188.8,1447.2,1188.7,1447.5z M1367.6,1676.6
		C1367.6,1676.6,1367.6,1676.6,1367.6,1676.6C1367.6,1676.6,1367.6,1676.6,1367.6,1676.6C1367.6,1676.6,1367.6,1676.6,1367.6,1676.6
		c0.6-1.6,1.1-3.2,1.7-5.1c0-0.1,0-0.1,0.1-0.2c0.1-0.4,0.3-0.9,0.4-1.3C1369,1672.2,1368.3,1674.4,1367.6,1676.6z"/>
	<path class="st2" d="M1262,2047.4l0.3-1.2c0.4-1.6,0.8-3.2,1.2-4.9l0.5-2c0.3-1.4,0.8-2.8,1.2-4.2c0.2-0.7,0.4-1.4,0.7-2.1l0.8-2.7
		c0.4-1.2,0.7-2.4,1.1-3.6c0.4-1.4,0.8-2.8,1.2-4.3c0.3-0.9,0.5-1.9,0.8-2.8c0.6-2.2,1.2-4.4,1.9-6.6c0.2-0.7,0.4-1.3,0.6-2
		c0.5-1.5,0.9-3.1,1.3-4.6c0.7-3.1,1.4-6.2,2.1-9.3l1-4.2c0.4-1.9,0.9-3.9,1.3-5.8c0.6-2.6,1.1-5.1,1.7-7.7c0.7-3,1.4-6,2.2-9
		l1.1-4.4c0.5-2.2,1-4.4,1.5-6.6c0.5-2.4,1.1-4.7,1.6-7c0.2-0.8,0.4-1.6,0.6-2.4c0.3-1.5,0.7-2.9,1.1-4.4l0.3-1.1c0.5-2,1-4,1.5-6
		c0.4-1.6,0.7-3.2,1.1-4.8l0.6-2.5l0.3-1.1c0.4-1.9,0.9-3.8,1.4-5.7c1.1-4.1,2.3-8.8,3.7-13.4c1.6-5.4,2.9-9.9,3.9-13.9
		c1.2-4.5,2.4-9.2,3.6-14.6c1-4.3,2.1-8.8,3.3-13.2c1.4-5.3,2.7-10,3.9-14.3c0.9-3.2,1.8-6.6,2.6-9.8c0.4-1.5,0.8-3,1.2-4.5
		c0.8-3.1,1.7-6.3,2.6-9.4c0.4-1.6,0.9-3.1,1.3-4.7l1-3.6c0.9-3.2,1.8-6.5,2.8-9.7c0.2-0.9,0.5-1.7,0.7-2.6c0.4-1.4,0.8-2.8,1.2-4.1
		c0.6-1.9,1.2-3.7,1.8-5.6l0.3-0.9l1.2-3.4c1.1-3.3,2.2-6.6,3.3-9.9c0.4-1.2,0.9-2.4,1.3-3.6c1.3-3.5,2.6-7.1,3.8-10.8
		c1.2-3.4,2.3-6.7,3.3-9.9c0.9-2.7,2-5.8,3-8.9c0.8-2.4,1.6-5.1,2.5-8.2c1.6-5.4,3.4-11.2,5.6-17.7c0.9-2.5,1.9-5.4,2.9-8.3
		c0.9-2.8,1.7-5.6,2.5-8.4c1.4-4.9,3-10.2,5-16.2c0.8-2.3,1.7-4.7,2.5-7.1l0.2,0.8c0.1,0.8,0.3,1.5,0.4,2.3c0.1,0.3,0.1,0.6,0.1,0.9
		c0.1,0.8,0.2,1.5,0.4,2.3l0.4,1.5l0.3,1.2l0.9,3.6l1.5,6.2c1,3.9,2,7.9,3,11.8c1.3,5.1,2.7,10.4,3.9,15.6
		c1.1,4.8,2.4,10.6,3.8,16.5c0.9,4,1.8,8,2.6,11.9l0.4,2.1c0-0.1,0-0.1-0.1-0.2l1.4,7.5c0.6,3.5,1.2,6.9,1.9,10.4
		c0.4,2.4,0.9,4.9,1.3,7.6c0.1,0.7,0.2,1.5,0.4,2.2c0.3,1.9,0.7,3.9,0.9,5.9l0.6,4.9l0.6,4.9c0.2,1.5,0.3,3.1,0.4,4.6l0.1,1.6
		l0.5,5.4c0.3,3.8,0.6,7.5,1,11.3c0.8,9.4,2.2,18.9,3.6,28.1l0.2,1.5c1.5,10.3,3.3,20.6,5.2,31.1c1.7,9.4,3.8,18.8,5.9,28.3l0.7,3.2
		c0.9,3.9,1.8,8,2.7,12c1.1,4.7,2.5,10.2,3.8,16c2.2,9.7,4.4,19.7,6.5,29.8l0,0.2l0.1,0.3l0.9,4.7l0.9,4.7c0.3,1.6,0.5,3.3,0.8,4.9
		c0.1,0.7,0.2,1.5,0.3,2.2c0.7,4.5,1.5,9.7,2.1,14.9c0.6,4.6,1.2,9.9,1.7,15c0.3,3,0.5,6.1,0.8,9.1c0.2,2,0.3,4.1,0.5,6.1l0.1,2.3
		l0.1,2.3L1262,2047.4C1262,2047.4,1262,2047.4,1262,2047.4C1262,2047.4,1262,2047.4,1262,2047.4
		C1262,2047.4,1262,2047.4,1262,2047.4z"/>
	<path class="st3" d="M1367.6,1676.6c0.8-2.2,1.5-4.4,2.2-6.6C1369,1672.5,1368.3,1674.6,1367.6,1676.6
		C1367.6,1676.6,1367.6,1676.6,1367.6,1676.6C1367.6,1676.6,1367.6,1676.6,1367.6,1676.6C1367.6,1676.6,1367.6,1676.6,1367.6,1676.6
		z M1372.2,1661.7c1.2-4,2.4-8.1,3.7-12.1c0.9-2.8,1.6-5,2.2-7.1c0.5-1.9,1.1-4.2,1.3-6.6c0.2-2.3,0.2-4.6,0.2-6.8v-0.1v-0.1
		c0.9,0.8,2,1.6,2.6,2.8c0.3,0.6,0.5,1.1,0.5,1.7c2.8,2.5,5,4.6,7,6.5c3.3,3.3,6.5,6.5,9.6,9.6c1.6,1.9,3.2,3.8,4.9,5.6
		c1.7,2.1,3.3,4.2,5,6.3l1.1,1.4c0.4,0.5,0.9,0.9,1.5,1.2l1.6,1.9c1.3,1.6,2.6,3.2,3.9,4.7c0.6,0.8,1.2,1.5,1.9,2.3
		c1.3,1.6,2.6,3.1,3.9,4.6l1.8,2.2l0.6,0.7c3.6,4.3,7.2,8.6,10.8,12.8c3.2,3.8,6.7,7.6,10,11.2l1.9,2.1c1.3,1.4,2.6,2.9,4,4.4l2,2.2
		c1.6,1.7,3.2,3.4,4.8,5.1l1.2,1.2c2.4,2.6,4.9,5.1,7.4,7.5c1.6,1.6,3.1,3.2,4.7,4.8c4.1,4.2,8.2,8.5,12.3,12.7
		c3.3,3.5,6.7,7,9.9,10.5l1.6,1.7c1.8,1.9,3.6,3.9,5.4,5.8c2.2,2.3,4.3,4.7,6.5,7c4.9,5.3,9.3,9.9,13.5,14.2l2,2.1
		c3.2,3.3,6.4,6.7,9.6,10.1l1.1,1.2c3.4,3.7,7,7.4,10.6,11c0.8,0.7,1.5,1.5,2.3,2.2c1.5,1.5,3.1,3,4.6,4.6l4.7,5l2.3,2.4
		c1.4,1.4,2.7,2.9,4,4.4c0.6,0.6,1.1,1.3,1.7,1.9c1.5,1.7,3.2,3.5,5.3,5.7c4.3,4.5,8.7,9,12.8,13.2c4.5,4.6,8.5,8.6,12.3,12.2
		l0.7,0.7c1.6,1.6,3.4,3.2,5.1,4.8c2.4,2.1,4.7,4.1,7.1,6.2c6,5.5,11.9,10.9,17.9,16.3c3.7,3.4,7.5,6.8,11.2,10c2,1.8,4,3.5,6,5.3
		c1.9,1.7,3.7,3.4,5.6,5.1c2,1.8,4,3.6,6,5.4c4.5,4,9.1,8.1,13.8,12.1c4.3,3.7,9,7.8,14.7,12.8c2.6,2.3,5.4,4.6,8,6.8
		c1.2,1,2.4,2,3.6,3.1c17.6,14.9,36,30.7,54.7,47c4,3.6,8,7.2,12,10.8c4.5,4.1,8.9,8.1,12.5,11.6l4.4,4.1l2.3,2.1
		c1.5,1.4,3.1,2.8,4.6,4.1l0.6,0.5c3.4,3,8,6.9,12.6,10.8c3.2,2.7,6.4,5.3,9.6,7.9l-371.9,0c-0.5-7.3-1.1-14.7-1.8-21.8l-0.2-2.4
		c-0.2-1.7-0.4-3.5-0.6-5.2l-0.2-1.4l-0.1-1.2c-0.2-1.8-0.4-3.6-0.7-5.4c-0.9-6.2-1.7-11.8-2.5-17.1c-1.5-9.7-3.5-19.2-5.7-28.9
		c-2.1-9.7-4.5-20.1-7.4-32c-0.9-3.8-1.8-7.7-2.6-11.5l-0.8-3.5c-1-4.5-2-9-3-13.5c-0.3-1.6-0.6-3.3-1-4.9c-0.6-3-1.2-6-1.8-9.1
		l-0.6-3.4c-0.7-4.1-1.5-8.4-2.2-12.6c-0.9-5.6-1.8-11.1-2.6-16.6c-0.5-3.2-0.9-6.4-1.4-9.7c-0.3-1.8-0.5-3.6-0.8-5.4
		c-0.2-1.7-0.4-3.5-0.6-5.3c-0.1-0.9-0.2-1.7-0.3-2.6c-0.2-2.1-0.4-4.1-0.6-6.2c-0.5-5.7-1-11.4-1.5-17.1c-0.3-3.7-0.8-7.5-1.3-11.1
		c-0.2-1.2-0.3-2.4-0.5-3.6c-0.2-1.7-0.5-3.4-0.8-5.1c-0.1-0.9-0.3-1.7-0.4-2.6c-0.3-2-0.6-4-1-6c-1-5.6-2-11.2-3-16.7
		c-0.4-2.1-0.8-4.3-1.2-6.1c-0.2-0.8-0.3-1.7-0.5-2.5c-0.3-1.7-0.7-3.4-1.1-5.1l-0.3-1.2c-1.1-4.5-2.2-9.2-3.2-13.8
		c-1.3-5.7-2.7-11.4-3.9-16.3c-0.9-3.4-1.7-6.8-2.6-10.2c-0.4-1.5-0.8-3-1.2-4.6c-0.8-3.1-1.6-6.3-2.3-9.3c-0.3-1.4-0.7-2.9-1-4.3
		c-0.3-1.5-0.5-3-0.8-4.5c-0.3-1.5-0.5-3-0.8-4.5c-0.2-0.9-0.3-1.9-0.4-2.8c-0.1-0.5-0.1-0.9-0.2-1.4l-0.3-2.2l-0.3-2.2l-0.1-2.3
		l-0.1-2.3C1370.6,1667.2,1371.4,1664.4,1372.2,1661.7z"/>
	<path class="st4" d="M875.1,2047.4C875.1,2047.4,875.1,2047.4,875.1,2047.4l1.5-1.4c2.7-2.5,5.4-5.1,8.1-7.6
		c1.7-1.6,3.5-3.2,5.2-4.7l1.8-1.6l3.2-2.7c3.5-3.1,7.2-6.3,10.8-9.5c2.3-2.1,4.7-4.2,7-6.3c2.8-2.5,5.5-4.9,8.2-7.4
		c8.3-7.5,17.2-15.4,28.6-25.6c4.6-4,9-7.6,13.4-11.2c1.6-1.3,3.1-2.6,4.6-3.9c0.6-0.5,1.2-1,1.8-1.6c1.7-1.5,3.4-3,5.3-4.7
		c2.2-2,4.4-4,6.5-6.1c1.8-1.7,3.6-3.3,5.4-5c4-3.7,8.3-7.6,12.6-11.4c5.5-4.9,10.4-9.3,15.3-13.9c2-1.9,4.7-4.5,7.3-7.1l3.6-3.6
		l3.6-3.6l1.6-1.6c1.9-1.9,3.8-3.8,5.8-5.7l7.8-7.4l2.6-2.5c1.7-1.7,3.5-3.3,5.2-4.9c0.9-0.9,1.9-1.8,2.8-2.6
		c1.8-1.7,3.6-3.4,5.5-5.1c5.1-4.6,10.5-9.5,16.4-15c1.9-1.7,3.8-3.5,5.6-5.3l2-1.9c1.9-1.8,3.8-3.5,5.7-5.3l1.8-1.6
		c4.1-3.8,8.3-7.6,12.4-11.2l2.2-1.9l0.6-0.5c5.3-4.7,10.6-9.4,15.8-14.1l-0.2,0.2l4-3.4c3-2.6,6-5.1,9-7.7c0.6-0.6,1.3-1.1,1.9-1.7
		c1.5-1.3,3-2.6,4.5-3.8c2.7-2.2,5.4-4.4,8.1-6.7c2-1.6,4.1-3.2,6-4.8c2.2-1.7,4.4-3.4,6.5-5.2l1.5-1.3c1.6-1.3,3.2-2.6,4.8-4
		l2.6-2.3c1.5-1.3,3.1-2.7,4.6-4c5.7-4.9,11.3-9.7,16.8-14.5c4.4-3.8,8.9-7.6,13.2-11.2l2.8-2.4c5.5-4.6,10.9-9.1,16.4-13.7
		c5-4.1,9.9-8.2,14.8-12.4c5.7-4.8,11.4-9.6,16.9-14.4c1.8-1.6,3.6-3.1,5.4-4.6c3.2-2.7,6.5-5.6,9.7-8.4l6-5.3
		c3.1-2.8,6.2-5.5,9.3-8.3c2.9-2.6,5.7-5.2,8.6-7.8c2.4-2.2,4.9-4.4,7.3-6.6l3.6-3.1c0.3-0.2,0.5-0.5,0.8-0.7c0.6-0.5,1.1-1,1.7-1.5
		l0.9-0.7c2.5-2,5.1-4.1,7.7-6.1c2.5-1.9,5.1-3.8,7.6-5.8l1.7-1.3c2.2-1.7,4.4-3.5,6.6-5.2c3-2.3,6-4.8,9.1-7.1c2-1.5,4-3,6.1-4.4
		c0.3-0.4,0.8-0.7,1.2-1c0.7-0.4,1.4-0.7,1.9-0.8c0.2-0.1,0.5-0.3,0.7-0.4c0.2-0.1,0.3-0.2,0.5-0.3l0.3-0.2c0.3-0.1,0.5-0.3,0.8-0.5
		l0.1-0.1c0.4-0.3,0.7-0.6,1-0.8l-0.1,0.1c0.4-0.3,0.7-0.6,1.1-0.9c0.2-0.2,0.5-0.5,0.7-0.7c0.4-0.3,0.7-0.6,1.1-0.8
		c0.1-0.2,0.3-0.4,0.4-0.6c0.5-0.6,1-1,1.6-1.2c2.3-1.7,4.5-3.5,6.7-5.2l1.4-1.1c0.3-0.3,0.7-0.6,1-0.9l0.4-0.3l0-0.7l0-0.7l0,1.3
		l0,1.3c-1.2,0.5-2.1,1.5-2.3,2.6l-0.2,1.1c-0.4,1.8-0.8,3.6-1.2,5.4l-0.1,0.3l-0.1,0.3c0,0.1,0,0.3,0,0.4c0,0.6-0.1,1.1-0.4,1.6
		c-0.1,0.5-0.1,1.1-0.2,1.6c-0.7,0.4-1.2,1.1-1.6,1.8c-2.7,6.1-4.8,10.8-6.8,15.2l-2,4c-2.4,4.7-4.9,9.6-7.5,14.3
		c-0.5,0.9-1,1.8-1.5,2.7c-1.2,2.2-2.5,4.6-3.8,6.8c-0.6,1-1.2,2.1-1.8,3.1c-1.3,2.2-2.5,4.4-3.8,6.5c-3,5-6,10-9,15.1
		c-2.6,4.4-5.4,8.6-7.7,12.2c-4,6-8,12.1-12,18c-2.1,3.1-4.1,6.1-6.1,9.2c-0.6,0.9-1.2,1.8-1.9,2.7l-0.8,1.2
		c-5.7,8.2-11.8,17-17.7,25.7c-3.3,4.9-6.6,9.9-9.9,14.8c-2.6,4-5.1,8.1-7.6,12.1l-0.2,0.4c-5.9,9.7-11.7,19.3-17.4,28.9
		c-2.9,4.9-5.8,10-8.5,14.9c-2.1,3.7-4.2,7.4-6.3,11.1c-1.7,3-3.5,6-5.2,9.1c-0.9,1.5-1.8,3-2.7,4.4l-0.5,0.8
		c-0.5,0.8-1,1.6-1.5,2.4c-1,1.6-2.1,3.3-3.1,4.9l-4.8,7.3c-2.3,3.5-4.7,7-7,10.6l-2.2,3.2c-1.9,2.8-3.8,5.8-5.6,8.6
		c-0.8,1.3-1.6,2.6-2.5,3.9l-0.9,1.2c-3.9,5.6-7.9,11.4-11.9,17.1c-2.4,3.4-4.8,6.8-7.2,10.2l-4.1,5.7l-1,1.4
		c-2.9,4.1-5.9,8.3-8.8,12.4l-10.2,14c-2.6,3.5-5.1,7.1-7.5,10.6l-1.8,2.6c-1,1.4-1.9,2.8-2.8,4.2c-0.4,0.6-0.8,1.2-1.2,1.8
		c-0.4,0.6-0.8,1.2-1.3,1.9c-0.9,1.3-1.8,2.7-2.7,4.1l-4.1,6.6c-4.6,7.3-9.3,14.8-14.1,22.2c-2.8,4.3-5.5,8.6-8.3,12.9
		c-2.6,4-5.1,8.1-7.7,12.1L875.1,2047.4C875.1,2047.4,875.1,2047.4,875.1,2047.4L875.1,2047.4z M1372.9,1605.8c0.2,0,0.3,0,0.5,0
		C1373.2,1605.7,1373.1,1605.8,1372.9,1605.8c-2,0.3-3.4,2-3.4,4.1c0,0.1,0,0.3,0,0.4c0.1,0.8,0.2,1.5,0.3,2.2l0.1,0.7
		c0.1,0.5,0.2,0.9,0.2,1.4c-0.1-0.5-0.2-0.9-0.2-1.4l-0.1-0.7c-0.1-0.7-0.3-1.5-0.4-2.2c0-0.1,0-0.3,0-0.4
		C1369.4,1607.7,1370.9,1606,1372.9,1605.8z"/>
	<path class="st5" d="M666.2,1008.2C666.2,1008.2,666.2,1008.2,666.2,1008.2C666.2,1008.2,666.3,1008.2,666.2,1008.2
		c1.4-0.2,2.8-0.3,4.1-0.5l0.9-0.1c1.5-0.2,3-0.4,4.5-0.6c0.6-0.1,1.3-0.2,1.9-0.2l0.2,0c1.4-0.2,2.8-0.4,4.2-0.5l3.3-0.3l3.3-0.3
		c4.6-0.3,9.3-0.5,13.9-0.8c2.7-0.1,5.5-0.2,8-0.3c1.5,0,2.9-0.1,4.4-0.1c4.3-0.2,8.6-0.4,12.8-0.6c3.3-0.2,6.6-0.3,10-0.4l2.2-0.1
		c4.2-0.2,8.5-0.4,12.6-0.6l0.1,0l0.7,0c4.4-0.2,8.9-0.5,13.4-0.6c4-0.1,8-0.3,12.1-0.5l2.9-0.2c2.6-0.1,5.5-0.3,8.3-0.4l2.7-0.1
		c3.6-0.1,7.2-0.3,10.8-0.4l1.3-0.1l0.2,0c3.6-0.2,7.2-0.3,10.9-0.4c4.2-0.1,8.6-0.1,12.7-0.1c3.9,0,7.8,0,11.7,0
		c7.8-0.1,16.2-0.2,24.5-0.7c4.5-0.3,9-0.8,13.4-1.2l0.2,0c2.8-0.3,5.8-0.6,8.7-0.9l1.5-0.1c1.8-0.1,3.6-0.2,5.3-0.3
		c0.5,0,1.1-0.1,1.6-0.1l0.8-0.1c0.8-0.1,1.6-0.1,2.4-0.2c0.1,0,0.1,0,0.2,0l0.1,0c0.1,0,0.1,0,0.2,0l0.2,0c0.4,0,0.8,0,1.2,0h0.2
		c0.3,0,0.6,0,0.8,0l0.9,0.1l0.3,0.1l0.3,0.1l0.3,0.1l0.1,0.1l0,0l-0.1,0l-0.1,0l0.2,0.1l0.2,0.1c0.5,0.3,1,0.6,1.5,0.9l-0.2-0.1
		l-0.1-0.1l0.2,0.2l0.3,0.2c1.3,1.3,2.6,2.7,3.7,3.9l0.2,0.2c0.9,1,1.7,2,2.6,2.9l0.2,0.2c1.3,1.5,2.6,3,3.9,4.5l-0.1-0.1l0,0
		l-0.1-0.1c0.3,0.3,0.7,0.7,1,1.1l0.1,0.2l0.1,0.1l0.1,0.1l0.2,0.2l0.1,0.1l0.2,0.2l0.3,0.3c0,0,0.1,0.1,0.1,0.1l0.1,0.1l0.1,0.1
		l0.1,0.1l0.1,0.1l0.7,0.9l0.8,0.9l0.9,1.2c1.1,1.4,2.3,2.8,3.4,4l1.3,1.5c0.7,0.9,1.4,1.7,2.1,2.6l0.4,0.4c1,1.2,2,2.4,3,3.6
		c1.2,1.4,2.5,2.8,3.8,4.2c0.6,0.7,1.2,1.3,1.8,2c0.5,0.6,0.9,1.1,1.4,1.7l0.7,0.8l0.3,0.4c0.8,0.9,1.5,1.8,2.3,2.7l1.1,1.3
		c1.3,1.5,2.5,3,3.8,4.5c2,2.5,4,5,6,7.5c1.3,1.6,2.6,3.2,3.9,4.9c1.6,2,3.2,4.2,4.4,5.8c1.4,1.8,2.7,3.7,4.1,5.5l0.7,0.9
		c2.1,2.8,4.2,5.6,6.4,8.4l2.7,3.5c0.8,1.1,1.6,2.1,2.4,3.2c0.6,0.8,1.2,1.6,1.8,2.4c1.7,2.3,3.5,4.7,5.2,7
		c3.3,4.5,6.8,8.9,10.1,12.9c1,1.3,2,2.6,2.9,3.8c0.4,0.6,0.9,1.1,1.3,1.7c1.9,2.5,3.7,4.8,5.4,7.1c1.8,2.4,3.6,4.7,5.8,7.4
		c0.7,0.9,1.5,1.8,2.2,2.7c0.8,0.9,1.6,1.8,2.3,2.8l1.7,2.1c2.2,2.8,4.5,5.6,6.6,8.4c2.7,3.7,5.4,7.4,8.1,11.1
		c1.9,2.6,3.8,5.2,5.7,7.7l0.3,0.4l2.1,2.7c1,1.4,2.1,2.8,3.1,4.2l0.6,0.8c1.1,1.5,2.2,2.9,3.3,4.4c4.6,6.1,9.4,12.1,14.1,17.9
		c5.9,7.3,11.9,14.9,17.6,22.6c4.9,6.6,10.7,14.4,16.6,22.1l0.5,0.6c4.9,6.4,10,12.9,14.6,19.7c2.9,4.1,5.8,8.3,8.7,12.4
		c0.9,1.3,1.8,2.6,2.7,3.8l0.3,0.4l0.1,0.2c1.1,1.6,2.2,3.2,3.3,4.8c5.3,7.5,10.4,14.8,15.1,21.7l1.6,2.4c3,4.6,6.1,9.4,9.3,14.1
		l3.6,5.3l7,10.4c3.1,4.6,6.1,9.3,9.2,13.9l1.2,1.8c2.1,3.2,4.2,6.4,6.5,9.5c3,4.1,6.5,9,10.1,13.7c3.6,4.7,6.9,8.9,9.9,12.7
		l0.8,1.1c2.4,3,4.7,6,7.1,9l-0.3,0.1l-0.2,0.1c-1.7,0.7-3.5,1.4-5.8,2.4c-0.6,0.2-1.1,0.5-1.7,0.7c-0.2-0.1-0.5-0.2-0.7-0.4
		c-1.4-0.8-3.1-1.8-4.7-2.8c-2-1.3-4.3-2.9-6.7-4.5c-1.8-1.3-3.7-2.5-5.5-3.8l-1.5-1.1c-0.8-0.6-1.6-1.2-2.4-1.8l-0.5-0.3
		c-0.3-0.2-0.6-0.4-0.9-0.7c-0.7-0.5-1.4-1-2.1-1.5l-0.3-0.2l-1.4-1c-2.9-2.1-5.7-4.1-8.6-6.2c-2.4-1.8-4.9-3.5-7.3-5.3
		c-0.8-0.6-1.6-1.1-2.4-1.7c-1.5-1-2.9-2.1-4.4-3.1c-2.2-1.7-4.4-3.3-6.6-5c-0.5-0.4-0.9-0.7-1.4-1c-1-0.7-1.8-1.4-2.7-2l-1.8-1.5
		l-1.9-1.5c-1.7-1.4-4-3.2-6.3-5c-4.7-3.5-9.7-7.1-15.1-11c-3.7-2.6-7.6-5.2-11.3-7.7l-2.9-1.9c0,0-0.1-0.1-0.1-0.1
		c-3.1-2.2-5.5-4-7.7-5.6c-0.8-0.6-1.6-1.2-2.4-1.8l-0.2-0.2c-1.2-0.9-2.4-1.8-3.6-2.7c-3.3-2.5-6.5-5.1-10.1-8
		c-1.3-1-2.6-2.1-3.9-3.1l-0.7-0.6l-0.4-0.3c-0.9-0.7-1.6-1.3-2.4-1.9l-3-2.2l-1.3-1c-1.1-0.8-2.2-1.5-3.3-2.3l-0.2-0.1
		c-1-0.7-2-1.4-3-2.1c-5.8-4.2-10.4-7.7-14.6-11.1l-4.1-3.3l-2-1.6l-0.2-0.1c-6.7-5.4-13.7-11-20.7-16.2c-1.4-1-2.8-2.1-4.1-3.1
		l-0.5-0.3c-3.5-2.6-7.1-5.3-10.6-8c-3.1-2.4-6.1-4.9-9.1-7.3l-0.2-0.1l-1-0.8c-1.2-1-2.4-2-3.6-3c-1.5-1.2-3.1-2.4-4.6-3.5
		l-0.1-0.1l-0.4-0.3c-0.6-0.4-1.2-0.9-1.8-1.3l-1.6-1.2c-1.7-1.3-3.4-2.6-5.1-3.8c-1.7-1.2-3.3-2.5-5-3.7l-0.4-0.3
		c-2.8-2.1-5.6-4.2-8.5-6.3c-5.2-3.8-10.5-7.6-15.7-11.3c-5.4-3.8-10.2-7.3-14.8-10.6c-3.5-2.6-7.1-5.1-10.6-7.7l-0.9-0.7l-2-1.4
		l-0.2-0.1c-2.3-1.7-4.5-3.2-6.6-4.7l-5.3-3.6c-0.1-0.1-0.3-0.2-0.4-0.3l-0.2-0.1c-0.4-0.3-0.7-0.5-1-0.7c-0.2-0.2-0.4-0.3-0.7-0.5
		c-0.2-0.1-0.4-0.3-0.6-0.4l-0.3-0.2l-1.9-1.3l-1.2-0.8c-0.4-0.3-0.9-0.6-1.3-0.9l-0.2-0.2l-0.3-0.2l-0.2-0.1l-0.1-0.1l-0.1-0.1
		c-0.2-0.1-0.3-0.2-0.4-0.3c-0.2-0.1-0.3-0.2-0.5-0.3l-1.2-0.8c-3.1-2.1-6.3-4.2-9.3-6.4l-2-1.4c-1.3-0.9-2.6-1.8-3.8-2.7l-3.3-2.4
		l-3.3-2.4c-4.1-3.1-8.6-6.1-12.5-8.8l-0.1-0.1c-2.9-2-6-4.1-8.9-6.2l-1.8-1.3c-1.6-1.1-3.4-2.4-5.1-3.7l-2.4-1.9
		c-1.6-1.2-3.3-2.5-4.9-3.8l-4-3.1l-4-3.2c-1.7-1.3-3.4-2.5-5-3.8l-0.6-0.5c-0.6-0.4-1.2-0.9-1.8-1.3c-2.5-1.9-5.2-3.7-7.6-5.4
		l-0.3-0.2c-1.8-1.3-3.8-2.6-5.6-3.9l-3.5-2.5l-3.5-2.5c-0.8-0.6-1.6-1.2-2.5-1.8c-1.8-1.3-3.7-2.7-5.6-4l-0.1-0.1l-0.1-0.1
		l-8.1-5.5c-0.8-0.5-1.6-1.1-2.5-1.7l-0.5-0.4l-0.2-0.1c-2-1.4-4.2-2.9-6.3-4.3l-1.5-1c-2.9-1.9-5.7-3.7-8.6-5.6
		c-6.7-4.3-13.5-8.7-20.2-13.1l-2-1.4c-1.9-1.3-3.8-2.6-5.7-4c-2.8-2-5.8-4.3-8.8-6.6c-2.5-1.9-4.9-3.8-7.4-5.7
		c-2.1-1.6-4.2-3.3-6.2-4.9l-0.4-0.3l-0.5-0.4c-2-1.6-3.9-3.2-5.9-4.9l-0.9-0.8c-1.7-1.4-3.5-2.9-5.4-4.4l-1.6-1.3
		c-1.5-1.2-3-2.4-4.5-3.5l-0.7-0.5l-1.8-1.4c-1.6-1.2-3.1-2.5-4.6-3.7l-2.1-1.7c-3.4-2.7-6.7-5.5-10.1-8.2l-0.4-0.3l-4.9-4
		C666.7,1008.5,666.5,1008.4,666.2,1008.2C666.3,1008.3,666.2,1008.3,666.2,1008.2C666.2,1008.2,666.2,1008.2,666.2,1008.2z"/>
	<path class="st6" d="M1188.4,1450.3c0-0.2,0-0.5,0-0.7c0-0.5,0.1-1.1,0.2-1.6l0.1-0.2l0.1-0.3c0.1-0.3,0.3-0.6,0.4-0.8l0,0
		c0,0,0,0,0,0c0,0,0,0,0,0c0,0,0,0,0,0c0,0,0,0,0,0c0,0,0,0,0,0c0,0,0,0,0,0c0,0,0,0,0,0l0,0c0.2-0.3,0.5-0.7,0.8-1c1-1,1.9-2,3-3
		c2-1.7,3.9-3.2,5.7-4.5c1.4-0.8,2.7-1.6,4-2.3c1.8-0.8,3.8-1.5,5-2c0,0,0,0,0,0c0,0,0,0,0,0c0.1-0.2,0.3-0.3,0.4-0.4
		c0.2-0.2,0.5-0.3,0.8-0.4c0.1-0.1,0.3-0.1,0.4-0.2c0.1-0.1,0.3-0.1,0.4-0.2c0.3-0.1,0.6-0.3,0.9-0.4l0.3-0.2
		c0.3-0.1,0.6-0.3,0.8-0.4c0.4-0.2,0.9-0.4,1.3-0.5c1.1-0.4,2-0.7,2.9-1.1l0.3-0.1l0.3-0.1c0.9-0.5,1.9-0.9,2.7-1.2
		c0.4-0.2,0.8-0.3,1.3-0.5c0.2-0.1,0.4-0.1,0.6-0.2l0.1,0l0,0c0.3-0.1,0.6-0.2,0.9-0.2c0.1,0,0.1,0,0.2,0c0.5-0.3,1-0.6,1.5-0.8
		l0.2-0.1l0,0l0.1-0.1l0.3-0.2l0.3-0.2c0.2-0.1,0.4-0.3,0.6-0.4c0.4-0.3,0.8-0.5,1.3-0.8c0.2-0.1,0.5-0.3,0.7-0.4c0,0,0.1,0,0.1,0
		c0,0,0.1,0,0.1,0c0.4-0.2,0.8-0.4,1.1-0.7l0.3-0.2c0.5-0.3,1.1-0.6,1.6-0.8c0.7-0.3,1.5-0.6,2.5-0.9c0.1-0.2,0.3-0.3,0.5-0.4
		c0.1,0,0.2-0.1,0.3-0.1c0.1,0,0.2-0.1,0.3-0.1l0.3-0.1c0.2-0.1,0.4-0.1,0.6-0.2c0.2-0.1,0.3-0.2,0.4-0.2c0.2-0.1,0.3-0.1,0.5-0.1
		l0.2,0l0.1,0l0,0l0.2-0.1c0.7-0.2,1.5-0.4,2.3-0.6c1.1-0.2,2.1-0.4,3.1-0.4c0.6,0,1.1,0,1.7,0c0.5,0,1.1,0,1.6,0c0,0,0,0,0,0l0.4,0
		l0.4,0c0.3,0,0.5,0,0.8,0l1.4,0c1.6,0,3.4,0,5.4,0.1c2.2,0.2,4.3,0.5,6.1,0.8c1.2,0.3,2.3,0.6,3.4,0.9c-0.2-0.1-0.4-0.1-0.6-0.2
		c0.2,0.1,0.4,0.1,0.6,0.2l0,0l0,0h0c0,0,0,0,0,0v0c0,0,0,0,0,0l0,0.1l0,0.1l0,0.1l-0.1,0.1c-0.1,0.1-0.1,0.2-0.2,0.2
		c-0.7,0.8-1.5,1.5-2.3,2.3c-0.5,0.4-1,0.9-1.5,1.4c-2.2,1.8-4.2,3.4-6.4,4.9l0,0l0,0c0,0,0,0,0,0l0,0l0,0c-0.1,0.1-0.2,0.1-0.3,0.2
		c-0.4,0.3-0.8,0.5-1.2,0.8c0.1,0,0.1,0.1,0.1,0.2c0.1,0.1,0.1,0.2,0.1,0.3c0,0.3-0.2,0.5-0.4,0.7l-0.1,0.1l0,0
		c-0.3,0.2-0.6,0.4-1,0.7l-0.1,0.1c-0.4,0.3-0.9,0.6-1.3,0.9c-0.2,0.1-0.4,0.2-0.5,0.3l-0.2,0.1c-0.2,0.1-0.4,0.2-0.7,0.4
		c-0.1,0-0.2,0.1-0.3,0.2l-0.1,0.1l-0.7,0.4c-0.4,0.2-0.8,0.5-1.1,0.7c-0.7,0.4-1.3,0.9-2,1.3c-0.8,0.5-1.6,1-2.5,1.4
		c-1,0.4-1.8,0.8-2.5,1l-0.2,0.1c-0.5,0.1-0.9,0.3-1.4,0.4c0,0,0,0,0,0c0,0-0.1,0-0.1,0.1l0,0l-0.1,0.1l-0.2,0.1
		c-0.7,0.4-1.5,0.8-2.2,1.2l-0.1,0.1l-0.3,0.2l-0.1,0.1c-0.1,0.1-0.2,0.1-0.3,0.1l-0.1,0.1l-0.1,0.1l-0.1,0.1l-0.1,0l-0.2,0.1
		l-0.2,0.1l-0.8,0.4l-0.7,0.4l-0.5,0.2c-3.1,1.5-6.3,3.1-9.6,4.3c-3.8,1.3-7.4,2.3-11.2,3.2c-2,0.3-3.9,0.6-5.8,0.8
		c-1.1,0-2.2,0.1-3.3,0.1c0,0,0,0,0,0c-0.1,0-0.1,0-0.2,0c-0.3,0-0.6,0-0.9,0c-1.4,0-2.9-0.1-4.6-0.1c0,0,0,0,0,0c0,0,0,0,0,0
		c-1.2-0.1-2.1-0.3-3-0.4c-0.5-0.1-1-0.3-1.6-0.4c-0.1,0-0.2-0.1-0.3-0.1l-0.2-0.1l-0.2-0.1c-0.1-0.1-0.2-0.1-0.3-0.2
		c0,0-0.1-0.1-0.1-0.1c0,0,0-0.1-0.1-0.1c0,0,0,0,0,0V1450.3z"/>
	<path class="st6" d="M1173.8,1418.8L1173.8,1418.8L1173.8,1418.8L1173.8,1418.8c0-0.1,0-0.1,0-0.2l0,0.1l0-0.1l0,0L1173.8,1418.8
		c0-0.1,0-0.2,0-0.2c0,0,0,0,0,0c0-0.1,0-0.3,0.1-0.4c0,0,0-0.1,0-0.1l0-0.2l0-0.1c0-0.1,0-0.1,0.1-0.2l0.2-0.3
		c0.2-0.3,0.4-0.5,0.6-0.7c0.3-0.3,0.5-0.5,0.8-0.8l0.1-0.1c0.6-0.5,1.1-0.9,1.7-1.3c1.3-0.8,2.6-1.6,4.1-2.4c2.1-1,4.5-2.1,6.9-3
		l0.8-0.3l0.8-0.3c2.4-0.8,4.4-1.5,6.3-2.2c0.2-0.1,0.3-0.1,0.5-0.2l0.3-0.1c0.2-0.1,0.4-0.1,0.6-0.2c0.2,0,0.3-0.1,0.5-0.1l0.2-0.1
		c0.3-0.1,0.6-0.2,0.8-0.3l0.2-0.1l0.1,0l0.2-0.1l0.1-0.1l0.3-0.2l0.1-0.1l0.1,0l0.1-0.1c0.3-0.2,0.5-0.2,0.7-0.3
		c0.2-0.1,0.3-0.1,0.5-0.2l0.1,0l0.3-0.1l0.4-0.1c0.1,0,0.2-0.1,0.4-0.2c0.2-0.1,0.4-0.2,0.5-0.3l0.2-0.1c0.2-0.1,0.4-0.2,0.6-0.3
		c0.2-0.1,0.5-0.2,0.7-0.3c0.2-0.1,0.3-0.1,0.5-0.2l0.1,0l0.1,0l0.2-0.1l0,0l0.2-0.1l0.3-0.1l0.4-0.2l0.3-0.1c0.1,0,0.1-0.1,0.2-0.1
		c0.2-0.1,0.4-0.2,0.6-0.2l1-0.4l0.1-0.1c0.2-0.2,0.3-0.3,0.5-0.4c0.4-0.3,0.8-0.5,1.2-0.6c0.2-0.1,0.4-0.1,0.6-0.1
		c0.2,0,0.4-0.1,0.6-0.1l0.4-0.1c0.3-0.1,0.6-0.2,0.9-0.2c0.8-0.2,1.7-0.4,2.7-0.6c0.4-0.1,0.8-0.2,1.2-0.3c0.5-0.1,1-0.2,1.5-0.3
		c0.4-0.1,0.9-0.1,1.3-0.2l0.2,0c0.2,0,0.3-0.1,0.5-0.1c0.2,0,0.4-0.1,0.6-0.1l0.2,0c0.5-0.1,0.9-0.1,1.4-0.1c0.3,0,0.6,0,0.9,0
		c0.2,0,0.4,0,0.6,0l0.4,0c0.3,0,0.6,0,0.9,0l0.4,0c0.3,0,0.7,0,1,0.1c0.9,0,1.9,0.1,2.7,0.2l0.5,0.1c0.3,0,0.6,0.1,0.9,0.1l0.1,0
		l0.1,0c1.7,0,3.5,0.1,5.5,0.2c3.8,0.3,7.4,1,10.9,1.7c0.7,0.2,1.3,0.4,1.9,0.6c0.5,0.2,0.9,0.4,1.4,0.6c-0.2-0.1-0.4-0.1-0.5-0.2
		c0.2,0.1,0.3,0.1,0.5,0.2c0,0,0,0,0,0l-0.1,0.1c-0.2,0.2-0.5,0.4-0.7,0.6c-1,0.8-2,1.5-3.1,2.2c-2.5,1.6-5.1,3-7.6,4.3l-1.2,0.7h0
		c0,0,0,0,0,0c0,0,0,0,0,0c-0.1,0-0.2,0.1-0.3,0.1l0,0l0,0c0,0,0,0-0.1,0l0,0c0,0,0,0,0,0l0,0c-0.1,0-0.1,0.1-0.2,0.1
		c-0.3,0.1-0.6,0.3-0.9,0.4c-2,1-4.1,2.1-6.3,3.1c0,0.1-0.1,0.1-0.1,0.2c-0.1,0.1-0.3,0.2-0.4,0.3l-0.1,0.1l-0.2,0.2
		c-0.1,0.1-0.3,0.2-0.4,0.3l-0.1,0.1c-0.1,0.1-0.3,0.2-0.4,0.3c-0.2,0.1-0.5,0.3-0.7,0.4c-0.2,0.1-0.5,0.2-0.7,0.3
		c-0.3,0.1-0.6,0.2-0.9,0.4l-0.5,0.2c-0.6,0.2-1.3,0.5-1.9,0.8c-1,0.4-2.2,0.9-3.4,1.2c-0.2,0.1-0.3,0.1-0.4,0.1
		c-0.2,0.2-0.5,0.3-0.7,0.2c0,0,0,0,0,0c-2,0.8-3.9,1.6-5.8,2.2c-2.8,0.9-5.8,1.7-9,2.4c-2.1,0.4-4.2,0.8-6.3,1
		c-1.6,0.1-3.3,0.1-4.9,0.1c-0.7,0-1.5,0-2.2,0c-2.2,0-4.7,0-7.4-0.2c-1.4-0.1-3-0.3-4.5-0.5c-0.5-0.1-1-0.3-1.5-0.4
		c-0.8-0.3-1.5-0.6-2.3-1c-0.1-0.1-0.3-0.1-0.4-0.2c-0.1,0-0.1-0.1-0.2-0.1c0,0,0,0,0,0c0,0,0,0,0,0c0,0,0,0,0,0c0,0,0,0,0,0
		c0,0-0.1-0.1-0.1-0.1c0.1,0,0.1,0.1,0.2,0.1c-0.1,0-0.1-0.1-0.2-0.1c0,0,0,0-0.1,0c0,0-0.1-0.1-0.1-0.1c-0.2-0.2-0.5-0.3-0.7-0.5
		c-0.1-0.1-0.2-0.2-0.3-0.3l-0.1-0.1l-0.1-0.1l-0.1-0.2l-0.1-0.1l0-0.1l0-0.1C1173.7,1419.3,1173.7,1419,1173.8,1418.8z"/>
	<path d="M607.1-24.3c2.1-0.9,4.3,0.2,5.2,2.1c0.5,1.1,1,2.1,1.5,3.2c2.4,4.6,5,9.1,7.3,13.7c-0.1-0.2-0.2-0.3-0.2-0.5
		c0.6,1.1,1.1,2.3,1.7,3.4c-0.1-0.2-0.2-0.3-0.2-0.5c3.2,6.4,6,12.9,9,19.4c2.9,6.3,5.9,12.7,9,18.9c2.2,3.9,4.3,7.9,6.5,11.8
		c0.9,1.6,1.8,3.2,2.7,4.9c1,2,2.1,3.9,3.2,5.9c4.3,7.7,7.9,15.7,11.7,23.7c1.3,2.8,2.6,5.6,4,8.3c-0.1-0.2-0.2-0.3-0.2-0.5
		c0.8,1.7,1.7,3.4,2.5,5.1c3.5,6.8,7.2,13.6,10.9,20.3c0.9,1.7,1.9,3.4,2.8,5.2c1,1.8,1.9,3.6,2.9,5.3c1,1.7,2.1,3.5,3.1,5.2
		c0.5,0.8,1.1,1.6,1.6,2.4c0.6,0.9,1.2,1.8,1.8,2.7c-0.1-0.1-0.2-0.3-0.3-0.4c1.2,1.7,2.4,3.5,3.6,5.2c1.3,1.7,2.5,3.5,3.8,5.2
		c2.6,3.3,5.3,6.6,8.1,9.8c2.9,3.4,5.8,6.9,8.7,10.3c2.8,3.3,5.7,6.6,8.5,9.9c3.7,4.3,7.5,8.6,11.2,12.9c3,3.1,6,6.3,9,9.4
		c3,3.1,6,6.4,8.9,9.6c3,3.3,6,6.7,9,10c0.6,0.6,1.2,1.2,1.8,1.8c1,1,2,2.1,3.1,3.1c1.5,1.6,3.2,3.1,4.7,4.6
		c6.2,6,12.7,11.7,19.1,17.5c6.1,5.6,12.2,11.3,18.1,17.2c5.7,5.8,11.4,11.6,17.3,17.3c2.6,2.5,5.1,4.9,7.7,7.4
		c1.5,1.4,2.9,2.9,4.4,4.3c1.6,1.5,3.3,3,4.9,4.4c-0.1-0.1-0.3-0.2-0.4-0.3c3.4,3,6.8,6,10.2,9c1.6,1.4,3.1,2.9,4.6,4.4
		c1.5,1.4,3.1,2.8,4.6,4.2c1.6,1.4,3.2,2.8,4.9,4.1c0.6,0.5,1.3,1,1.9,1.5c1.1,0.8,2.1,1.6,3.2,2.4c3.2,2.4,6.4,4.7,9.6,7.1
		c0.8,0.5,1.7,1,2.5,1.5c0.8,0.5,1.6,1,2.4,1.5c1.9,1,3.7,2,5.6,2.9c2.1,1,4.1,2.1,6.2,3.1c1.7,0.8,3.4,1.6,5.1,2.4
		c1.8,0.8,3.5,1.7,5.3,2.3c2.7,1,5.3,2,8,2.9c3.9,1.4,7.9,2.8,11.8,4.2c0.8,0.3,1.6,0.6,2.4,1c1.3,0.5,2.6,1.1,3.9,1.6
		c1.9,0.8,3.8,1.7,5.7,2.5c0,0,0,0,0,0c0,0,0.1,0,0.1,0.1l3,1.3c1.5,0.6,2.4,2.1,2.4,3.7c0,0.5-0.1,1-0.3,1.5l0,0l0,0.1l-0.1,0.1
		l0,0.1l0,0l-0.1,0.1l-0.1,0.1c-0.1,0.2-0.3,0.4-0.4,0.6h0c0,0,0,0,0,0l-0.1,0.1c-0.1,0.1-0.2,0.2-0.4,0.4c0,0-0.1,0.1-0.1,0.1
		c0,0-0.1,0.1-0.1,0.1l-0.1,0.1l0,0c0,0,0,0,0,0l-0.1,0.1l0,0c0,0,0,0,0,0l-0.1,0l0,0c0,0,0,0,0,0l-0.1,0l-0.1,0.1
		c0,0-0.1,0.1-0.1,0.1l-0.1,0l0,0c0,0,0,0,0,0l-0.1,0l-0.1,0l0,0c0,0,0,0,0,0l-0.1,0c0,0-0.1,0-0.1,0l0,0c0,0,0,0,0,0l-0.1,0l-0.1,0
		c0,0-0.1,0-0.1,0l-0.1,0l-0.2,0c-0.5,0.1-1,0-1.5-0.1c-0.2,0-0.3-0.1-0.5-0.2c-2.8-1.2-5.6-2.4-8.3-3.7c-2-0.9-4.1-1.7-6.2-2.5
		c-1.8-0.7-3.7-1.3-5.5-2c-1.9-0.7-3.9-1.4-5.8-2.1c-2.5-0.9-5-1.9-7.6-2.8c-0.7-0.3-1.4-0.5-2.1-0.8c-0.9-0.3-1.7-0.8-2.6-1.2
		c-2.1-0.9-4.2-1.8-6.2-2.8c-2.3-1.1-4.6-2.3-6.9-3.4c-1.9-1-3.8-2-5.8-3c-1.9-1-3.7-2.2-5.5-3.3c-1.9-1.2-3.6-2.5-5.4-3.8
		c-1.7-1.2-3.4-2.6-5.1-3.8c-1.8-1.3-3.5-2.6-5.2-4c-0.6-0.5-1.2-1-1.8-1.5c-1.1-0.9-2.1-1.8-3.2-2.7c-1.7-1.5-3.4-3.1-5.1-4.6
		c-1.6-1.5-3.1-2.9-4.7-4.4c-1.6-1.5-3.3-2.9-4.9-4.4c-3.4-3-6.7-6-10.1-9c-1.7-1.5-3.2-3.1-4.8-4.7c-1.5-1.5-3.1-3-4.7-4.5
		c-3.1-2.9-6.1-5.9-9.1-8.9c-2.9-2.9-5.8-5.8-8.7-8.8c-6.1-6.2-12.3-12.1-18.7-18c-6.6-6.1-13.3-12-19.9-18.2
		c-3.2-3-6.4-6.2-9.5-9.3c-1.5-1.5-2.9-3.1-4.3-4.7c-1.5-1.6-2.9-3.3-4.4-4.9c-5.8-6.5-11.9-12.7-17.9-19.1c-3-3.2-5.9-6.6-8.7-9.9
		c-2.8-3.2-5.6-6.5-8.4-9.7c-2.9-3.4-5.8-6.8-8.7-10.2c-2.8-3.3-5.6-6.6-8.4-10c-2.7-3.3-5.3-6.7-7.8-10.1c-1.2-1.7-2.4-3.5-3.6-5.2
		c-0.6-0.9-1.3-1.9-1.9-2.8c-0.6-0.9-1.3-1.8-1.8-2.7c-1.1-1.8-2.2-3.5-3.2-5.3c-1-1.9-2-3.7-3.1-5.6c-2.1-3.8-4.2-7.7-6.3-11.5
		c-2.5-4.5-5-9.1-7.3-13.7c-0.9-1.8-1.8-3.5-2.6-5.3c-4-8-7.6-16.2-11.5-24.2c-0.9-1.7-1.7-3.4-2.7-5.1c-1.1-2-2.3-4.1-3.4-6.1
		c-1.9-3.7-4-7.3-6-10.9c-2.1-4-4.4-7.9-6.3-11.9c-1.8-3.8-3.7-7.7-5.5-11.5c-1.7-3.8-3.5-7.6-5.3-11.5c-1.7-3.7-3.4-7.4-5.2-11.1
		c0,0.1,0.1,0.2,0.1,0.2c-0.5-1-1-2-1.5-3c0,0,0,0.1,0,0.1c0,0,0,0,0,0c0,0,0,0,0,0c-3-5.8-6.3-11.4-9.1-17.3
		c-0.2-0.5-0.3-1-0.3-1.5C604.7-22.1,605.6-23.7,607.1-24.3z"/>
	<path d="M1846.6,648.6c0.2-1.8,0.4-3.6,0.8-5.4c0.5-2,1.2-3.9,2.1-5.8c1.3-2.8,3-5.3,4.7-7.8c2-2.9,3.9-5.9,6-8.7
		c2.3-3.2,4.8-6.4,7.2-9.6c2-2.6,3.9-5.3,5.8-7.9c2.4-3.3,4.9-6.6,7.4-9.8c2.4-3.1,4.8-6.1,7.2-9.2c2-2.6,3.9-5.2,5.9-7.8
		c2.1-2.7,4.3-5.5,6.4-8.2c5-6.4,9.8-12.8,14.7-19.3c2.4-3.2,4.8-6.4,7.1-9.7c2.2-3,4.2-6.2,6.3-9.3c-0.1,0.1-0.2,0.3-0.3,0.4
		c3.8-6,7.6-11.9,11.3-18c3.9-6.5,8-12.9,12-19.4c2-3.2,3.9-6.4,5.8-9.6c1.9-3.2,3.8-6.5,5.6-9.7c3.5-6.1,6.7-12.3,10-18.6
		c1.5-3,3.1-6,4.5-9c1.6-3.4,3.2-6.8,4.8-10.1c1.6-3.4,3.3-6.8,4.9-10.2c1-2.1,1.9-4.2,2.9-6.2c0.6-1.4,1.2-2.8,1.8-4.2
		c3-7.2,6-14.4,9-21.7c2.8-6.8,5.7-13.5,8.5-20.3c1-2.4,1.9-5,2.9-7.4c0.9-2.3,1.8-4.6,2.7-7c1.8-4.6,3.6-9.3,5.3-13.9
		c2-5.2,3.9-10.3,5.8-15.5c1.7-4.9,3.4-9.8,5.1-14.6c0,0,0,0,0,0c1.2-3.6,2.3-7.2,3.5-10.8c1.1-3.4,2.1-6.8,3.1-10.2
		c1-3.3,2-6.6,3-9.9c1.1-3.5,2.2-7,3.2-10.5c4.2-14.6,8.4-29.2,12.5-43.9c2.2-7.9,4.3-15.8,6.1-23.7c1.9-8.7,3.8-17.4,5.6-26.1
		c1.4-7.4,2.8-14.8,4.3-22.2c1.3-7,2.8-13.9,3.9-20.9c1.1-7.4,2.4-14.8,3.4-22.2c0.9-7.4,1.9-14.9,2.8-22.3
		c0.8-7.3,1.4-14.6,2.1-21.9s1.4-14.6,2.1-21.9c1.4-15,2.6-30,4.5-44.9c0.8-6.6,1.6-13.3,2.4-19.9c0.5-3.5,0.9-7.1,1.4-10.6
		c0.5-3.5,1.2-7,2-10.5c0.5-2.1,2.9-3.3,4.9-2.8c1,0.3,1.9,0.9,2.4,1.8c0.6,1,0.6,2,0.4,3.1c-0.1,0.6-0.3,1.2-0.4,1.9
		c-0.7,3.3-1.2,6.6-1.7,10c-0.5,3.5-0.9,7-1.4,10.4c-0.9,7.5-1.8,15-2.8,22.6c-0.4,3.5-0.7,6.9-1.1,10.4c-0.3,3.5-0.7,7.1-1,10.6
		c-0.7,7.2-1.4,14.4-2,21.6c-1.4,15-2.7,30-4.4,45c-0.8,7.2-1.8,14.4-2.8,21.7c-0.5,3.9-1.2,7.9-1.8,11.8c-0.5,3.1-0.9,6.3-1.5,9.4
		c-1.4,7.9-2.9,15.7-4.4,23.5c-1.3,6.9-2.6,13.9-4,20.8c-3,14.5-6.1,28.9-10,43.2c-1.9,7-3.8,13.9-5.8,20.9
		c-2.1,7.3-4.3,14.7-6.3,22c-2.1,7.4-4.4,14.8-6.6,22.1c-2.1,7.1-4.3,14.2-6.6,21.3c-2.3,7.1-4.8,14.1-7.3,21.1
		c-2.5,7.1-5.3,14.2-8,21.2c-1.4,3.5-2.7,7-4,10.5c-1.2,3.2-2.5,6.3-3.7,9.5c-0.7,1.7-1.4,3.4-2.1,5.1c-0.6,1.5-1.2,2.9-1.8,4.4
		c-1.5,3.4-2.9,6.9-4.4,10.3c-3,7.2-6,14.4-9,21.6c-0.6,1.5-1.2,3-1.8,4.4c-0.9,2-1.9,4-2.8,6c-1.6,3.4-3.2,6.8-4.9,10.2
		c-1.7,3.4-3.3,6.9-4.9,10.3c-1.5,3.3-3.2,6.5-4.8,9.7c-1.6,3.2-3.3,6.3-4.9,9.4c-0.9,1.7-1.8,3.3-2.7,4.9c-0.8,1.4-1.5,2.8-2.3,4.2
		c-1.8,3.1-3.6,6.3-5.4,9.4c-2,3.3-4,6.7-6.1,10c-4.1,6.7-8.3,13.3-12.3,20c-7.5,12.3-15.3,24.4-24,35.9c-4.7,6.1-9.3,12.3-14,18.4
		c-4.6,5.9-9.1,11.8-13.6,17.7c-2,2.6-4.1,5.1-6.1,7.7c-2.4,3.1-4.7,6.2-7,9.3c-2.4,3.2-4.8,6.5-7.1,9.7c-1.9,2.7-4,5.2-5.9,7.9
		c-1.1,1.5-2.3,3-3.3,4.6c-1,1.5-2,2.9-3,4.4c-1.9,2.8-3.8,5.6-5.4,8.7c-0.4,0.9-0.8,1.7-1.1,2.6c-0.2,0.6-0.3,1.1-0.5,1.7
		c-0.3,1.5-0.5,3.1-0.6,4.6c-0.3,2.2-2.4,3.7-4.5,3.4c-2-0.3-3.4-2-3.4-4C1846.5,649,1846.6,648.8,1846.6,648.6z"/>
	<path class="st7" d="M942.1,128.1l0.2-0.1l0.2-0.1c0.4-0.1,0.9-0.3,1.3-0.4c1.7-0.3,3.4-0.5,5.1-0.7c0.9-0.1,1.8-0.1,2.6-0.2
		c3.4-0.2,6.8-0.4,10.4-0.7l0.4,0c2-0.1,4-0.3,6.1-0.4c6.1-0.4,11.5-1,16.5-1.8c2-0.3,4-0.6,6-1l0.7-0.1l1.6-0.3l0.8-0.1
		c2.1-0.3,4.9-0.8,7.5-1.3c4.6-0.9,9.2-2,13.6-3.1l0.1,0l2.9-0.7l-0.1,0c0.2,0,0.4-0.1,0.6-0.1l0.1,0l0,0c0.8-0.2,1.6-0.3,2.4-0.5
		l0.1,0l0.2,0l0.1,0l0.6-0.1l0.5-0.1c3.1-0.6,6.2-1.2,9.2-1.9c3.2-0.7,6.4-1.4,9.6-2.1l1.8-0.4l0.5-0.1c0.9-0.2,1.8-0.4,2.7-0.6
		l0.8-0.2l0.4-0.1l0.5-0.1c1.1-0.3,2.2-0.5,3.2-0.8c2.2-0.6,4.4-1.2,6.6-1.9l0.5-0.1l2.4-0.7c1.1-0.3,2.2-0.6,3.3-0.9l0.2-0.1
		c2.1-0.6,4.1-1.2,6.2-1.8c3.6-1.1,7-2.1,10.1-3c1.1-0.3,2.2-0.6,3.2-0.8l0.2,0c0.6-0.1,1.1-0.2,1.7-0.4c1-0.2,2.1-0.5,3.1-0.7
		l1.5-0.3c5.1-1.1,10.3-2.3,15.7-3.5l3.1-0.7l4.6-0.9l1-0.2l0.5-0.1l1.5-0.3c2.2-0.4,4.4-0.8,6.6-1.2c3.2-0.6,6.5-1.4,9.8-2.2
		c1.4-0.3,2.7-0.6,4.1-0.9c2.4-0.5,4.7-0.9,7.1-1.4c2.9-0.6,5.6-1.2,8-1.7c1.6-0.4,3.3-0.8,4.9-1.2c2.8-0.7,5.7-1.4,8.6-2
		c4.7-1,9.4-2.1,13.8-3.2c2.7-0.7,5.5-1.3,8.2-2c0.7-0.2,1.4-0.3,2.1-0.5c1.2-0.3,2.8-0.6,4.3-1c5.9-1.6,12-3.4,18.7-5.3
		c1.1-0.3,2.3-0.7,3.4-1.1l0.6-0.2c1.6-0.5,3.4-1.1,5.2-1.6c3.7-1.1,7.1-2,10.5-2.9c2.2-0.6,4.4-1.2,6.6-1.8l2.6-0.7
		c1.1-0.3,2.1-0.6,3.2-0.9l0.1,0l0.5-0.1c1.7-0.5,3.4-0.9,5.1-1.4c3.5-1,7-2.1,10.5-3.2c1.2-0.4,2.3-0.7,3.4-1l0.9-0.2l0.9-0.2
		c1.1-0.3,2.1-0.6,3.1-0.9l1.4-0.4c1.7-0.5,3.4-1.1,5-1.6l0.3-0.1l0.5-0.2c1.1-0.4,2.2-0.7,3.3-1c2.8-0.9,5.8-1.7,8.9-2.5l1.6-0.4
		l0.4-0.1l0.3-0.1c1-0.2,1.9-0.5,2.9-0.8l1.8-0.5l0.2-0.1c1-0.3,2.1-0.6,3.1-0.9l2.5-0.7l2.6-0.7c1-0.3,2-0.5,2.9-0.7l0.2,0l0.5-0.1
		l1.1-0.2c2.6-0.6,5.3-1.3,7.9-1.9l0.7-0.2c2.9-0.7,6.2-1.6,9.4-2.3l2.3-0.5c2.1-0.5,4.6-1.1,7-1.7c3.4-0.9,6.9-1.8,10.3-2.7
		c1.7-0.4,3.5-0.8,5.2-1.2l0.5-0.1c1.2-0.3,2.4-0.5,3.5-0.8c3.3-0.8,6.1-1.5,8.7-2.2c3.5-0.9,6.8-1.7,10-2.5c3.7-0.8,7-1.6,10-2.4
		c1.2-0.3,2.3-0.6,3.5-0.9l0.2,0l0.2-0.1c1.8-0.5,3.6-0.9,5.4-1.4c2.5-0.6,5.2-1.2,7.6-1.7l0.2,0l2-0.4c5.3-1.1,10.6-2.3,15.8-3.5
		l0.3-0.1l2.5-0.6l0.9-0.2l0.3-0.1c1-0.2,1.9-0.4,2.9-0.5l0.8-0.1l0.2,0c1.4-0.2,2.8-0.4,4.1-0.6c3.5-0.4,7.1-0.8,10.6-1.2
		c2.8-0.3,5.8-0.7,9.8-1.3c1-0.1,1.9-0.3,2.9-0.4c2.2-0.3,4.6-0.6,7-1.1l1.7-0.3c2.7-0.5,5.4-1,8.1-1.4c3.5-0.4,6.9-0.8,10.4-1.3
		c3.2-0.4,6.2-0.9,9.7-1.4c1.6-0.3,3.1-0.5,4.7-0.8l1.5-0.3l1.1-0.2c-0.6,0.6-1.3,1.1-2,1.6l-1.9,1.4c-2.3,1.8-5,3.8-7.6,5.6
		c-3.2,2.3-6.5,4.7-9.8,7.2c-5.5,4.1-10.9,8.5-16.1,12.7l-0.2,0.2l-3.1,2.5l-1.6,1.3c-2.4,2-5.4,4.4-8.2,6.8
		c-2.9,2.5-5.8,5.1-8.7,7.7c-1.9,1.7-3.9,3.3-5.8,4.9l-0.9,0.7l-1,0.9l-0.6,0.5c-2,1.7-4,3.4-6,5.2l-4.1,3.6
		c-0.9,0.8-1.8,1.6-2.6,2.4c-0.5,0.5-0.9,0.8-1.2,1.2c-1.1,1-2.1,2-3.2,3l-0.4,0.4l-0.6,0.6l-0.6,0.6l-1.2,1.1
		c-2.8,2.6-5.6,5.3-8.3,7.9c-1,1-2.1,2-3.1,3l-0.4,0.4l-0.2,0.2c-0.8,0.8-1.6,1.6-2.4,2.4c-0.3,0.3-0.6,0.6-0.9,0.9l-0.2,0.2
		c-0.9,0.9-1.7,1.7-2.6,2.5l-1.8,1.6l-0.8,0.7l-1.6,1.5l-0.1,0.1c-2.1,1.9-4.6,4.1-6.8,6.4c-2.4,2.3-4.9,4.7-7.2,6.8l-0.2,0.2
		l-0.2,0.2c-2.1,1.9-4.4,4.1-6.7,6.3c-2.7,2.6-5.5,5.4-7.7,7.6l-0.2,0.2c-1.7,1.7-3.3,3.3-5,5c-1.6,1.6-3.1,3.1-4.7,4.7
		c-2.9,2.9-5.8,5.9-8.9,8.8c-4.5,4.2-9.3,8.6-15.1,13.8l-0.1,0.1l-1.6,1.4l-0.1,0.1c-1.6,1.4-3.3,2.9-5.1,4.3
		c-2.8,2.2-5.5,4.4-8.3,6.6l-1,0.8c-0.8,0.6-1.6,1.3-2.4,1.9l-2.6,2.3l-2.6,2.3c-0.6,0.5-1.2,1.1-1.8,1.6l-0.1,0.1l-0.1,0.1
		l-0.5,0.5l-1.2,1.1c-1,0.9-1.9,1.7-2.7,2.5c-4.3,4.3-9.1,9.1-14.9,15.1l-2.4,2.5l-0.3,0.3c-3.4,3.5-7,7.2-10.5,10.6
		c-0.8,0.8-1.5,1.5-2.3,2.3l-0.2,0.2c-1.3,1.3-2.6,2.6-3.9,3.9c-3.3,3.1-6.1,5.8-8.7,8.1c-0.9,0.8-1.8,1.7-2.7,2.6l-0.3,0.3
		l-0.4,0.4c-0.9,0.9-1.8,1.7-2.7,2.5c-2.4,2.2-5.1,4.7-8,7.2c-2.4,2.1-4.7,4.4-6.2,5.9l-2.1,2.1l-1,1l-0.5,0.5l-0.7,0.7l-4.5,4
		c-2.5,2.3-5.1,4.5-7.7,6.8l-0.1,0.1l-0.1,0.1l-1.1,1c-1.7,1.5-3.4,3-5.1,4.5c-1.6,1.4-3.1,2.7-4.7,4.1c-2.4,2.1-4.8,4.1-7.1,6.2
		c-1.5,1.4-3.1,2.8-4.6,4.1c-0.1-0.2-0.1-0.5-0.2-0.7c0-0.1,0-0.1-0.1-0.2c0,0,0-0.1,0-0.1c0-0.1,0-0.2,0-0.2l0-0.1h0l-0.1-0.4
		c0,0,0-0.1,0-0.1c-1-5.1-2-10.3-4.6-15c-1-1.7-2.2-3.4-3.7-5.1c-1.6-1.8-3-3.1-4.3-4.2c-0.7-0.5-1.4-1-2.1-1.4l-0.6-0.4
		c-0.8-0.5-1.7-1-2.5-1.5c-1.9-1.1-3.8-2.2-5.8-3.1c-1.9-0.9-3.7-1.7-5.5-2.4c-1.9-0.8-3.7-1.5-5.6-2c-2-0.6-3.9-1.1-5.8-1.6
		l-1.2-0.3c-1.7-0.4-3.5-0.9-5.2-1.1l-0.5-0.1l-0.5-0.1l-0.5-0.1l-0.1,0l-0.1,0c-1.4-0.2-2.9-0.4-4.4-0.5c-1.9-0.1-3.9-0.2-6.2-0.2
		l-0.6,0l-0.6,0l-0.6,0c-0.7,0-1.5,0-2.2,0c-2.4,0-5.3,0.1-7.9,1c-2,0.7-3.9,1.5-6.1,2.7c-2,1.1-3.8,2.5-5.1,3.6
		c-1.5,1.3-3.1,2.7-4.4,4.3c-1.4,1.8-2.7,3.6-3.8,5.3l0-0.1l0,0l-0.3,0.6l-0.6,0.9l0-0.1h0l0.1-0.1l-0.8,1.2l-1.4,2l0-0.1l0.1-0.1
		l-0.4,0.6l-0.2,0.3c-0.3,0.5-0.7,1-1,1.5l-0.1,0.1c-0.6,0.8-1.2,1.6-1.7,2.4l-1.5,2.1c-1.7,2.5-3.2,5.1-4.7,7.7l-0.1,0.1l-0.2,0.3
		c-2,3.6-3.6,7.5-5,11.2c-0.8,2.2-1.5,4.4-2.2,6.4l-0.1,0.2c-0.1,0.5-0.3,0.9-0.4,1.4l-0.2,0.5l-0.1,0.4c-0.3,1-0.8,2.3-1.1,3.6
		c-0.5,1.6-0.9,3.2-1.3,4.7l-0.1,0.4l-0.3,1c-0.3,1.3-0.6,2.5-0.9,3.9c-0.1,0.6-0.3,1.2-0.4,1.9c-0.8,3.6-1.5,7.5-2.1,12.6l-0.1,0.6
		l0,0.1c-0.2,1.8-0.5,3.7-0.5,5.5c-0.1,1.7-0.1,3.6-0.1,6c0,2.2,0,4.4,0,6.6v5.2v1.2c0,1.7,0,3.5,0.3,5.2c0.3,1.9,1,3.8,1.9,5.7
		c0.9,1.9,1.9,3.7,2.8,5.3c0.4,0.7,0.9,1.4,1.4,2.2c0.2,0.4,0.5,0.7,0.8,1l0.4,0.5c0.4,0.7,0.8,1.3,1.2,1.8c0.1,0.8,0.2,1.6,0.2,2
		c0,0.3,0,0.5,0,0.8c0,0.7,0.2,1.3,0.5,1.9l-1.9,1.5l-1.2,0.9c-3.6,2.8-6.8,5.3-10,7.9c-2.6,2.1-5.3,4.4-8.6,7.1
		c-2.9,2.4-5.9,4.9-8.8,7.3c-1.1,1-2.3,1.9-3.5,2.9l-1.2,1l-1,0.8c-0.8,0.7-1.6,1.3-2.4,2c-6.5,5-11.9,9.2-17.4,13.4l-2.1,1.6
		c-5.2,3.9-10.5,8-15.7,12.3c-6.7,5.5-12.5,10.3-17.6,14.6c-4.2,3.5-7.9,6.7-11.3,9.7c-2.8,2.5-5.9,5.1-9.8,8.4
		c-3.3,2.8-6.7,5.6-10,8.4l-0.1,0.1l-0.7,0.6c-2.5,2.1-5.1,4.3-7.5,6.4l-0.6,0.6l-1.7,1.5c-1.6,1.3-3.1,2.7-4.6,4.1
		c-0.2-1.5-0.4-3.1-0.6-5.4l0-0.2l0-0.2l0-0.2l0-0.2V484l0,0c-0.3-6.9-0.4-13.7-0.4-20.1c0-6.4,0-12.8-0.1-19.2l0-2.4
		c0-5.1,0-10.2,0-15.2l0-12.2v-12.2l0-2.9V397c0-4.4,0-9.2-0.1-13.9c0-2.3-0.1-4.6-0.2-7.2l-0.1-1.8c-0.2-3.7-0.3-7.3-0.4-11l0-0.7
		c0.6,0.2,1.2,0.3,1.9,0.2l0.2,0l0.1,0c0,0,0.1,0,0.1,0l0.1,0l0.1,0l0,0c0,0,0.1,0,0.1,0l0.2,0l0,0l0.1,0l0.1,0l0,0l0.1,0
		c0,0,0.1-0.1,0.1-0.1l0.1-0.1l0.1,0l0,0l0.1,0l0,0l0.1-0.1l0,0l0.1-0.1c0,0,0.1-0.1,0.1-0.1c0,0,0.1-0.1,0.1-0.1
		c0.2-0.2,0.3-0.3,0.4-0.4l0.1-0.1h0c0.2-0.2,0.3-0.4,0.4-0.6l0.1-0.1l0.1-0.1l0,0l0-0.1l0.1-0.1l0-0.1l0,0c0.2-0.5,0.3-1,0.3-1.5
		c0-1.6-0.9-3-2.4-3.7l-3-1.3c0,0-0.1,0-0.1-0.1c0-2.4-0.1-4.7-0.1-7l0-3.2c-0.1-6.7-0.1-13.4-0.1-20l0-19.9l0-19.9v-78.1v-39.3
		v-19.9l0-1.8l0-1.8c0-1.8,0-3.8-0.2-5.7C942.5,133.8,942.3,131,942.1,128.1C942,128.1,942.1,128.1,942.1,128.1z"/>
</g>
<g id="social__x0D_media">
	<text transform="matrix(1 0 0 1 396.9854 556.3247)"><tspan x="0" y="0" class="st8 st9">social </tspan><tspan x="0" y="110.2" class="st8 st9">media</tspan></text>
</g>
<g id="isn_x2019_t_social">
	<text transform="matrix(1 0 0 1 989.5371 897.8452)" class="st8 st10">isnt social</text>
</g>
<g id="anymore">
	<text transform="matrix(1 0 0 1 1762.3438 1237.7666)" class="st8 st10">anymore</text>
</g>
</svg>
