<svg id="Capa_1" enable-background="new 0 0 511.991 511.991" height="512" viewBox="0 0 511.991 511.991" width="512" xmlns="http://www.w3.org/2000/svg"><g><g><path d="m77.134 128.711-15.459-14.647-22.865-3.587 32.411-68.116 20.893 9.941 4.285 7.634 13.146.66z" fill="#faf8f8"/><path d="m104.375 58.14-7.72 34.7-24.69 33.41-27.99-13.32-1.193-7.547 7.453-5.613 11.216 5.333c2.493 1.186 5.476.126 6.662-2.367l24.002-50.436z" fill="#f0e9e6"/><path d="m31.255 120.242-14.26.075c-3.387-.417-5.371-4.029-3.905-7.111l1.016-6.155 42.235-88.765c1.466-3.082 5.521-3.821 7.981-1.456l7.153 6.879 2.702 5.574c3.102 2.984 3.948 7.618 2.098 11.504l-34.771 73.826c-1.848 3.887-5.977 6.154-10.249 5.629z" fill="#faf8f8"/><path d="m79.015 40.45-36.77 77.28c-1.85 3.89-5.98 6.16-10.25 5.63l-17.35-2.13c-3.38-.42-5.37-4.03-3.9-7.11l3.36-7.07 13.163 1.62c2.136.263 4.201-.871 5.126-2.814l39.081-82.146 5.45 5.24c3.1 2.98 3.94 7.61 2.09 11.5z" fill="#f0e9e6"/><g><path d="m486.274 157.111c-12.806-82.313-78.871-122.254-153.424-137.867.009.005 1.869 4.486-.136-.334-5.377-1.137-12.335-3.087-19.441-4.092-34.849-4.781-74.985-9.219-111.513.604-5.855 1.575-11.701 3.411-17.527 5.534.029-.005.058-.009.086-.014-9.074 3.44-16.978 6.689-27.291 12.475-41.463 23.297-70.508 62.148-74.022 116.035-1.193 18.291-9.078 27.13-10.859 34.779-2.164 9.292 7.716 18.834 11.66 28.013 1.652 3.845 1.382 8.277-.668 11.926-8.13 14.472-18.332 24.316-30.536 33.712-7.111 5.474-12.536 10.366-12.517 18.89.022 9.942 6.246 16.437 19.605 20.545 20.621 6.342 4.537 20.599-2.488 25.898-4.467 3.369-4.667 10.058-.353 13.621.069.057.14.114.211.171 5.401 4.306 8.87 7.882 10.626 9.842.759.848.641 2.14-.23 2.873-5.048 4.243-6.182 8.583-6.01 11.93.166 3.223 2.354 5.986 5.412 7.018 2.322.784 5.405 2.05 8.085 3.905 2.55 1.765 4.12 5.952 2.352 9.112-3.281 5.864-7.754 12.887-4.703 25.28 4.703 19.107 20.734 26.175 36.816 28.807 11.284 1.847 34.648-2.069 58.423-5.291 41.986-5.69 61.281 28.97 73.653 58.797l-.002.001c.562 2.135 1.602 4.218 2.999 6.123 4.719 6.435 18.729 7.266 26.993 4.844l138.207-36.765c11.58-2.98 18.009-15.339 13.85-26.559-11.991-32.301-24.878-77.412-9.084-95.649.757-.835.148-.192 1.757-1.811 46.737-42.296 64.572-70.519 69.729-113.929 0 .001-5.61-.014 0 .001 2.039-21.063 3.905-44.305.34-68.425z" fill="#fed2a4"/><path d="m443.571 318.049c10.059-10.581 21.301-23.375 29.81-38.637 15.27-26.058 18.311-58.715 18.524-90.67-.147-17.383-1.317-34.669-6.899-53.013-9.079-30.414-28.48-58.157-55.909-78.661.003.003.005.007.008.01-28.091-21.363-62.844-35.247-98.284-42.668.01 0 .02.01.02.02-5.37-1.14-13.7-2.66-20.809-3.66-37.439-5.14-77.237-5.2-116.396 7.02 31.289-5.99 62.588-5.11 92.397-1.02 7.11 1 15.439 2.52 20.809 3.66 0-.01-.01-.02-.02-.02 74.547 15.61 146.074 59.788 158.884 142.105 1.59 10.78 2.2 21.639 2.2 32.229 0 13.119-.93 25.839-2.06 37.489-3.077 25.845-10.274 46.125-25.46 67.229-7.954 8.971-17.59 18.461-29.297 29.058-.603.572-1.183 1.072-3.02 3.1-16.349 18.869-14.039 55.648 7.04 112.446.71 1.89.14 3.46-.26 4.23-.4.75-1.34 2.09-3.26 2.58l-167.105 44.524c3.82 5.21 10.32 9.1 17.039 9.1 1.58 0 3.17-.21 4.74-.67l149.064-38.428c11.579-2.98 18.009-15.339 13.849-26.559-11.99-32.299-25.569-79.157-9.78-97.396.1-.12.21-.23.31-.35 4.505-4.703 4.035-2.953 23.865-23.048z" fill="#ffbd86"/></g><path d="m399.536 179.237 89.127 42.408 1.487 4.598c7.481 3.559 10.659 12.509 7.1 19.99l-31.66 65.959c-3.559 7.481-12.509 10.659-19.99 7.1l-89.797-41.568c-11.558-5.5-20.57-17.637-16.357-29.438.281-.787.604-1.567.971-2.337l26.174-55.01c5.866-12.33 20.616-17.569 32.945-11.702z" fill="#7a6d79"/><path d="m500.275 243.78-34.53 72.57c-3.56 7.48-12.51 10.66-19.99 7.1l-93.64-44.56c-11.61-5.52-16.92-18.91-12.61-30.75l103.035 51.457c4.006 2.001 8.874.324 10.798-3.72l35.326-74.237 4.51 2.15c7.481 3.56 10.661 12.51 7.101 19.99z" fill="#685e68"/><path d="m183.305 193.389-103.318-47.149c-7.481-3.559-10.659-12.509-7.1-19.99l.567-3.71 31.754-66.737c3.559-7.481 12.509-10.659 19.99-7.1l92.757 44.135 6.358 8.715 21.062 4.332z" fill="#7a6d79"/><path d="m245.375 105.89-27.42-13.05c-.43.27-.86.55-1.28.83-17.69 11.76-31.19 28.46-39.04 48.3l-7.278 18.406c-1.49 3.768-5.858 5.488-9.517 3.747l-87.385-41.583-2.77 5.83c-3.56 7.48-.39 16.43 7.1 19.99l102.77 48.9 12.6-17.76z" fill="#685e68"/><path d="m185.505 204.787c-.488-.232-2.623 1.645-3.062 1.355-4.446-2.932-6.334-8.644-4.322-13.729l17.186-43.45c18.096-45.751 71.136-66.63 115.563-45.491l13.365 6.359 31.313 25.169 49.544 29.902c.554.749 1.101 1.504 1.639 2.266 6.536 9.248 11.796 19.323 15.659 29.91 5.58 15.288-4.733 31.746-20.919 33.433-.319.033-.638.06-.956.081-11.049.728-17.877-9.067-21.734-19.531-6.94-18.834-23.676-33.769-42.12-42.545l-42.893-20.409c-23.601-11.23-52.202-6.071-67.924 14.808l-28.981 37.788c-3.263 4.335-6.457 6.416-11.358 4.084z" fill="#faf8f8"/><path d="m405.095 164.9c-12.43-16.78-28.89-30.33-47.75-39.31l-33.11-15.76-23.522 22.501c-1.685 1.612-4.143 2.078-6.324 1.25-8.001-3.036-16.388-4.591-25.025-4.591-22.19 0-43.4 10.58-56.74 28.29l-30.18 48.86c.44.29.9.56 1.39.79 4.9 2.33 10.76.89 14.03-3.45l27.54-36.57c14.117-18.751 38.339-26.242 60.224-19.443 2.121.766 2.051.467 7.346 2.863l42.89 20.41c9.661 5.239 15.454 7.953 26.754 21.086 5.437 6.683 9.773 14.244 12.766 22.364 3.67 9.94 13.08 16.46 23.49 16.46.54 0 1.09-.02 1.64-.07-4.98-10.14-9.49-20.22-10.12-21.92-2.476-6.723-5.725-13.117-9.631-19.059-1.772-2.696-1.11-6.304 1.515-8.18 8.008-5.891 15.296-10.593 22.817-16.521z" fill="#f0e9e6"/><path d="m289.497 223.144-26.734-32.369 24.87-16.711 4.131-11.025 56.684-54.211c5.57-5.327 14.272-5.566 20.125-.552l21.118 18.088 2.381 3.168c7.397 6.336 6.888 17.931-1.035 23.595z" fill="#7a6d79"/><path d="m394.295 130.3-4.6-3.94-73.424 54.311c-1.74 1.287-4.168.941-5.522-.747-5.235-6.526-11.599-12.266-18.984-16.884l-24.339 23.281-.001-.001-4.66 4.46 29.29 35.46 101.2-72.34c7.92-5.67 8.43-17.26 1.04-23.6z" fill="#685e68"/><path d="m298.101 249.894c8.185-17.202 8.597-33.933 1.468-48.83-1.713-3.579-2.23-7.746-5.058-10.989-5.023-5.76-11.283-10.607-18.624-14.1-28.676-13.644-62.983-1.459-76.627 27.217-6.982 14.675-7.2 30.824-1.906 44.924 5.052 13.453 19.822 22.18 33.823 28.842 28.676 13.644 53.28 1.611 66.924-27.064z" fill="#7a6d79"/><path d="m303.105 252.6c-13.64 28.68-47.95 40.86-76.63 27.22-14.48-6.89-24.76-19.05-29.61-33.1 5.01 5.76 11.27 10.61 18.61 14.1 28.68 13.64 62.99 1.46 76.63-27.22 6.75-14.19 7.18-29.76 2.4-43.52 14.6 16.74 18.75 41.19 8.6 62.52z" fill="#685e68"/><path d="m267.037 235.255c4.379-9.203 3.314-18.84-5.054-24.193-.701-.448-1.437-.858-2.208-1.225-9.974-4.746-21.907-.507-26.653 9.467-1.758 3.695-2.283 7.658-1.741 11.425.922 6.403 7.714 10.73 13.993 13.718 9.975 4.746 16.917.783 21.663-9.192z" fill="#bae6ef"/><path d="m269.245 236.49c-4.75 9.97-16.68 14.21-26.66 9.47-6.28-2.99-10.29-8.83-11.21-15.23.7.45 1.44.86 2.21 1.23 9.98 4.74 21.91.5 26.66-9.47 1.76-3.7 2.28-7.66 1.74-11.43 8.36 5.35 11.63 16.23 7.26 25.43z" fill="#94d8e6"/></g><g><path d="m497.823 217.768c.765-9.535 1.126-20.271 1.126-33.303 0-57.688-25.154-105.6-72.742-138.557-3.405-2.358-8.077-1.51-10.436 1.896-2.358 3.405-1.51 8.078 1.896 10.437 43.981 30.459 66.282 72.927 66.282 126.225 0 10.032-.218 18.624-.675 26.31l-58.744-27.95c-3.318-6.985-7.217-13.677-11.675-19.985-2.601-3.681-5.423-7.245-8.401-10.667 1.519-2.889 2.408-6.113 2.556-9.491.305-6.956-2.553-13.544-7.842-18.074l-25.716-22.027c-8.819-7.554-21.797-7.198-30.188.828l-5.008 4.789-24.165-11.498c-22.828-10.968-50.788-12.157-74.835-2.032l-38.194-18.173c-3.74-1.781-8.215-.191-9.995 3.55-1.78 3.74-.19 8.216 3.55 9.995l28.126 13.383c-15.448 10.307-27.383 25.015-34.411 42.782l-15.463 39.094-91.867-43.711c-1.809-.86-3.175-2.374-3.845-4.263-.67-1.887-.566-3.923.295-5.731l34.528-72.567c.861-1.81 2.374-3.175 4.262-3.845 1.887-.671 3.924-.565 5.733.295l41.163 19.586c3.74 1.779 8.216.189 9.995-3.55 1.78-3.74.19-8.216-3.55-9.995l-24.659-11.733c30.945-22.506 72.572-34.786 118.632-34.786 44.57 0 88.943 9.404 124.944 26.48 3.744 1.775 8.216.181 9.991-3.563 1.775-3.742.18-8.215-3.562-9.99-37.969-18.009-84.625-27.927-131.373-27.927-52.425 0-99.733 15.078-133.843 42.546l-1.293-.615c-5.427-2.583-11.536-2.898-17.198-.885-4.045 1.436-7.5 3.951-10.095 7.239l-14.455-6.878c1.982-6.275.293-13.206-4.553-17.868l-12.597-12.112c-2.887-2.778-6.964-4.005-10.907-3.29-3.942.719-7.324 3.309-9.045 6.927l-45.598 95.832c-1.722 3.618-1.598 7.875.331 11.388 1.929 3.512 5.455 5.9 9.431 6.389l17.347 2.134c.721.088 1.439.132 2.152.132 5.883 0 11.363-2.963 14.591-7.867l14.44 6.871c-2.208 9.95 2.603 20.483 12.138 25.111-1.291 7.471-3.828 12.847-6.117 17.684-1.58 3.34-3.072 6.493-3.845 9.812-2.173 9.332 2.979 17.492 7.525 24.692 1.802 2.854 3.503 5.549 4.549 7.983.721 1.678.603 3.656-.316 5.293-6.641 11.821-14.919 20.932-28.573 31.442-6.161 4.743-15.472 11.911-15.443 24.851.029 13.307 8.407 22.626 24.901 27.698 3.202.984 4.432 1.943 4.813 2.31-.46 2.51-6.239 8.38-12.037 12.162-5.652 4.429-7.421 15.938 2.124 23.916 2.499 1.992 4.542 3.81 6.15 5.339-6.772 8.718-5.025 18.409-1.437 23.667 1.077 1.579 2.741 2.691 4.607 3.103 1.405.309 5.64 1.547 8.732 3.603-3.257 5.709-8.654 15.283-5.128 30.181 4.663 18.941 19.092 30.521 42.889 34.416 2.294.355 6.814.711 11.76.509 4.14-.147 7.376-3.622 7.229-7.762s-3.631-7.362-7.762-7.229c-3.729.131-6.691.024-8.803-.321-17.799-2.914-27.568-10.285-30.747-23.199-2.042-8.197.487-14.177 3.966-19.826 3.92-7.008.65-15.288-4.627-18.94-3.53-2.444-7.465-4.033-10.333-4.976-.075-1.622.691-4.083 4.571-6.88 1.645-1.187 2.74-2.988 3.034-4.994.294-2.007-.236-4.047-1.471-5.656.051-.465-6.861-7.403-14.357-13.883 6.214-4.415 18.073-14.413 16.533-25.468-.645-4.625-3.821-10.879-15.294-14.408-12.56-3.862-14.3-8.72-14.311-13.394-.011-4.767 2.819-7.716 9.593-12.931 10.706-8.242 22.94-18.963 32.5-35.982 3.192-5.683 3.574-12.621 1.02-18.563-1.513-3.521-3.614-6.85-5.647-10.068-3.122-4.944-6.35-10.058-5.599-13.282.409-1.756 1.514-4.093 2.794-6.798 2.1-4.438 4.743-10.041 6.5-17.461l81.955 38.995c1.229 5.518 4.881 10.427 10.314 13.013 2.172 1.033 4.465 1.61 6.762 1.77-5.529 28.412 8.563 58.124 35.881 71.122 8.824 4.198 18.341 6.32 27.902 6.32 6.546 0 13.114-.994 19.494-2.999 3.952-1.242 6.148-5.452 4.907-9.403-1.242-3.952-5.452-6.15-9.403-4.907-12.074 3.794-25.021 2.885-36.455-2.556-24.896-11.846-35.513-41.737-23.667-66.632 11.182-23.981 41.888-35.765 66.632-23.668 24.896 11.846 35.513 41.737 23.667 66.634-1.528 3.214-3.393 6.259-5.541 9.051-2.525 3.283-1.911 7.992 1.372 10.518 3.283 2.527 7.992 1.913 10.518-1.371 2.792-3.631 5.214-7.585 7.197-11.753 5.585-11.737 7.496-24.576 5.666-37.153l37.251-26.629c1.125 1.165 2.211 2.365 3.252 3.603l-22.402 47.081c-7.634 16.044-.792 35.307 15.251 42.94l78.654 37.424c-3.647 3.51-7.556 7.154-11.815 11.008-17.039 15.42-15.071 50.545 6.014 107.384 1.269 3.42 1.04 7.08-.646 10.306-1.678 3.211-4.535 5.478-8.044 6.382l-149.069 38.426c-6.11 1.58-12.503-1.641-14.873-7.478-8.895-21.908-29.729-73.22-82.691-66.039-3.021.409-8.33 1.149-13.271 1.846-4.102.575-6.96 4.368-6.384 8.47s4.363 6.96 8.47 6.384c3.51-.493 7.609-1.072 13.199-1.836 36.404-4.924 53.614 24.392 66.778 56.817 4.297 10.588 14.641 17.231 25.661 17.231 2.272 0 4.572-.282 6.854-.87l149.069-38.426c7.563-1.949 13.976-7.037 17.594-13.958 3.625-6.937 4.142-15.128 1.417-22.473-17.669-47.628-21.318-80.813-10.012-91.045 5.979-5.411 11.309-10.436 16.189-15.259l.546.26c3.068 1.46 6.352 2.194 9.652 2.194 2.538 0 5.084-.435 7.546-1.31 5.664-2.012 10.205-6.108 12.787-11.535l34.528-72.566c5.095-10.717.943-23.482-9.228-29.239zm-417.435-162.74 13.767 6.55-25.965 54.571-13.767-6.55zm-47.476 60.889-13.904-1.71 42.616-89.566 10.098 9.71c.777.748.988 1.903.525 2.877l-36.772 77.283c-.464.972-1.487 1.543-2.563 1.406zm152.183 79.255 17.186-43.45c7.98-20.175 23.492-35.662 43.68-43.609 20.188-7.946 42.095-7.188 61.686 2.132l19.011 9.046-27.063 25.883-3.399-1.617c-26.701-12.702-58.992-4.78-76.781 18.841-7.234 9.708-20.265 26.638-27.542 36.576-1.116 1.48-3.141 1.978-4.815 1.182-1.857-.885-2.718-3.073-1.963-4.984zm52.963-30.901c13.534-11.814 33.004-15.171 49.904-7.973l-12.025 11.5c-12.377-5.107-25.54-6.088-37.879-3.527zm51.559 11.199 64.014-61.222c2.797-2.677 7.124-2.793 10.063-.275l25.717 22.027c1.763 1.51 2.715 3.706 2.614 6.024-.102 2.319-1.243 4.423-3.131 5.772l-77.568 55.451c-4.581-11.21-12.072-20.743-21.709-27.777zm104.151-12.719c2.413 2.819 4.711 5.735 6.838 8.746 6.124 8.665 11.083 18.137 14.739 28.151 1.858 5.092 1.274 10.651-1.602 15.254-2.883 4.614-7.64 7.584-13.05 8.147-7.97.835-15.482-3.88-18.273-11.453-3.861-10.478-9.782-20.134-17.317-28.354zm99.735 77.808-34.528 72.566c-.861 1.81-2.375 3.176-4.262 3.846-1.888.671-3.924.565-5.733-.295l-93.639-44.555c-8.575-4.08-12.232-14.376-8.152-22.95l18.441-38.757c1.007 2.076 1.916 4.2 2.715 6.369 4.77 12.942 17.021 21.362 30.521 21.362 9.699.112 21.885-5.533 27.598-15.294 3.84-6.145 5.466-13.209 4.803-20.211l58.686 27.923c3.734 1.778 5.327 6.261 3.55 9.996z"/><path d="m262.997 203.064c-13.69-6.516-30.132-.675-36.647 13.017-6.515 13.693-.675 30.133 13.017 36.648 11.58 6.182 30.526 1.04 36.648-13.017 6.514-13.692.675-30.132-13.018-36.648zm-.527 30.204c-2.421 4.983-9.561 9.199-16.658 5.917-6.224-2.962-8.878-10.435-5.917-16.658 2.139-4.495 6.632-7.128 11.308-7.128 1.797 0 3.623.389 5.351 1.211 6.222 2.961 8.877 10.434 5.916 16.658z"/></g></g></svg>